<?xml version="1.0" encoding="UTF-8" standalone="no"?><!-- Generator: Gravit.io --><svg xmlns="http://www.w3.org/2000/svg" xmlns:xlink="http://www.w3.org/1999/xlink" style="isolation:isolate" viewBox="0 0 200 150" width="200pt" height="150pt"><defs><clipPath id="_clipPath_clp4iFd6NxIyaxwN0WWRtcilCcpPehsK"><rect width="200" height="150"/></clipPath></defs><g clip-path="url(#_clipPath_clp4iFd6NxIyaxwN0WWRtcilCcpPehsK)"><clipPath id="_clipPath_VWAZhwRlIeksCflYk4JaxCOkDzgLwExR"><rect x="0" y="0" width="200" height="150" transform="matrix(1,0,0,1,0,0)" fill="rgb(255,255,255)"/></clipPath><g clip-path="url(#_clipPath_VWAZhwRlIeksCflYk4JaxCOkDzgLwExR)"><g><rect x="0" y="0" width="200" height="150" transform="matrix(1,0,0,1,0,0)" fill="none" vector-effect="non-scaling-stroke" stroke-width="3" stroke="rgb(0,0,0)" stroke-opacity="100" stroke-linejoin="miter" stroke-linecap="square" stroke-miterlimit="2"/><clipPath id="_clipPath_TCXS7rKkHoMBciRpvc2yLr7spofiILlL"><rect x="0" y="0" width="200" height="150" transform="matrix(1,0,0,1,0,0)" fill="rgb(255,255,255)"/></clipPath><g clip-path="url(#_clipPath_TCXS7rKkHoMBciRpvc2yLr7spofiILlL)"><g><g><rect x="0" y="0" width="200" height="150" transform="matrix(1,0,0,1,0,0)" fill="none" vector-effect="non-scaling-stroke" stroke-width="3" stroke="rgb(0,0,0)" stroke-opacity="100" stroke-linejoin="miter" stroke-linecap="square" stroke-miterlimit="2"/><clipPath id="_clipPath_4xDGud6xXQggbtcTjWqe1M4VbyY3jGl8"><rect x="0" y="0" width="200" height="150" transform="matrix(1,0,0,1,0,0)" fill="rgb(255,255,255)"/></clipPath><g clip-path="url(#_clipPath_4xDGud6xXQggbtcTjWqe1M4VbyY3jGl8)"><g><g><g><clipPath id="_clipPath_C62zX0NGulFQIy7OB0nPfhdgTzju7pi6"><rect x="0" y="0" width="200" height="150" transform="matrix(1,0,0,1,0,0)" fill="rgb(255,255,255)"/></clipPath><g clip-path="url(#_clipPath_C62zX0NGulFQIy7OB0nPfhdgTzju7pi6)"><g><g><g><g><rect x="1.637" y="1.78" width="10.175" height="9.624" transform="matrix(1,0,0,1,0,0)" fill="rgb(116,116,116)" vector-effect="non-scaling-stroke" stroke-width="2" stroke="rgb(116,116,116)" stroke-opacity="1000000" stroke-linejoin="miter" stroke-linecap="butt" stroke-miterlimit="2"/><path d=" M -400 -300 L 400 -300 L 400 300 L -400 300 L -400 -300 L -400 -300 L -400 -300 L -400 -300 Z  M 0 1.116 L 200 1.116 L 0 1.116 L 0 1.116 L 0 1.116 L 0 1.116 Z " fill-rule="evenodd" fill="none" vector-effect="non-scaling-stroke" stroke-width="3" stroke="rgb(116,116,116)" stroke-opacity="100" stroke-linejoin="miter" stroke-linecap="square" stroke-miterlimit="3"/><clipPath id="_clipPath_CjqBJofE4ljeEOOz5c2A3Oa4sFa9wdDt"><path d=" M -400 -300 L 400 -300 L 400 300 L -400 300 L -400 -300 L -400 -300 L -400 -300 L -400 -300 Z  M 0 1.116 L 200 1.116 L 0 1.116 L 0 1.116 L 0 1.116 L 0 1.116 Z " fill-rule="evenodd" fill="rgb(255,255,255)"/></clipPath><g clip-path="url(#_clipPath_CjqBJofE4ljeEOOz5c2A3Oa4sFa9wdDt)"><g><g><g><clipPath id="_clipPath_K6Vv1DjQWD73jw5ONjfmXX0YEHsnHtLF"><path d=" M -400 -300 L 400 -300 L 400 300 L -400 300 L -400 -300 L -400 -300 L -400 -300 Z  M 0 1.116 L 200 1.116 L 0 1.116 L 0 1.116 L 0 1.116 Z " fill-rule="evenodd" fill="rgb(255,255,255)"/></clipPath><g clip-path="url(#_clipPath_K6Vv1DjQWD73jw5ONjfmXX0YEHsnHtLF)"><g><g><clipPath id="_clipPath_X4BXcU9WZseAZ31cM89k64gPFKot30n1"><path d=" M -400 -300 L 400 -300 L 400 300 L -400 300 L -400 -300 L -400 -300 Z  M 0 1.116 L 200 1.116 L 0 1.116 L 0 1.116 Z " fill-rule="evenodd" fill="rgb(255,255,255)"/></clipPath><g clip-path="url(#_clipPath_X4BXcU9WZseAZ31cM89k64gPFKot30n1)"><g><clipPath id="_clipPath_PPB8F9n4RE8BvM0j1BT2sWtWxXv5AlpI"><path d=" M -400 -300 L 400 -300 L 400 300 L -400 300 L -400 -300 Z  M 0 1.116 L 200 1.116 L 0 1.116 Z " fill-rule="evenodd" fill="rgb(255,255,255)"/></clipPath><g clip-path="url(#_clipPath_PPB8F9n4RE8BvM0j1BT2sWtWxXv5AlpI)"><mask id="_mask_rSUiPRV2Zje2cAMaA5D8IO328dFR3eHY" x="-200%" y="-200%" width="400%" height="400%"><rect x="-200%" y="-200%" width="400%" height="400%" style="fill:white;"/><line x1="0" y1="1.116" x2="200" y2="1.116" fill="black" stroke="none"/></mask><line x1="0" y1="1.116" x2="200" y2="1.116" mask="url(#_mask_rSUiPRV2Zje2cAMaA5D8IO328dFR3eHY)" vector-effect="non-scaling-stroke" stroke-width="4" stroke="rgb(116,116,116)" stroke-opacity="100000000" stroke-linejoin="miter" stroke-linecap="butt" stroke-miterlimit="4"/></g></g></g></g></g></g></g></g></g></g><path d=" M -400 -300 L 400 -300 L 400 300 L -400 300 L -400 -300 L -400 -300 L -400 -300 L -400 -300 Z  M 0 1.116 L 200 1.116 L 0 1.116 L 0 1.116 L 0 1.116 L 0 1.116 Z " fill-rule="evenodd" fill="none" vector-effect="non-scaling-stroke" stroke-width="3" stroke="rgb(116,116,116)" stroke-opacity="100" stroke-linejoin="miter" stroke-linecap="square" stroke-miterlimit="3"/><path d=" M -400 -300 L 400 -300 L 400 300 L -400 300 L -400 -300 L -400 -300 L -400 -300 L -400 -300 Z  M 0 149 L 200 149 L 0 149 L 0 149 L 0 149 L 0 149 Z " fill-rule="evenodd" fill="none" vector-effect="non-scaling-stroke" stroke-width="3" stroke="rgb(116,116,116)" stroke-opacity="100" stroke-linejoin="miter" stroke-linecap="square" stroke-miterlimit="3"/><clipPath id="_clipPath_gJnezMH5ufVx09VoKH6vWkI9uEUgCJkb"><path d=" M -400 -300 L 400 -300 L 400 300 L -400 300 L -400 -300 L -400 -300 L -400 -300 L -400 -300 Z  M 0 149 L 200 149 L 0 149 L 0 149 L 0 149 L 0 149 Z " fill-rule="evenodd" fill="rgb(255,255,255)"/></clipPath><g clip-path="url(#_clipPath_gJnezMH5ufVx09VoKH6vWkI9uEUgCJkb)"><g><g><g><clipPath id="_clipPath_OZ5c58MIyCE6uJEPKTa8yGkA4QTiqJTd"><path d=" M -400 -300 L 400 -300 L 400 300 L -400 300 L -400 -300 L -400 -300 L -400 -300 Z  M 0 149 L 200 149 L 0 149 L 0 149 L 0 149 Z " fill-rule="evenodd" fill="rgb(255,255,255)"/></clipPath><g clip-path="url(#_clipPath_OZ5c58MIyCE6uJEPKTa8yGkA4QTiqJTd)"><g><g><clipPath id="_clipPath_CuZtdRTtxHJsinmoWMVdYbdxOcA2irYq"><path d=" M -400 -300 L 400 -300 L 400 300 L -400 300 L -400 -300 L -400 -300 Z  M 0 149 L 200 149 L 0 149 L 0 149 Z " fill-rule="evenodd" fill="rgb(255,255,255)"/></clipPath><g clip-path="url(#_clipPath_CuZtdRTtxHJsinmoWMVdYbdxOcA2irYq)"><g><clipPath id="_clipPath_iodKB8nzbQvDZzIRbGOFw4YyXwcwWctJ"><path d=" M -400 -300 L 400 -300 L 400 300 L -400 300 L -400 -300 Z  M 0 149 L 200 149 L 0 149 Z " fill-rule="evenodd" fill="rgb(255,255,255)"/></clipPath><g clip-path="url(#_clipPath_iodKB8nzbQvDZzIRbGOFw4YyXwcwWctJ)"><mask id="_mask_sKyOEHSJXl8PWOMBvrC1eYwUa3ZSww6M" x="-200%" y="-200%" width="400%" height="400%"><rect x="-200%" y="-200%" width="400%" height="400%" style="fill:white;"/><line x1="0" y1="149" x2="200" y2="149" fill="black" stroke="none"/></mask><line x1="0" y1="149" x2="200" y2="149" mask="url(#_mask_sKyOEHSJXl8PWOMBvrC1eYwUa3ZSww6M)" vector-effect="non-scaling-stroke" stroke-width="4" stroke="rgb(116,116,116)" stroke-opacity="100000000" stroke-linejoin="miter" stroke-linecap="butt" stroke-miterlimit="4"/></g></g></g></g></g></g></g></g></g></g><path d=" M -400 -300 L 400 -300 L 400 300 L -400 300 L -400 -300 L -400 -300 L -400 -300 L -400 -300 Z  M 0 149 L 200 149 L 0 149 L 0 149 L 0 149 L 0 149 Z " fill-rule="evenodd" fill="none" vector-effect="non-scaling-stroke" stroke-width="3" stroke="rgb(116,116,116)" stroke-opacity="100" stroke-linejoin="miter" stroke-linecap="square" stroke-miterlimit="3"/><path d=" M -400 -300 L 400 -300 L 400 300 L -400 300 L -400 -300 L -400 -300 L -400 -300 L -400 -300 Z  M 0.866 0 L 0.866 150 L 0.866 0 L 0.866 0 L 0.866 0 L 0.866 0 Z " fill-rule="evenodd" fill="none" vector-effect="non-scaling-stroke" stroke-width="3" stroke="rgb(116,116,116)" stroke-opacity="100" stroke-linejoin="miter" stroke-linecap="square" stroke-miterlimit="3"/><clipPath id="_clipPath_ZMDlU2uRIpIYFFmVl6EiYsvIpCMAF9gE"><path d=" M -400 -300 L 400 -300 L 400 300 L -400 300 L -400 -300 L -400 -300 L -400 -300 L -400 -300 Z  M 0.866 0 L 0.866 150 L 0.866 0 L 0.866 0 L 0.866 0 L 0.866 0 Z " fill-rule="evenodd" fill="rgb(255,255,255)"/></clipPath><g clip-path="url(#_clipPath_ZMDlU2uRIpIYFFmVl6EiYsvIpCMAF9gE)"><g><g><g><clipPath id="_clipPath_ieuSkS50qQaWa8k3taofEf697T0suSHB"><path d=" M -400 -300 L 400 -300 L 400 300 L -400 300 L -400 -300 L -400 -300 L -400 -300 Z  M 0.866 0 L 0.866 150 L 0.866 0 L 0.866 0 L 0.866 0 Z " fill-rule="evenodd" fill="rgb(255,255,255)"/></clipPath><g clip-path="url(#_clipPath_ieuSkS50qQaWa8k3taofEf697T0suSHB)"><g><g><clipPath id="_clipPath_fuSDkqg9JRj261cdoWXhYvBbVxkhtLvu"><path d=" M -400 -300 L 400 -300 L 400 300 L -400 300 L -400 -300 L -400 -300 Z  M 0.866 0 L 0.866 102 L 0.866 150 L 0.866 0 L 0.866 0 Z " fill-rule="evenodd" fill="rgb(255,255,255)"/></clipPath><g clip-path="url(#_clipPath_fuSDkqg9JRj261cdoWXhYvBbVxkhtLvu)"><g><clipPath id="_clipPath_28pMQlUu3iqyfV9ArB8o367PDvysaMnt"><path d=" M -400 -300 L 400 -300 L 400 300 L -400 300 L -400 -300 Z  M 0.866 0 L 0.866 102 L 0.866 150 L 0.866 0 Z " fill-rule="evenodd" fill="rgb(255,255,255)"/></clipPath><g clip-path="url(#_clipPath_28pMQlUu3iqyfV9ArB8o367PDvysaMnt)"><mask id="_mask_kHNLFRUJzaA4LpRRzXnNAdlfSxQhyOEt" x="-200%" y="-200%" width="400%" height="400%"><rect x="-200%" y="-200%" width="400%" height="400%" style="fill:white;"/><path d=" M 0.866 0 L 0.866 102 L 0.866 150" fill="black" stroke="none"/></mask><path d=" M 0.866 0 L 0.866 102 L 0.866 150" fill="rgb(0,0,0)" mask="url(#_mask_kHNLFRUJzaA4LpRRzXnNAdlfSxQhyOEt)" vector-effect="non-scaling-stroke" stroke-width="6" stroke="rgb(116,116,116)" stroke-opacity="100000000" stroke-linejoin="miter" stroke-linecap="butt" stroke-miterlimit="4"/><path d=" M 0.866 0 L 0.866 102 L 0.866 150" fill="rgb(0,0,0)"/></g><path d=" M 0.866 0 L 0.866 102 L 0.866 150" fill="rgb(0,0,0)"/></g></g><path d=" M 0.866 0 L 0.866 102 L 0.866 150" fill="rgb(0,0,0)"/></g></g></g></g></g></g></g><path d=" M -400 -300 L 400 -300 L 400 300 L -400 300 L -400 -300 L -400 -300 L -400 -300 L -400 -300 Z  M 0.866 0 L 0.866 150 L 0.866 0 L 0.866 0 L 0.866 0 L 0.866 0 Z " fill-rule="evenodd" fill="none" vector-effect="non-scaling-stroke" stroke-width="3" stroke="rgb(116,116,116)" stroke-opacity="100" stroke-linejoin="miter" stroke-linecap="square" stroke-miterlimit="3"/><path d=" M -400 -300 L 400 -300 L 400 300 L -400 300 L -400 -300 L -400 -300 L -400 -300 L -400 -300 Z  M 199.134 0 L 199.134 150 L 199.134 0 L 199.134 0 L 199.134 0 L 199.134 0 Z " fill-rule="evenodd" fill="none" vector-effect="non-scaling-stroke" stroke-width="3" stroke="rgb(116,116,116)" stroke-opacity="100" stroke-linejoin="miter" stroke-linecap="square" stroke-miterlimit="3"/><clipPath id="_clipPath_P4Jv0FtMH9cAPJ2hguPO0ZSclqbv8IoR"><path d=" M -400 -300 L 400 -300 L 400 300 L -400 300 L -400 -300 L -400 -300 L -400 -300 L -400 -300 Z  M 199.134 0 L 199.134 150 L 199.134 0 L 199.134 0 L 199.134 0 L 199.134 0 Z " fill-rule="evenodd" fill="rgb(255,255,255)"/></clipPath><g clip-path="url(#_clipPath_P4Jv0FtMH9cAPJ2hguPO0ZSclqbv8IoR)"><g><g><g><clipPath id="_clipPath_rGeqGpYWs55Adv2dfGXqglnNSxX2BPMk"><path d=" M -400 -300 L 400 -300 L 400 300 L -400 300 L -400 -300 L -400 -300 L -400 -300 Z  M 199.134 0 L 199.134 150 L 199.134 0 L 199.134 0 L 199.134 0 Z " fill-rule="evenodd" fill="rgb(255,255,255)"/></clipPath><g clip-path="url(#_clipPath_rGeqGpYWs55Adv2dfGXqglnNSxX2BPMk)"><g><g><clipPath id="_clipPath_6pxY1VWaLTffoLkl75FSVgsu0hrf2gFH"><path d=" M -400 -300 L 400 -300 L 400 300 L -400 300 L -400 -300 L -400 -300 Z  M 199.134 0 L 199.134 150 L 199.134 0 L 199.134 0 Z " fill-rule="evenodd" fill="rgb(255,255,255)"/></clipPath><g clip-path="url(#_clipPath_6pxY1VWaLTffoLkl75FSVgsu0hrf2gFH)"><g><clipPath id="_clipPath_mo1hEma7GZHP231JDRbcyjUmdr0DHS2t"><path d=" M -400 -300 L 400 -300 L 400 300 L -400 300 L -400 -300 Z  M 199.134 0 L 199.134 150 L 199.134 0 Z " fill-rule="evenodd" fill="rgb(255,255,255)"/></clipPath><g clip-path="url(#_clipPath_mo1hEma7GZHP231JDRbcyjUmdr0DHS2t)"><mask id="_mask_UqDt9AmQYGXqwn67pSVznZb85wIiSw8J" x="-200%" y="-200%" width="400%" height="400%"><rect x="-200%" y="-200%" width="400%" height="400%" style="fill:white;"/><line x1="199.134" y1="0" x2="199.134" y2="150" fill="black" stroke="none"/></mask><line x1="199.134" y1="0" x2="199.134" y2="150" mask="url(#_mask_UqDt9AmQYGXqwn67pSVznZb85wIiSw8J)" vector-effect="non-scaling-stroke" stroke-width="4" stroke="rgb(116,116,116)" stroke-opacity="100000000" stroke-linejoin="miter" stroke-linecap="butt" stroke-miterlimit="4"/></g></g></g></g></g></g></g></g></g></g><path d=" M -400 -300 L 400 -300 L 400 300 L -400 300 L -400 -300 L -400 -300 L -400 -300 L -400 -300 Z  M 199.134 0 L 199.134 150 L 199.134 0 L 199.134 0 L 199.134 0 L 199.134 0 Z " fill-rule="evenodd" fill="none" vector-effect="non-scaling-stroke" stroke-width="3" stroke="rgb(116,116,116)" stroke-opacity="100" stroke-linejoin="miter" stroke-linecap="square" stroke-miterlimit="3"/><path d=" M -400 -300 L 400 -300 L 400 300 L -400 300 L -400 -300 L -400 -300 L -400 -300 L -400 -300 Z  M 14.073 5.745 L 29.867 5.745 L 14.073 5.745 L 14.073 5.745 L 14.073 5.745 L 14.073 5.745 Z " fill-rule="evenodd" fill="none" vector-effect="non-scaling-stroke" stroke-width="3" stroke="rgb(116,116,116)" stroke-opacity="100" stroke-linejoin="miter" stroke-linecap="square" stroke-miterlimit="3"/><clipPath id="_clipPath_8k8zXmt1rUdGD0rYsHv7X7QnxmSnalIh"><path d=" M -400 -300 L 400 -300 L 400 300 L -400 300 L -400 -300 L -400 -300 L -400 -300 L -400 -300 Z  M 14.073 5.745 L 29.867 5.745 L 14.073 5.745 L 14.073 5.745 L 14.073 5.745 L 14.073 5.745 Z " fill-rule="evenodd" fill="rgb(255,255,255)"/></clipPath><g clip-path="url(#_clipPath_8k8zXmt1rUdGD0rYsHv7X7QnxmSnalIh)"><g><g><g><clipPath id="_clipPath_HAYe5yUPqk3RUnEIHI6YCUatjfp2I4yu"><path d=" M -400 -300 L 400 -300 L 400 300 L -400 300 L -400 -300 L -400 -300 L -400 -300 Z  M 14.073 5.745 L 29.867 5.745 L 14.073 5.745 L 14.073 5.745 L 14.073 5.745 Z " fill-rule="evenodd" fill="rgb(255,255,255)"/></clipPath><g clip-path="url(#_clipPath_HAYe5yUPqk3RUnEIHI6YCUatjfp2I4yu)"><g><g><clipPath id="_clipPath_aN7IVm34jiL3xGMJ9InlAuPhXadA85QR"><path d=" M -400 -300 L 400 -300 L 400 300 L -400 300 L -400 -300 L -400 -300 Z  M 14.073 5.745 L 29.867 5.745 L 14.073 5.745 L 14.073 5.745 Z " fill-rule="evenodd" fill="rgb(255,255,255)"/></clipPath><g clip-path="url(#_clipPath_aN7IVm34jiL3xGMJ9InlAuPhXadA85QR)"><g><clipPath id="_clipPath_uot3PpWZhmjlzMpWpOay6HO3LROu5ng3"><path d=" M -400 -300 L 400 -300 L 400 300 L -400 300 L -400 -300 Z  M 14.073 5.745 L 29.867 5.745 L 14.073 5.745 Z " fill-rule="evenodd" fill="rgb(255,255,255)"/></clipPath><g clip-path="url(#_clipPath_uot3PpWZhmjlzMpWpOay6HO3LROu5ng3)"><mask id="_mask_l7FljXCAjXqU9MIe9VZvpahRFquQQexL" x="-200%" y="-200%" width="400%" height="400%"><rect x="-200%" y="-200%" width="400%" height="400%" style="fill:white;"/><line x1="14.073" y1="5.745" x2="29.867" y2="5.745" fill="black" stroke="none"/></mask><line x1="14.073" y1="5.745" x2="29.867" y2="5.745" mask="url(#_mask_l7FljXCAjXqU9MIe9VZvpahRFquQQexL)" vector-effect="non-scaling-stroke" stroke-width="4" stroke="rgb(116,116,116)" stroke-opacity="100000000" stroke-linejoin="miter" stroke-linecap="butt" stroke-miterlimit="4"/></g></g></g></g></g></g></g></g></g></g><path d=" M -400 -300 L 400 -300 L 400 300 L -400 300 L -400 -300 L -400 -300 L -400 -300 L -400 -300 Z  M 14.073 5.745 L 29.867 5.745 L 14.073 5.745 L 14.073 5.745 L 14.073 5.745 L 14.073 5.745 Z " fill-rule="evenodd" fill="none" vector-effect="non-scaling-stroke" stroke-width="3" stroke="rgb(116,116,116)" stroke-opacity="100" stroke-linejoin="miter" stroke-linecap="square" stroke-miterlimit="3"/><path d=" M -400 -300 L 400 -300 L 400 300 L -400 300 L -400 -300 L -400 -300 L -400 -300 L -400 -300 Z  M 1.351 10.487 L 200 10.487 L 1.351 10.487 L 1.351 10.487 L 1.351 10.487 L 1.351 10.487 Z " fill-rule="evenodd" fill="none" vector-effect="non-scaling-stroke" stroke-width="3" stroke="rgb(116,116,116)" stroke-opacity="100" stroke-linejoin="miter" stroke-linecap="square" stroke-miterlimit="3"/><clipPath id="_clipPath_PfLylpysXeLiTKRNOLACxbOd22TwmN7r"><path d=" M -400 -300 L 400 -300 L 400 300 L -400 300 L -400 -300 L -400 -300 L -400 -300 L -400 -300 Z  M 1.351 10.487 L 200 10.487 L 1.351 10.487 L 1.351 10.487 L 1.351 10.487 L 1.351 10.487 Z " fill-rule="evenodd" fill="rgb(255,255,255)"/></clipPath><g clip-path="url(#_clipPath_PfLylpysXeLiTKRNOLACxbOd22TwmN7r)"><g><g><g><clipPath id="_clipPath_ONreJhtQU1CbmryKIvLgPOeqetLUAaX8"><path d=" M -400 -300 L 400 -300 L 400 300 L -400 300 L -400 -300 L -400 -300 L -400 -300 Z  M 1.351 10.487 L 200 10.487 L 1.351 10.487 L 1.351 10.487 L 1.351 10.487 Z " fill-rule="evenodd" fill="rgb(255,255,255)"/></clipPath><g clip-path="url(#_clipPath_ONreJhtQU1CbmryKIvLgPOeqetLUAaX8)"><g><g><clipPath id="_clipPath_v0IFyUIMyQI7SJCB46Vq9r5wY5yzYvUn"><path d=" M -400 -300 L 400 -300 L 400 300 L -400 300 L -400 -300 L -400 -300 Z  M 1.351 10.487 L 200 10.487 L 1.351 10.487 L 1.351 10.487 Z " fill-rule="evenodd" fill="rgb(255,255,255)"/></clipPath><g clip-path="url(#_clipPath_v0IFyUIMyQI7SJCB46Vq9r5wY5yzYvUn)"><g><clipPath id="_clipPath_Pvj7oFUqRO26f0imfWOhSQvSXT1ijIB6"><path d=" M -400 -300 L 400 -300 L 400 300 L -400 300 L -400 -300 Z  M 1.351 10.487 L 200 10.487 L 1.351 10.487 Z " fill-rule="evenodd" fill="rgb(255,255,255)"/></clipPath><g clip-path="url(#_clipPath_Pvj7oFUqRO26f0imfWOhSQvSXT1ijIB6)"><mask id="_mask_hGoIAhnOtxtY4Qanmx9aHcy2LnxliKNd" x="-200%" y="-200%" width="400%" height="400%"><rect x="-200%" y="-200%" width="400%" height="400%" style="fill:white;"/><line x1="1.351" y1="10.487" x2="200" y2="10.487" fill="black" stroke="none"/></mask><line x1="1.351" y1="10.487" x2="200" y2="10.487" mask="url(#_mask_hGoIAhnOtxtY4Qanmx9aHcy2LnxliKNd)" vector-effect="non-scaling-stroke" stroke-width="4" stroke="rgb(116,116,116)" stroke-opacity="100000000" stroke-linejoin="miter" stroke-linecap="butt" stroke-miterlimit="4"/></g></g></g></g></g></g></g></g></g></g><path d=" M -400 -300 L 400 -300 L 400 300 L -400 300 L -400 -300 L -400 -300 L -400 -300 L -400 -300 Z  M 1.351 10.487 L 200 10.487 L 1.351 10.487 L 1.351 10.487 L 1.351 10.487 L 1.351 10.487 Z " fill-rule="evenodd" fill="none" vector-effect="non-scaling-stroke" stroke-width="3" stroke="rgb(116,116,116)" stroke-opacity="100" stroke-linejoin="miter" stroke-linecap="square" stroke-miterlimit="3"/><rect x="3.709" y="3.885" width="6.031" height="4.063" transform="matrix(1,0,0,1,0,0)" fill="rgb(255,255,255)"/><g><rect x="56.938" y="3.052" width="5.132" height="5.215" transform="matrix(0,-1,1,0,53.844,65.164)" fill="rgb(116,116,116)"/><rect x="49.07" y="3.053" width="5.132" height="5.215" transform="matrix(0,-1,1,0,45.976,57.297)" fill="rgb(116,116,116)"/><rect x="41.204" y="3.052" width="5.132" height="5.215" transform="matrix(0,-1,1,0,38.111,49.43)" fill="rgb(116,116,116)"/><rect x="33.338" y="3.052" width="5.132" height="5.215" transform="matrix(0,-1,1,0,30.244,41.564)" fill="rgb(116,116,116)"/><rect x="80.538" y="3.052" width="5.132" height="5.215" transform="matrix(0,-1,1,0,77.444,88.764)" fill="rgb(116,116,116)"/><rect x="72.67" y="3.052" width="5.132" height="5.215" transform="matrix(0,-1,1,0,69.577,80.896)" fill="rgb(116,116,116)"/><rect x="64.804" y="3.052" width="5.132" height="5.215" transform="matrix(0,-1,1,0,61.71,73.03)" fill="rgb(116,116,116)"/></g><g><rect x="175.052" y="4.427" width="2.535" height="2.576" transform="matrix(0,-1,1,0,170.605,182.035)" fill="rgb(116,116,116)"/><rect x="190.597" y="4.427" width="2.535" height="2.576" transform="matrix(0,-1,1,0,186.149,197.58)" fill="rgb(116,116,116)"/><rect x="186.711" y="4.426" width="2.535" height="2.576" transform="matrix(0,-1,1,0,182.264,193.693)" fill="rgb(116,116,116)"/><rect x="182.824" y="4.426" width="2.535" height="2.576" transform="matrix(0,-1,1,0,178.378,189.806)" fill="rgb(116,116,116)" fill-opacity="0.7490196078431373"/><rect x="178.939" y="4.427" width="2.535" height="2.576" transform="matrix(0,-1,1,0,174.491,185.922)" fill="rgb(116,116,116)"/><rect x="171.168" y="4.43" width="2.535" height="2.576" transform="matrix(0,-1,1,0,166.717,178.153)" fill="rgb(116,116,116)"/><rect x="167.281" y="4.427" width="2.535" height="2.576" transform="matrix(0,-1,1,0,162.833,174.264)" fill="rgb(116,116,116)"/></g><path d=" M -400 -300 L 400 -300 L 400 300 L -400 300 L -400 -300 L -400 -300 L -400 -300 L -400 -300 Z  M 3.903 145.258 L 19.698 145.258 L 3.903 145.258 L 3.903 145.258 L 3.903 145.258 L 3.903 145.258 Z " fill-rule="evenodd" fill="none" vector-effect="non-scaling-stroke" stroke-width="3" stroke="rgb(116,116,116)" stroke-opacity="100" stroke-linejoin="miter" stroke-linecap="square" stroke-miterlimit="3"/><clipPath id="_clipPath_PKHIYs4l7T3sQFOINSEJiB5ilfzsFRq1"><path d=" M -400 -300 L 400 -300 L 400 300 L -400 300 L -400 -300 L -400 -300 L -400 -300 L -400 -300 Z  M 3.903 145.258 L 19.698 145.258 L 3.903 145.258 L 3.903 145.258 L 3.903 145.258 L 3.903 145.258 Z " fill-rule="evenodd" fill="rgb(255,255,255)"/></clipPath><g clip-path="url(#_clipPath_PKHIYs4l7T3sQFOINSEJiB5ilfzsFRq1)"><g><g><g><clipPath id="_clipPath_qE1qaViejmPi8gBCLA1Pr1Xcu9e3oeST"><path d=" M -400 -300 L 400 -300 L 400 300 L -400 300 L -400 -300 L -400 -300 L -400 -300 Z  M 3.903 145.258 L 19.698 145.258 L 3.903 145.258 L 3.903 145.258 L 3.903 145.258 Z " fill-rule="evenodd" fill="rgb(255,255,255)"/></clipPath><g clip-path="url(#_clipPath_qE1qaViejmPi8gBCLA1Pr1Xcu9e3oeST)"><g><g><clipPath id="_clipPath_ggKqGfTNAITX7TIkOrQ9hbDAJg1uUvmq"><path d=" M -400 -300 L 400 -300 L 400 300 L -400 300 L -400 -300 L -400 -300 Z  M 3.903 145.258 L 19.698 145.258 L 3.903 145.258 L 3.903 145.258 Z " fill-rule="evenodd" fill="rgb(255,255,255)"/></clipPath><g clip-path="url(#_clipPath_ggKqGfTNAITX7TIkOrQ9hbDAJg1uUvmq)"><g><clipPath id="_clipPath_YgRsSznLGLhZBqY0Sem02NO6PCEwL4mH"><path d=" M -400 -300 L 400 -300 L 400 300 L -400 300 L -400 -300 Z  M 3.903 145.258 L 19.698 145.258 L 3.903 145.258 Z " fill-rule="evenodd" fill="rgb(255,255,255)"/></clipPath><g clip-path="url(#_clipPath_YgRsSznLGLhZBqY0Sem02NO6PCEwL4mH)"><mask id="_mask_3am2HQYN8N3On1OvFIG0O6Sm3teRqSu7" x="-200%" y="-200%" width="400%" height="400%"><rect x="-200%" y="-200%" width="400%" height="400%" style="fill:white;"/><line x1="3.903" y1="145.258" x2="19.698" y2="145.258" fill="black" stroke="none"/></mask><line x1="3.903" y1="145.258" x2="19.698" y2="145.258" mask="url(#_mask_3am2HQYN8N3On1OvFIG0O6Sm3teRqSu7)" vector-effect="non-scaling-stroke" stroke-width="4" stroke="rgb(116,116,116)" stroke-opacity="100000000" stroke-linejoin="miter" stroke-linecap="butt" stroke-miterlimit="4"/></g></g></g></g></g></g></g></g></g></g><path d=" M -400 -300 L 400 -300 L 400 300 L -400 300 L -400 -300 L -400 -300 L -400 -300 L -400 -300 Z  M 3.903 145.258 L 19.698 145.258 L 3.903 145.258 L 3.903 145.258 L 3.903 145.258 L 3.903 145.258 Z " fill-rule="evenodd" fill="none" vector-effect="non-scaling-stroke" stroke-width="3" stroke="rgb(116,116,116)" stroke-opacity="100" stroke-linejoin="miter" stroke-linecap="square" stroke-miterlimit="3"/><path d=" M -400 -300 L 400 -300 L 400 300 L -400 300 L -400 -300 L -400 -300 L -400 -300 L -400 -300 Z  M 1.351 141.737 L 200 141.737 L 1.351 141.737 L 1.351 141.737 L 1.351 141.737 L 1.351 141.737 Z " fill-rule="evenodd" fill="none" vector-effect="non-scaling-stroke" stroke-width="3" stroke="rgb(116,116,116)" stroke-opacity="100" stroke-linejoin="miter" stroke-linecap="square" stroke-miterlimit="3"/><clipPath id="_clipPath_0k0YsfaPh9LPvQHEbVIAJgO7KX2x68XE"><path d=" M -400 -300 L 400 -300 L 400 300 L -400 300 L -400 -300 L -400 -300 L -400 -300 L -400 -300 Z  M 1.351 141.737 L 200 141.737 L 1.351 141.737 L 1.351 141.737 L 1.351 141.737 L 1.351 141.737 Z " fill-rule="evenodd" fill="rgb(255,255,255)"/></clipPath><g clip-path="url(#_clipPath_0k0YsfaPh9LPvQHEbVIAJgO7KX2x68XE)"><g><g><g><clipPath id="_clipPath_Cx03VX96PF5rzzQ13tGrtOwSiuhZPcsw"><path d=" M -400 -300 L 400 -300 L 400 300 L -400 300 L -400 -300 L -400 -300 L -400 -300 Z  M 1.351 141.737 L 65.333 141.737 L 200 141.737 L 1.351 141.737 L 1.351 141.737 L 1.351 141.737 Z " fill-rule="evenodd" fill="rgb(255,255,255)"/></clipPath><g clip-path="url(#_clipPath_Cx03VX96PF5rzzQ13tGrtOwSiuhZPcsw)"><g><g><clipPath id="_clipPath_snQ48CQLnwL167vEouqzSfkgUIEgXHCG"><path d=" M -400 -300 L 400 -300 L 400 300 L -400 300 L -400 -300 L -400 -300 Z  M 1.351 141.737 L 65.333 141.737 L 200 141.737 L 1.351 141.737 L 1.351 141.737 Z " fill-rule="evenodd" fill="rgb(255,255,255)"/></clipPath><g clip-path="url(#_clipPath_snQ48CQLnwL167vEouqzSfkgUIEgXHCG)"><g><clipPath id="_clipPath_WBZppdi54ZfVzLZOgTQmX2pfzXtjuDmE"><path d=" M -400 -300 L 400 -300 L 400 300 L -400 300 L -400 -300 Z  M 1.351 141.737 L 65.333 141.737 L 200 141.737 L 1.351 141.737 Z " fill-rule="evenodd" fill="rgb(255,255,255)"/></clipPath><g clip-path="url(#_clipPath_WBZppdi54ZfVzLZOgTQmX2pfzXtjuDmE)"><mask id="_mask_FY3p7VqDIkHy1JqMDyAz7HEXFTPziiTM" x="-200%" y="-200%" width="400%" height="400%"><rect x="-200%" y="-200%" width="400%" height="400%" style="fill:white;"/><path d=" M 1.351 141.737 L 65.333 141.737 L 200 141.737" fill="black" stroke="none"/></mask><path d=" M 1.351 141.737 L 65.333 141.737 L 200 141.737" fill="rgb(116,116,116)" mask="url(#_mask_FY3p7VqDIkHy1JqMDyAz7HEXFTPziiTM)" vector-effect="non-scaling-stroke" stroke-width="4" stroke="rgb(116,116,116)" stroke-opacity="100000000" stroke-linejoin="miter" stroke-linecap="butt" stroke-miterlimit="4"/><path d=" M 1.351 141.737 L 65.333 141.737 L 200 141.737" fill="rgb(116,116,116)"/></g><path d=" M 1.351 141.737 L 65.333 141.737 L 200 141.737" fill="rgb(116,116,116)"/></g></g><path d=" M 1.351 141.737 L 65.333 141.737 L 200 141.737" fill="rgb(116,116,116)"/></g></g></g><path d=" M 1.351 141.737 L 65.333 141.737 L 200 141.737" fill="rgb(116,116,116)"/></g></g></g></g><path d=" M -400 -300 L 400 -300 L 400 300 L -400 300 L -400 -300 L -400 -300 L -400 -300 L -400 -300 Z  M 1.351 141.737 L 200 141.737 L 1.351 141.737 L 1.351 141.737 L 1.351 141.737 L 1.351 141.737 Z " fill-rule="evenodd" fill="none" vector-effect="non-scaling-stroke" stroke-width="3" stroke="rgb(116,116,116)" stroke-opacity="100" stroke-linejoin="miter" stroke-linecap="square" stroke-miterlimit="3"/><path d=" M -400 -300 L 400 -300 L 400 300 L -400 300 L -400 -300 L -400 -300 L -400 -300 L -400 -300 Z  M 53.4 145.258 L 69.194 145.258 L 53.4 145.258 L 53.4 145.258 L 53.4 145.258 L 53.4 145.258 Z " fill-rule="evenodd" fill="none" vector-effect="non-scaling-stroke" stroke-width="3" stroke="rgb(116,116,116)" stroke-opacity="100" stroke-linejoin="miter" stroke-linecap="square" stroke-miterlimit="3"/><clipPath id="_clipPath_XoXK0OXECbkLMNt1YFSZYimIDcun3EDO"><path d=" M -400 -300 L 400 -300 L 400 300 L -400 300 L -400 -300 L -400 -300 L -400 -300 L -400 -300 Z  M 53.4 145.258 L 69.194 145.258 L 53.4 145.258 L 53.4 145.258 L 53.4 145.258 L 53.4 145.258 Z " fill-rule="evenodd" fill="rgb(255,255,255)"/></clipPath><g clip-path="url(#_clipPath_XoXK0OXECbkLMNt1YFSZYimIDcun3EDO)"><g><g><g><clipPath id="_clipPath_zG1VwBK6FdjZpuHeCf8i1hko9gMKTN4G"><path d=" M -400 -300 L 400 -300 L 400 300 L -400 300 L -400 -300 L -400 -300 L -400 -300 Z  M 53.4 145.258 L 69.194 145.258 L 53.4 145.258 L 53.4 145.258 L 53.4 145.258 Z " fill-rule="evenodd" fill="rgb(255,255,255)"/></clipPath><g clip-path="url(#_clipPath_zG1VwBK6FdjZpuHeCf8i1hko9gMKTN4G)"><g><g><clipPath id="_clipPath_CwiS2MpNjXcrEcO1bu5aRawAuYLLexH5"><path d=" M -400 -300 L 400 -300 L 400 300 L -400 300 L -400 -300 L -400 -300 Z  M 53.4 145.258 L 69.194 145.258 L 53.4 145.258 L 53.4 145.258 Z " fill-rule="evenodd" fill="rgb(255,255,255)"/></clipPath><g clip-path="url(#_clipPath_CwiS2MpNjXcrEcO1bu5aRawAuYLLexH5)"><g><clipPath id="_clipPath_PJgn1Qa4odTn9dSH32Kdd9NsLNq4OJyf"><path d=" M -400 -300 L 400 -300 L 400 300 L -400 300 L -400 -300 Z  M 53.4 145.258 L 69.194 145.258 L 53.4 145.258 Z " fill-rule="evenodd" fill="rgb(255,255,255)"/></clipPath><g clip-path="url(#_clipPath_PJgn1Qa4odTn9dSH32Kdd9NsLNq4OJyf)"><mask id="_mask_gfL90wEcXxjAJZDXmRoS67USFEfOIf7t" x="-200%" y="-200%" width="400%" height="400%"><rect x="-200%" y="-200%" width="400%" height="400%" style="fill:white;"/><line x1="53.4" y1="145.258" x2="69.194" y2="145.258" fill="black" stroke="none"/></mask><line x1="53.4" y1="145.258" x2="69.194" y2="145.258" mask="url(#_mask_gfL90wEcXxjAJZDXmRoS67USFEfOIf7t)" vector-effect="non-scaling-stroke" stroke-width="4" stroke="rgb(116,116,116)" stroke-opacity="100000000" stroke-linejoin="miter" stroke-linecap="butt" stroke-miterlimit="4"/></g></g></g></g></g></g></g></g></g></g><path d=" M -400 -300 L 400 -300 L 400 300 L -400 300 L -400 -300 L -400 -300 L -400 -300 L -400 -300 Z  M 53.4 145.258 L 69.194 145.258 L 53.4 145.258 L 53.4 145.258 L 53.4 145.258 L 53.4 145.258 Z " fill-rule="evenodd" fill="none" vector-effect="non-scaling-stroke" stroke-width="3" stroke="rgb(116,116,116)" stroke-opacity="100" stroke-linejoin="miter" stroke-linecap="square" stroke-miterlimit="3"/><path d=" M -400 -300 L 400 -300 L 400 300 L -400 300 L -400 -300 L -400 -300 L -400 -300 L -400 -300 Z  M 102.897 145.258 L 118.691 145.258 L 102.897 145.258 L 102.897 145.258 L 102.897 145.258 L 102.897 145.258 Z " fill-rule="evenodd" fill="none" vector-effect="non-scaling-stroke" stroke-width="3" stroke="rgb(116,116,116)" stroke-opacity="100" stroke-linejoin="miter" stroke-linecap="square" stroke-miterlimit="3"/><clipPath id="_clipPath_T2SAldb35slSkm3XXpZG3dwLTbgmDwZq"><path d=" M -400 -300 L 400 -300 L 400 300 L -400 300 L -400 -300 L -400 -300 L -400 -300 L -400 -300 Z  M 102.897 145.258 L 118.691 145.258 L 102.897 145.258 L 102.897 145.258 L 102.897 145.258 L 102.897 145.258 Z " fill-rule="evenodd" fill="rgb(255,255,255)"/></clipPath><g clip-path="url(#_clipPath_T2SAldb35slSkm3XXpZG3dwLTbgmDwZq)"><g><g><g><clipPath id="_clipPath_DEWLG4xp2cNKzqKUAQlp4sTvSG8Witfi"><path d=" M -400 -300 L 400 -300 L 400 300 L -400 300 L -400 -300 L -400 -300 L -400 -300 Z  M 102.897 145.258 L 118.691 145.258 L 102.897 145.258 L 102.897 145.258 L 102.897 145.258 Z " fill-rule="evenodd" fill="rgb(255,255,255)"/></clipPath><g clip-path="url(#_clipPath_DEWLG4xp2cNKzqKUAQlp4sTvSG8Witfi)"><g><g><clipPath id="_clipPath_TYoimx1XvuAvFe0Orvoab1heC32x2EqB"><path d=" M -400 -300 L 400 -300 L 400 300 L -400 300 L -400 -300 L -400 -300 Z  M 102.897 145.258 L 118.691 145.258 L 102.897 145.258 L 102.897 145.258 Z " fill-rule="evenodd" fill="rgb(255,255,255)"/></clipPath><g clip-path="url(#_clipPath_TYoimx1XvuAvFe0Orvoab1heC32x2EqB)"><g><clipPath id="_clipPath_68lG6pvvSzkXNSQ36QHsNlfYmNR9ezjo"><path d=" M -400 -300 L 400 -300 L 400 300 L -400 300 L -400 -300 Z  M 102.897 145.258 L 118.691 145.258 L 102.897 145.258 Z " fill-rule="evenodd" fill="rgb(255,255,255)"/></clipPath><g clip-path="url(#_clipPath_68lG6pvvSzkXNSQ36QHsNlfYmNR9ezjo)"><mask id="_mask_K2loiX1GgopQfGf2vE8KzK0ezvy84lGP" x="-200%" y="-200%" width="400%" height="400%"><rect x="-200%" y="-200%" width="400%" height="400%" style="fill:white;"/><line x1="102.897" y1="145.258" x2="118.691" y2="145.258" fill="black" stroke="none"/></mask><line x1="102.897" y1="145.258" x2="118.691" y2="145.258" mask="url(#_mask_K2loiX1GgopQfGf2vE8KzK0ezvy84lGP)" vector-effect="non-scaling-stroke" stroke-width="4" stroke="rgb(116,116,116)" stroke-opacity="100000000" stroke-linejoin="miter" stroke-linecap="butt" stroke-miterlimit="4"/></g></g></g></g></g></g></g></g></g></g><path d=" M -400 -300 L 400 -300 L 400 300 L -400 300 L -400 -300 L -400 -300 L -400 -300 L -400 -300 Z  M 102.897 145.258 L 118.691 145.258 L 102.897 145.258 L 102.897 145.258 L 102.897 145.258 L 102.897 145.258 Z " fill-rule="evenodd" fill="none" vector-effect="non-scaling-stroke" stroke-width="3" stroke="rgb(116,116,116)" stroke-opacity="100" stroke-linejoin="miter" stroke-linecap="square" stroke-miterlimit="3"/></g></g></g></g></g></g></g></g></g><rect x="0" y="0" width="200" height="150" transform="matrix(1,0,0,1,0,0)" fill="none" vector-effect="non-scaling-stroke" stroke-width="3" stroke="rgb(0,0,0)" stroke-opacity="100" stroke-linejoin="miter" stroke-linecap="square" stroke-miterlimit="2"/></g></g></g><rect x="0" y="0" width="200" height="150" transform="matrix(1,0,0,1,0,0)" fill="none" vector-effect="non-scaling-stroke" stroke-width="3" stroke="rgb(116,116,116)" stroke-linejoin="miter" stroke-linecap="square" stroke-miterlimit="2"/></g></g></g></svg>