<?xml version="1.0" encoding="UTF-8" standalone="no"?><!-- Generator: Gravit.io --><svg xmlns="http://www.w3.org/2000/svg" xmlns:xlink="http://www.w3.org/1999/xlink" style="isolation:isolate" viewBox="0 0 200 150" width="200pt" height="150pt"><defs><clipPath id="_clipPath_XXEwOvrEy67l0ogAqvRB4ogUlBHoY8ry"><rect width="200" height="150"/></clipPath></defs><g clip-path="url(#_clipPath_XXEwOvrEy67l0ogAqvRB4ogUlBHoY8ry)"><clipPath id="_clipPath_I7iAX8q0p09psLcofVAgzyUodgqUYFRf"><rect x="0" y="0" width="200" height="150" transform="matrix(1,0,0,1,0,0)" fill="rgb(255,255,255)"/></clipPath><g clip-path="url(#_clipPath_I7iAX8q0p09psLcofVAgzyUodgqUYFRf)"><g><path d=" M -400 -300 L 400 -300 L 400 300 L -400 300 L -400 -300 Z  M 0 1.116 L 200 1.116 L 0 1.116 Z " fill-rule="evenodd" fill="none" vector-effect="non-scaling-stroke" stroke-width="3" stroke="rgb(116,116,116)" stroke-linejoin="miter" stroke-linecap="square" stroke-miterlimit="3"/><clipPath id="_clipPath_u7xrYPB58vhxMMUQOf2sumMopVAkhxUT"><path d=" M -400 -300 L 400 -300 L 400 300 L -400 300 L -400 -300 Z  M 0 1.116 L 200 1.116 L 0 1.116 Z " fill-rule="evenodd" fill="none" vector-effect="non-scaling-stroke" stroke-width="3" stroke="rgb(116,116,116)" stroke-linejoin="miter" stroke-linecap="square" stroke-miterlimit="3"/></clipPath><g clip-path="url(#_clipPath_u7xrYPB58vhxMMUQOf2sumMopVAkhxUT)"><mask id="_mask_SD9HClxPhOZaTXvnRBxPqud53AdhDeLP" x="-200%" y="-200%" width="400%" height="400%"><rect x="-200%" y="-200%" width="400%" height="400%" style="fill:white;"/><line x1="0" y1="1.116" x2="200" y2="1.116" fill="black" stroke="none"/></mask><line x1="0" y1="1.116" x2="200" y2="1.116" mask="url(#_mask_SD9HClxPhOZaTXvnRBxPqud53AdhDeLP)" vector-effect="non-scaling-stroke" stroke-width="4" stroke="rgb(116,116,116)" stroke-opacity="100" stroke-linejoin="miter" stroke-linecap="butt" stroke-miterlimit="4"/></g><path d=" M -400 -300 L 400 -300 L 400 300 L -400 300 L -400 -300 Z  M 0 1.116 L 200 1.116 L 0 1.116 Z " fill-rule="evenodd" fill="transparent" vector-effect="non-scaling-stroke" stroke-width="3" stroke="rgb(116,116,116)" stroke-linejoin="miter" stroke-linecap="square" stroke-miterlimit="3"/><path d=" M -400 -300 L 400 -300 L 400 300 L -400 300 L -400 -300 Z  M 0 149 L 200 149 L 0 149 Z " fill-rule="evenodd" fill="none" vector-effect="non-scaling-stroke" stroke-width="3" stroke="rgb(116,116,116)" stroke-linejoin="miter" stroke-linecap="square" stroke-miterlimit="3"/><clipPath id="_clipPath_Nl1IwcQufohBXclCcu18VLdM5L2VXWnI"><path d=" M -400 -300 L 400 -300 L 400 300 L -400 300 L -400 -300 Z  M 0 149 L 200 149 L 0 149 Z " fill-rule="evenodd" fill="none" vector-effect="non-scaling-stroke" stroke-width="3" stroke="rgb(116,116,116)" stroke-linejoin="miter" stroke-linecap="square" stroke-miterlimit="3"/></clipPath><g clip-path="url(#_clipPath_Nl1IwcQufohBXclCcu18VLdM5L2VXWnI)"><mask id="_mask_E90PsXEQVKWLQmbOWhLocS60A2PJEBZE" x="-200%" y="-200%" width="400%" height="400%"><rect x="-200%" y="-200%" width="400%" height="400%" style="fill:white;"/><line x1="0" y1="149" x2="200" y2="149" fill="black" stroke="none"/></mask><line x1="0" y1="149" x2="200" y2="149" mask="url(#_mask_E90PsXEQVKWLQmbOWhLocS60A2PJEBZE)" vector-effect="non-scaling-stroke" stroke-width="4" stroke="rgb(116,116,116)" stroke-opacity="100" stroke-linejoin="miter" stroke-linecap="butt" stroke-miterlimit="4"/></g><path d=" M -400 -300 L 400 -300 L 400 300 L -400 300 L -400 -300 Z  M 0 149 L 200 149 L 0 149 Z " fill-rule="evenodd" fill="transparent" vector-effect="non-scaling-stroke" stroke-width="3" stroke="rgb(116,116,116)" stroke-linejoin="miter" stroke-linecap="square" stroke-miterlimit="3"/><path d=" M -400 -300 L 400 -300 L 400 300 L -400 300 L -400 -300 Z  M 0.866 0 L 0.866 150 L 0.866 0 Z " fill-rule="evenodd" fill="none" vector-effect="non-scaling-stroke" stroke-width="3" stroke="rgb(116,116,116)" stroke-linejoin="miter" stroke-linecap="square" stroke-miterlimit="3"/><clipPath id="_clipPath_JkpOQVzRDonCzkRGZCeFo0ClIKIr7lN9"><path d=" M -400 -300 L 400 -300 L 400 300 L -400 300 L -400 -300 Z  M 0.866 0 L 0.866 150 L 0.866 0 Z " fill-rule="evenodd" fill="none" vector-effect="non-scaling-stroke" stroke-width="3" stroke="rgb(116,116,116)" stroke-linejoin="miter" stroke-linecap="square" stroke-miterlimit="3"/></clipPath><g clip-path="url(#_clipPath_JkpOQVzRDonCzkRGZCeFo0ClIKIr7lN9)"><mask id="_mask_7qux5sgjNivacUyF2zv7xEdGqRTEaJux" x="-200%" y="-200%" width="400%" height="400%"><rect x="-200%" y="-200%" width="400%" height="400%" style="fill:white;"/><line x1="0.866" y1="0" x2="0.866" y2="150" fill="black" stroke="none"/></mask><line x1="0.866" y1="0" x2="0.866" y2="150" mask="url(#_mask_7qux5sgjNivacUyF2zv7xEdGqRTEaJux)" vector-effect="non-scaling-stroke" stroke-width="3.464" stroke="rgb(116,116,116)" stroke-opacity="100" stroke-linejoin="miter" stroke-linecap="butt" stroke-miterlimit="4"/></g><path d=" M -400 -300 L 400 -300 L 400 300 L -400 300 L -400 -300 Z  M 0.866 0 L 0.866 150 L 0.866 0 Z " fill-rule="evenodd" fill="transparent" vector-effect="non-scaling-stroke" stroke-width="3" stroke="rgb(116,116,116)" stroke-linejoin="miter" stroke-linecap="square" stroke-miterlimit="3"/><path d=" M -400 -300 L 400 -300 L 400 300 L -400 300 L -400 -300 Z  M 199.134 0 L 199.134 150 L 199.134 0 Z " fill-rule="evenodd" fill="none" vector-effect="non-scaling-stroke" stroke-width="3" stroke="rgb(116,116,116)" stroke-linejoin="miter" stroke-linecap="square" stroke-miterlimit="3"/><clipPath id="_clipPath_TTi1SEBRhIOSvEYDMrwZSmBpwaSv27jM"><path d=" M -400 -300 L 400 -300 L 400 300 L -400 300 L -400 -300 Z  M 199.134 0 L 199.134 150 L 199.134 0 Z " fill-rule="evenodd" fill="none" vector-effect="non-scaling-stroke" stroke-width="3" stroke="rgb(116,116,116)" stroke-linejoin="miter" stroke-linecap="square" stroke-miterlimit="3"/></clipPath><g clip-path="url(#_clipPath_TTi1SEBRhIOSvEYDMrwZSmBpwaSv27jM)"><mask id="_mask_bJh4D0kPQAZUBjBRHX5xUFGUvhObknDv" x="-200%" y="-200%" width="400%" height="400%"><rect x="-200%" y="-200%" width="400%" height="400%" style="fill:white;"/><line x1="199.134" y1="0" x2="199.134" y2="150" fill="black" stroke="none"/></mask><line x1="199.134" y1="0" x2="199.134" y2="150" mask="url(#_mask_bJh4D0kPQAZUBjBRHX5xUFGUvhObknDv)" vector-effect="non-scaling-stroke" stroke-width="3.464" stroke="rgb(116,116,116)" stroke-opacity="100" stroke-linejoin="miter" stroke-linecap="butt" stroke-miterlimit="4"/></g><path d=" M -400 -300 L 400 -300 L 400 300 L -400 300 L -400 -300 Z  M 199.134 0 L 199.134 150 L 199.134 0 Z " fill-rule="evenodd" fill="transparent" vector-effect="non-scaling-stroke" stroke-width="3" stroke="rgb(116,116,116)" stroke-linejoin="miter" stroke-linecap="square" stroke-miterlimit="3"/><path d=" M -400 -300 L 400 -300 L 400 300 L -400 300 L -400 -300 Z  M 165.556 141.959 L 195.845 141.959 L 165.556 141.959 Z " fill-rule="evenodd" fill="none" vector-effect="non-scaling-stroke" stroke-width="3" stroke="rgb(116,116,116)" stroke-linejoin="miter" stroke-linecap="square" stroke-miterlimit="3"/><clipPath id="_clipPath_7XgZy0rCwQNPc1iCvsoJRKI370ZZj9oF"><path d=" M -400 -300 L 400 -300 L 400 300 L -400 300 L -400 -300 Z  M 165.556 141.959 L 195.845 141.959 L 165.556 141.959 Z " fill-rule="evenodd" fill="none" vector-effect="non-scaling-stroke" stroke-width="3" stroke="rgb(116,116,116)" stroke-linejoin="miter" stroke-linecap="square" stroke-miterlimit="3"/></clipPath><g clip-path="url(#_clipPath_7XgZy0rCwQNPc1iCvsoJRKI370ZZj9oF)"><mask id="_mask_6Xo8vj0UycN3Bj1o0sy6UsudUFEvtExr" x="-200%" y="-200%" width="400%" height="400%"><rect x="-200%" y="-200%" width="400%" height="400%" style="fill:white;"/><line x1="165.556" y1="141.959" x2="195.845" y2="141.959" fill="black" stroke="none"/></mask><line x1="165.556" y1="141.959" x2="195.845" y2="141.959" mask="url(#_mask_6Xo8vj0UycN3Bj1o0sy6UsudUFEvtExr)" vector-effect="non-scaling-stroke" stroke-width="4" stroke="rgb(116,116,116)" stroke-opacity="100" stroke-linejoin="miter" stroke-linecap="butt" stroke-miterlimit="4"/></g><path d=" M -400 -300 L 400 -300 L 400 300 L -400 300 L -400 -300 Z  M 165.556 141.959 L 195.845 141.959 L 165.556 141.959 Z " fill-rule="evenodd" fill="transparent" vector-effect="non-scaling-stroke" stroke-width="3" stroke="rgb(116,116,116)" stroke-linejoin="miter" stroke-linecap="square" stroke-miterlimit="3"/><rect x="0" y="134.096" width="15.647" height="15.9" transform="matrix(1,0,0,1,0,0)" fill="rgb(116,116,116)" vector-effect="non-scaling-stroke" stroke-width="1" stroke="rgb(116,116,116)" stroke-linejoin="miter" stroke-linecap="butt" stroke-miterlimit="2"/><g><rect x="33.888" y="140.022" width="4.187" height="4.254" transform="matrix(1,0,0,1,0,0)" fill="rgb(116,116,116)"/><rect x="25.888" y="140.022" width="4.187" height="4.254" transform="matrix(1,0,0,1,0,0)" fill="rgb(116,116,116)"/><rect x="5.888" y="140.022" width="4.187" height="4.254" transform="matrix(1,0,0,1,0,0)" fill="rgb(255,255,255)"/><rect x="17.888" y="140.022" width="4.187" height="4.254" transform="matrix(1,0,0,1,0,0)" fill="rgb(116,116,116)"/></g><path d=" M -400 -300 L 400 -300 L 400 300 L -400 300 L -400 -300 Z  M 0 135 L 200 135 L 0 135 Z " fill-rule="evenodd" fill="none" vector-effect="non-scaling-stroke" stroke-width="3" stroke="rgb(116,116,116)" stroke-linejoin="miter" stroke-linecap="square" stroke-miterlimit="3"/><clipPath id="_clipPath_15JprBYsxfb6zT7BPwrBD7MBol1C4wYt"><path d=" M -400 -300 L 400 -300 L 400 300 L -400 300 L -400 -300 Z  M 0 135 L 200 135 L 0 135 Z " fill-rule="evenodd" fill="none" vector-effect="non-scaling-stroke" stroke-width="3" stroke="rgb(116,116,116)" stroke-linejoin="miter" stroke-linecap="square" stroke-miterlimit="3"/></clipPath><g clip-path="url(#_clipPath_15JprBYsxfb6zT7BPwrBD7MBol1C4wYt)"><mask id="_mask_9cjcgI25ytqcigpyEySEQAzFRKysUgpY" x="-200%" y="-200%" width="400%" height="400%"><rect x="-200%" y="-200%" width="400%" height="400%" style="fill:white;"/><line x1="0" y1="135" x2="200" y2="135" fill="black" stroke="none"/></mask><line x1="0" y1="135" x2="200" y2="135" mask="url(#_mask_9cjcgI25ytqcigpyEySEQAzFRKysUgpY)" vector-effect="non-scaling-stroke" stroke-width="4" stroke="rgb(116,116,116)" stroke-opacity="100" stroke-linejoin="miter" stroke-linecap="butt" stroke-miterlimit="4"/></g><path d=" M -400 -300 L 400 -300 L 400 300 L -400 300 L -400 -300 Z  M 0 135 L 200 135 L 0 135 Z " fill-rule="evenodd" fill="transparent" vector-effect="non-scaling-stroke" stroke-width="3" stroke="rgb(116,116,116)" stroke-linejoin="miter" stroke-linecap="square" stroke-miterlimit="3"/><path d=" M -400 -300 L 400 -300 L 400 300 L -400 300 L -400 -300 Z  M 13.269 66.21 L 28.302 66.21 L 13.269 66.21 Z " fill-rule="evenodd" fill="none" vector-effect="non-scaling-stroke" stroke-width="3" stroke="rgb(116,116,116)" stroke-linejoin="miter" stroke-linecap="square" stroke-miterlimit="3"/><clipPath id="_clipPath_bBfpvvy80hDLArFTV4mcsrczdPEYPdXH"><path d=" M -400 -300 L 400 -300 L 400 300 L -400 300 L -400 -300 Z  M 13.269 66.21 L 28.302 66.21 L 13.269 66.21 Z " fill-rule="evenodd" fill="none" vector-effect="non-scaling-stroke" stroke-width="3" stroke="rgb(116,116,116)" stroke-linejoin="miter" stroke-linecap="square" stroke-miterlimit="3"/></clipPath><g clip-path="url(#_clipPath_bBfpvvy80hDLArFTV4mcsrczdPEYPdXH)"><mask id="_mask_18R4wDofmijp70tleMK8JmkHGSPPqF4K" x="-200%" y="-200%" width="400%" height="400%"><rect x="-200%" y="-200%" width="400%" height="400%" style="fill:white;"/><line x1="13.269" y1="66.21" x2="28.302" y2="66.21" fill="black" stroke="none"/></mask><line x1="13.269" y1="66.21" x2="28.302" y2="66.21" mask="url(#_mask_18R4wDofmijp70tleMK8JmkHGSPPqF4K)" vector-effect="non-scaling-stroke" stroke-width="4" stroke="rgb(116,116,116)" stroke-opacity="100" stroke-linejoin="miter" stroke-linecap="butt" stroke-miterlimit="4"/></g><path d=" M -400 -300 L 400 -300 L 400 300 L -400 300 L -400 -300 Z  M 13.269 66.21 L 28.302 66.21 L 13.269 66.21 Z " fill-rule="evenodd" fill="transparent" vector-effect="non-scaling-stroke" stroke-width="3" stroke="rgb(116,116,116)" stroke-linejoin="miter" stroke-linecap="square" stroke-miterlimit="3"/><rect x="4.33" y="60.63" width="59.879" height="70.621" transform="matrix(1,0,0,1,0,0)" fill="none" vector-effect="non-scaling-stroke" stroke-width="2" stroke="rgb(116,116,116)" stroke-opacity="100" stroke-linejoin="miter" stroke-linecap="square" stroke-miterlimit="2"/><path d=" M -400 -300 L 400 -300 L 400 300 L -400 300 L -400 -300 Z  M 43.152 66.21 L 53.617 66.21 L 43.152 66.21 Z " fill-rule="evenodd" fill="none" vector-effect="non-scaling-stroke" stroke-width="3" stroke="rgb(116,116,116)" stroke-linejoin="miter" stroke-linecap="square" stroke-miterlimit="3"/><clipPath id="_clipPath_WjwD83Ppupmm1xwDOG0qja07s0ytU8Pi"><path d=" M -400 -300 L 400 -300 L 400 300 L -400 300 L -400 -300 Z  M 43.152 66.21 L 53.617 66.21 L 43.152 66.21 Z " fill-rule="evenodd" fill="none" vector-effect="non-scaling-stroke" stroke-width="3" stroke="rgb(116,116,116)" stroke-linejoin="miter" stroke-linecap="square" stroke-miterlimit="3"/></clipPath><g clip-path="url(#_clipPath_WjwD83Ppupmm1xwDOG0qja07s0ytU8Pi)"><mask id="_mask_BAhQtLP7NRQX8fQgoOOnUMncwrmooM0I" x="-200%" y="-200%" width="400%" height="400%"><rect x="-200%" y="-200%" width="400%" height="400%" style="fill:white;"/><line x1="43.152" y1="66.21" x2="53.617" y2="66.21" fill="black" stroke="none"/></mask><line x1="43.152" y1="66.21" x2="53.617" y2="66.21" mask="url(#_mask_BAhQtLP7NRQX8fQgoOOnUMncwrmooM0I)" vector-effect="non-scaling-stroke" stroke-width="4" stroke="rgb(116,116,116)" stroke-opacity="100" stroke-linejoin="miter" stroke-linecap="butt" stroke-miterlimit="4"/></g><path d=" M -400 -300 L 400 -300 L 400 300 L -400 300 L -400 -300 Z  M 43.152 66.21 L 53.617 66.21 L 43.152 66.21 Z " fill-rule="evenodd" fill="transparent" vector-effect="non-scaling-stroke" stroke-width="3" stroke="rgb(116,116,116)" stroke-linejoin="miter" stroke-linecap="square" stroke-miterlimit="3"/><path d=" M -400 -300 L 400 -300 L 400 300 L -400 300 L -400 -300 Z  M 13.269 74.21 L 23.615 74.21 L 13.269 74.21 Z " fill-rule="evenodd" fill="none" vector-effect="non-scaling-stroke" stroke-width="3" stroke="rgb(116,116,116)" stroke-linejoin="miter" stroke-linecap="square" stroke-miterlimit="3"/><clipPath id="_clipPath_Zi1m81a3de4TfF9A5P6nrHNDpPALxBmI"><path d=" M -400 -300 L 400 -300 L 400 300 L -400 300 L -400 -300 Z  M 13.269 74.21 L 23.615 74.21 L 13.269 74.21 Z " fill-rule="evenodd" fill="none" vector-effect="non-scaling-stroke" stroke-width="3" stroke="rgb(116,116,116)" stroke-linejoin="miter" stroke-linecap="square" stroke-miterlimit="3"/></clipPath><g clip-path="url(#_clipPath_Zi1m81a3de4TfF9A5P6nrHNDpPALxBmI)"><mask id="_mask_v6371OXVKP7Bw7gkOvmylkfzgZOQs63V" x="-200%" y="-200%" width="400%" height="400%"><rect x="-200%" y="-200%" width="400%" height="400%" style="fill:white;"/><line x1="13.269" y1="74.21" x2="23.615" y2="74.21" fill="black" stroke="none"/></mask><line x1="13.269" y1="74.21" x2="23.615" y2="74.21" mask="url(#_mask_v6371OXVKP7Bw7gkOvmylkfzgZOQs63V)" vector-effect="non-scaling-stroke" stroke-width="4" stroke="rgb(116,116,116)" stroke-opacity="100" stroke-linejoin="miter" stroke-linecap="butt" stroke-miterlimit="4"/></g><path d=" M -400 -300 L 400 -300 L 400 300 L -400 300 L -400 -300 Z  M 13.269 74.21 L 23.615 74.21 L 13.269 74.21 Z " fill-rule="evenodd" fill="transparent" vector-effect="non-scaling-stroke" stroke-width="3" stroke="rgb(116,116,116)" stroke-linejoin="miter" stroke-linecap="square" stroke-miterlimit="3"/><rect x="7.106" y="72.009" width="4.333" height="4.403" transform="matrix(1,0,0,1,0,0)" fill="rgb(116,116,116)"/><path d=" M -400 -300 L 400 -300 L 400 300 L -400 300 L -400 -300 Z  M 43.152 74.21 L 57.192 74.21 L 43.152 74.21 Z " fill-rule="evenodd" fill="none" vector-effect="non-scaling-stroke" stroke-width="3" stroke="rgb(116,116,116)" stroke-linejoin="miter" stroke-linecap="square" stroke-miterlimit="3"/><clipPath id="_clipPath_RWgL7nPvoEHaOFQf9g1vGhfYgstJM8zz"><path d=" M -400 -300 L 400 -300 L 400 300 L -400 300 L -400 -300 Z  M 43.152 74.21 L 57.192 74.21 L 43.152 74.21 Z " fill-rule="evenodd" fill="none" vector-effect="non-scaling-stroke" stroke-width="3" stroke="rgb(116,116,116)" stroke-linejoin="miter" stroke-linecap="square" stroke-miterlimit="3"/></clipPath><g clip-path="url(#_clipPath_RWgL7nPvoEHaOFQf9g1vGhfYgstJM8zz)"><mask id="_mask_jxycjw1maNJ0EmljEmpBvF9kCFunW01v" x="-200%" y="-200%" width="400%" height="400%"><rect x="-200%" y="-200%" width="400%" height="400%" style="fill:white;"/><line x1="43.152" y1="74.21" x2="57.192" y2="74.21" fill="black" stroke="none"/></mask><line x1="43.152" y1="74.21" x2="57.192" y2="74.21" mask="url(#_mask_jxycjw1maNJ0EmljEmpBvF9kCFunW01v)" vector-effect="non-scaling-stroke" stroke-width="4" stroke="rgb(116,116,116)" stroke-opacity="100" stroke-linejoin="miter" stroke-linecap="butt" stroke-miterlimit="4"/></g><path d=" M -400 -300 L 400 -300 L 400 300 L -400 300 L -400 -300 Z  M 43.152 74.21 L 57.192 74.21 L 43.152 74.21 Z " fill-rule="evenodd" fill="transparent" vector-effect="non-scaling-stroke" stroke-width="3" stroke="rgb(116,116,116)" stroke-linejoin="miter" stroke-linecap="square" stroke-miterlimit="3"/><path d=" M -400 -300 L 400 -300 L 400 300 L -400 300 L -400 -300 Z  M 13.269 82.21 L 25.522 82.21 L 13.269 82.21 Z " fill-rule="evenodd" fill="none" vector-effect="non-scaling-stroke" stroke-width="3" stroke="rgb(116,116,116)" stroke-linejoin="miter" stroke-linecap="square" stroke-miterlimit="3"/><clipPath id="_clipPath_X6SR4d5JDOBaVO26TYnp5eGn6z7hJdHV"><path d=" M -400 -300 L 400 -300 L 400 300 L -400 300 L -400 -300 Z  M 13.269 82.21 L 25.522 82.21 L 13.269 82.21 Z " fill-rule="evenodd" fill="none" vector-effect="non-scaling-stroke" stroke-width="3" stroke="rgb(116,116,116)" stroke-linejoin="miter" stroke-linecap="square" stroke-miterlimit="3"/></clipPath><g clip-path="url(#_clipPath_X6SR4d5JDOBaVO26TYnp5eGn6z7hJdHV)"><mask id="_mask_0VuAHK0MIoZeHTEWdvpUFkIfOrGHQbO4" x="-200%" y="-200%" width="400%" height="400%"><rect x="-200%" y="-200%" width="400%" height="400%" style="fill:white;"/><line x1="13.269" y1="82.21" x2="25.522" y2="82.21" fill="black" stroke="none"/></mask><line x1="13.269" y1="82.21" x2="25.522" y2="82.21" mask="url(#_mask_0VuAHK0MIoZeHTEWdvpUFkIfOrGHQbO4)" vector-effect="non-scaling-stroke" stroke-width="4" stroke="rgb(116,116,116)" stroke-opacity="100" stroke-linejoin="miter" stroke-linecap="butt" stroke-miterlimit="4"/></g><path d=" M -400 -300 L 400 -300 L 400 300 L -400 300 L -400 -300 Z  M 13.269 82.21 L 25.522 82.21 L 13.269 82.21 Z " fill-rule="evenodd" fill="transparent" vector-effect="non-scaling-stroke" stroke-width="3" stroke="rgb(116,116,116)" stroke-linejoin="miter" stroke-linecap="square" stroke-miterlimit="3"/><rect x="7.106" y="80.009" width="4.333" height="4.403" transform="matrix(1,0,0,1,0,0)" fill="rgb(116,116,116)"/><path d=" M -400 -300 L 400 -300 L 400 300 L -400 300 L -400 -300 Z  M 43.152 82.21 L 51.392 82.21 L 43.152 82.21 Z " fill-rule="evenodd" fill="none" vector-effect="non-scaling-stroke" stroke-width="3" stroke="rgb(116,116,116)" stroke-linejoin="miter" stroke-linecap="square" stroke-miterlimit="3"/><clipPath id="_clipPath_N32CTIQs3oavcUj3hH3ZQOvdvFIz9uo5"><path d=" M -400 -300 L 400 -300 L 400 300 L -400 300 L -400 -300 Z  M 43.152 82.21 L 51.392 82.21 L 43.152 82.21 Z " fill-rule="evenodd" fill="none" vector-effect="non-scaling-stroke" stroke-width="3" stroke="rgb(116,116,116)" stroke-linejoin="miter" stroke-linecap="square" stroke-miterlimit="3"/></clipPath><g clip-path="url(#_clipPath_N32CTIQs3oavcUj3hH3ZQOvdvFIz9uo5)"><mask id="_mask_NLjJNLoCBWmgQtTvi2ebQmVKzwV55qW8" x="-200%" y="-200%" width="400%" height="400%"><rect x="-200%" y="-200%" width="400%" height="400%" style="fill:white;"/><line x1="43.152" y1="82.21" x2="51.392" y2="82.21" fill="black" stroke="none"/></mask><line x1="43.152" y1="82.21" x2="51.392" y2="82.21" mask="url(#_mask_NLjJNLoCBWmgQtTvi2ebQmVKzwV55qW8)" vector-effect="non-scaling-stroke" stroke-width="4" stroke="rgb(116,116,116)" stroke-opacity="100" stroke-linejoin="miter" stroke-linecap="butt" stroke-miterlimit="4"/></g><path d=" M -400 -300 L 400 -300 L 400 300 L -400 300 L -400 -300 Z  M 43.152 82.21 L 51.392 82.21 L 43.152 82.21 Z " fill-rule="evenodd" fill="transparent" vector-effect="non-scaling-stroke" stroke-width="3" stroke="rgb(116,116,116)" stroke-linejoin="miter" stroke-linecap="square" stroke-miterlimit="3"/><path d=" M -400 -300 L 400 -300 L 400 300 L -400 300 L -400 -300 Z  M 13.269 90.21 L 24.489 90.21 L 13.269 90.21 Z " fill-rule="evenodd" fill="none" vector-effect="non-scaling-stroke" stroke-width="3" stroke="rgb(116,116,116)" stroke-linejoin="miter" stroke-linecap="square" stroke-miterlimit="3"/><clipPath id="_clipPath_f2iKl5OeuB0tLO2dSZEkBokINFYIY1fV"><path d=" M -400 -300 L 400 -300 L 400 300 L -400 300 L -400 -300 Z  M 13.269 90.21 L 24.489 90.21 L 13.269 90.21 Z " fill-rule="evenodd" fill="none" vector-effect="non-scaling-stroke" stroke-width="3" stroke="rgb(116,116,116)" stroke-linejoin="miter" stroke-linecap="square" stroke-miterlimit="3"/></clipPath><g clip-path="url(#_clipPath_f2iKl5OeuB0tLO2dSZEkBokINFYIY1fV)"><mask id="_mask_NXYjviQfEFJscjnEiPyTBrkHgddi3eit" x="-200%" y="-200%" width="400%" height="400%"><rect x="-200%" y="-200%" width="400%" height="400%" style="fill:white;"/><line x1="13.269" y1="90.21" x2="24.489" y2="90.21" fill="black" stroke="none"/></mask><line x1="13.269" y1="90.21" x2="24.489" y2="90.21" mask="url(#_mask_NXYjviQfEFJscjnEiPyTBrkHgddi3eit)" vector-effect="non-scaling-stroke" stroke-width="4" stroke="rgb(116,116,116)" stroke-opacity="100" stroke-linejoin="miter" stroke-linecap="butt" stroke-miterlimit="4"/></g><path d=" M -400 -300 L 400 -300 L 400 300 L -400 300 L -400 -300 Z  M 13.269 90.21 L 24.489 90.21 L 13.269 90.21 Z " fill-rule="evenodd" fill="transparent" vector-effect="non-scaling-stroke" stroke-width="3" stroke="rgb(116,116,116)" stroke-linejoin="miter" stroke-linecap="square" stroke-miterlimit="3"/><rect x="7.106" y="88.009" width="4.333" height="4.403" transform="matrix(1,0,0,1,0,0)" fill="rgb(116,116,116)"/><path d=" M -400 -300 L 400 -300 L 400 300 L -400 300 L -400 -300 Z  M 43.152 90.21 L 55.364 90.21 L 43.152 90.21 Z " fill-rule="evenodd" fill="none" vector-effect="non-scaling-stroke" stroke-width="3" stroke="rgb(116,116,116)" stroke-linejoin="miter" stroke-linecap="square" stroke-miterlimit="3"/><clipPath id="_clipPath_Y7ikESlN2MG6OS2kyWpH0qmHS8EZ3fIa"><path d=" M -400 -300 L 400 -300 L 400 300 L -400 300 L -400 -300 Z  M 43.152 90.21 L 55.364 90.21 L 43.152 90.21 Z " fill-rule="evenodd" fill="none" vector-effect="non-scaling-stroke" stroke-width="3" stroke="rgb(116,116,116)" stroke-linejoin="miter" stroke-linecap="square" stroke-miterlimit="3"/></clipPath><g clip-path="url(#_clipPath_Y7ikESlN2MG6OS2kyWpH0qmHS8EZ3fIa)"><mask id="_mask_NVVZ1BhqxBCP2l4mRIyRM5AV5FHzeZUV" x="-200%" y="-200%" width="400%" height="400%"><rect x="-200%" y="-200%" width="400%" height="400%" style="fill:white;"/><line x1="43.152" y1="90.21" x2="55.364" y2="90.21" fill="black" stroke="none"/></mask><line x1="43.152" y1="90.21" x2="55.364" y2="90.21" mask="url(#_mask_NVVZ1BhqxBCP2l4mRIyRM5AV5FHzeZUV)" vector-effect="non-scaling-stroke" stroke-width="4" stroke="rgb(116,116,116)" stroke-opacity="100" stroke-linejoin="miter" stroke-linecap="butt" stroke-miterlimit="4"/></g><path d=" M -400 -300 L 400 -300 L 400 300 L -400 300 L -400 -300 Z  M 43.152 90.21 L 55.364 90.21 L 43.152 90.21 Z " fill-rule="evenodd" fill="transparent" vector-effect="non-scaling-stroke" stroke-width="3" stroke="rgb(116,116,116)" stroke-linejoin="miter" stroke-linecap="square" stroke-miterlimit="3"/><path d=" M -400 -300 L 400 -300 L 400 300 L -400 300 L -400 -300 Z  M 13.269 98.21 L 22.741 98.21 L 13.269 98.21 Z " fill-rule="evenodd" fill="none" vector-effect="non-scaling-stroke" stroke-width="3" stroke="rgb(116,116,116)" stroke-linejoin="miter" stroke-linecap="square" stroke-miterlimit="3"/><clipPath id="_clipPath_Gp92UxI8kOGelRIwM9yz3CpwGmliHJHA"><path d=" M -400 -300 L 400 -300 L 400 300 L -400 300 L -400 -300 Z  M 13.269 98.21 L 22.741 98.21 L 13.269 98.21 Z " fill-rule="evenodd" fill="none" vector-effect="non-scaling-stroke" stroke-width="3" stroke="rgb(116,116,116)" stroke-linejoin="miter" stroke-linecap="square" stroke-miterlimit="3"/></clipPath><g clip-path="url(#_clipPath_Gp92UxI8kOGelRIwM9yz3CpwGmliHJHA)"><mask id="_mask_4pOZckLNbIv5mSmBSgmiwEH6Umb0C8ne" x="-200%" y="-200%" width="400%" height="400%"><rect x="-200%" y="-200%" width="400%" height="400%" style="fill:white;"/><line x1="13.269" y1="98.21" x2="22.741" y2="98.21" fill="black" stroke="none"/></mask><line x1="13.269" y1="98.21" x2="22.741" y2="98.21" mask="url(#_mask_4pOZckLNbIv5mSmBSgmiwEH6Umb0C8ne)" vector-effect="non-scaling-stroke" stroke-width="4" stroke="rgb(116,116,116)" stroke-opacity="100" stroke-linejoin="miter" stroke-linecap="butt" stroke-miterlimit="4"/></g><path d=" M -400 -300 L 400 -300 L 400 300 L -400 300 L -400 -300 Z  M 13.269 98.21 L 22.741 98.21 L 13.269 98.21 Z " fill-rule="evenodd" fill="transparent" vector-effect="non-scaling-stroke" stroke-width="3" stroke="rgb(116,116,116)" stroke-linejoin="miter" stroke-linecap="square" stroke-miterlimit="3"/><rect x="7.106" y="96.009" width="4.333" height="4.403" transform="matrix(1,0,0,1,0,0)" fill="rgb(116,116,116)"/><path d=" M -400 -300 L 400 -300 L 400 300 L -400 300 L -400 -300 Z  M 43.152 98.21 L 58.225 98.21 L 43.152 98.21 Z " fill-rule="evenodd" fill="none" vector-effect="non-scaling-stroke" stroke-width="3" stroke="rgb(116,116,116)" stroke-linejoin="miter" stroke-linecap="square" stroke-miterlimit="3"/><clipPath id="_clipPath_v2woFjQOyk9z6XNWMXfBix1Q37xmjEj3"><path d=" M -400 -300 L 400 -300 L 400 300 L -400 300 L -400 -300 Z  M 43.152 98.21 L 58.225 98.21 L 43.152 98.21 Z " fill-rule="evenodd" fill="none" vector-effect="non-scaling-stroke" stroke-width="3" stroke="rgb(116,116,116)" stroke-linejoin="miter" stroke-linecap="square" stroke-miterlimit="3"/></clipPath><g clip-path="url(#_clipPath_v2woFjQOyk9z6XNWMXfBix1Q37xmjEj3)"><mask id="_mask_4geWDLn3MuKVLt8zZFXJywdmceEo3U6I" x="-200%" y="-200%" width="400%" height="400%"><rect x="-200%" y="-200%" width="400%" height="400%" style="fill:white;"/><line x1="43.152" y1="98.21" x2="58.225" y2="98.21" fill="black" stroke="none"/></mask><line x1="43.152" y1="98.21" x2="58.225" y2="98.21" mask="url(#_mask_4geWDLn3MuKVLt8zZFXJywdmceEo3U6I)" vector-effect="non-scaling-stroke" stroke-width="4" stroke="rgb(116,116,116)" stroke-opacity="100" stroke-linejoin="miter" stroke-linecap="butt" stroke-miterlimit="4"/></g><path d=" M -400 -300 L 400 -300 L 400 300 L -400 300 L -400 -300 Z  M 43.152 98.21 L 58.225 98.21 L 43.152 98.21 Z " fill-rule="evenodd" fill="transparent" vector-effect="non-scaling-stroke" stroke-width="3" stroke="rgb(116,116,116)" stroke-linejoin="miter" stroke-linecap="square" stroke-miterlimit="3"/><path d=" M -400 -300 L 400 -300 L 400 300 L -400 300 L -400 -300 Z  M 13.269 106.21 L 27.349 106.21 L 13.269 106.21 Z " fill-rule="evenodd" fill="none" vector-effect="non-scaling-stroke" stroke-width="3" stroke="rgb(116,116,116)" stroke-linejoin="miter" stroke-linecap="square" stroke-miterlimit="3"/><clipPath id="_clipPath_qoYri25qx3O94euLZFrQovTKGTtvV9Oi"><path d=" M -400 -300 L 400 -300 L 400 300 L -400 300 L -400 -300 Z  M 13.269 106.21 L 27.349 106.21 L 13.269 106.21 Z " fill-rule="evenodd" fill="none" vector-effect="non-scaling-stroke" stroke-width="3" stroke="rgb(116,116,116)" stroke-linejoin="miter" stroke-linecap="square" stroke-miterlimit="3"/></clipPath><g clip-path="url(#_clipPath_qoYri25qx3O94euLZFrQovTKGTtvV9Oi)"><mask id="_mask_in5R4nuuqAFYbabH6KhnUYS2wwu2s2Uh" x="-200%" y="-200%" width="400%" height="400%"><rect x="-200%" y="-200%" width="400%" height="400%" style="fill:white;"/><line x1="13.269" y1="106.21" x2="27.349" y2="106.21" fill="black" stroke="none"/></mask><line x1="13.269" y1="106.21" x2="27.349" y2="106.21" mask="url(#_mask_in5R4nuuqAFYbabH6KhnUYS2wwu2s2Uh)" vector-effect="non-scaling-stroke" stroke-width="4" stroke="rgb(116,116,116)" stroke-opacity="100" stroke-linejoin="miter" stroke-linecap="butt" stroke-miterlimit="4"/></g><path d=" M -400 -300 L 400 -300 L 400 300 L -400 300 L -400 -300 Z  M 13.269 106.21 L 27.349 106.21 L 13.269 106.21 Z " fill-rule="evenodd" fill="transparent" vector-effect="non-scaling-stroke" stroke-width="3" stroke="rgb(116,116,116)" stroke-linejoin="miter" stroke-linecap="square" stroke-miterlimit="3"/><rect x="7.106" y="104.009" width="4.333" height="4.403" transform="matrix(1,0,0,1,0,0)" fill="rgb(115,115,115)"/><path d=" M -400 -300 L 400 -300 L 400 300 L -400 300 L -400 -300 Z  M 43.152 106.21 L 54.332 106.21 L 43.152 106.21 Z " fill-rule="evenodd" fill="none" vector-effect="non-scaling-stroke" stroke-width="3" stroke="rgb(116,116,116)" stroke-linejoin="miter" stroke-linecap="square" stroke-miterlimit="3"/><clipPath id="_clipPath_DPcmjX8YJ0EXQ528cW4Wzpm0UGhkwyVM"><path d=" M -400 -300 L 400 -300 L 400 300 L -400 300 L -400 -300 Z  M 43.152 106.21 L 54.332 106.21 L 43.152 106.21 Z " fill-rule="evenodd" fill="none" vector-effect="non-scaling-stroke" stroke-width="3" stroke="rgb(116,116,116)" stroke-linejoin="miter" stroke-linecap="square" stroke-miterlimit="3"/></clipPath><g clip-path="url(#_clipPath_DPcmjX8YJ0EXQ528cW4Wzpm0UGhkwyVM)"><mask id="_mask_6KrhM4e3aWSxORqfX6lELc14Undletwe" x="-200%" y="-200%" width="400%" height="400%"><rect x="-200%" y="-200%" width="400%" height="400%" style="fill:white;"/><line x1="43.152" y1="106.21" x2="54.332" y2="106.21" fill="black" stroke="none"/></mask><line x1="43.152" y1="106.21" x2="54.332" y2="106.21" mask="url(#_mask_6KrhM4e3aWSxORqfX6lELc14Undletwe)" vector-effect="non-scaling-stroke" stroke-width="4" stroke="rgb(116,116,116)" stroke-opacity="100" stroke-linejoin="miter" stroke-linecap="butt" stroke-miterlimit="4"/></g><path d=" M -400 -300 L 400 -300 L 400 300 L -400 300 L -400 -300 Z  M 43.152 106.21 L 54.332 106.21 L 43.152 106.21 Z " fill-rule="evenodd" fill="transparent" vector-effect="non-scaling-stroke" stroke-width="3" stroke="rgb(116,116,116)" stroke-linejoin="miter" stroke-linecap="square" stroke-miterlimit="3"/><path d=" M -400 -300 L 400 -300 L 400 300 L -400 300 L -400 -300 Z  M 13.269 114.21 L 21.39 114.21 L 13.269 114.21 Z " fill-rule="evenodd" fill="none" vector-effect="non-scaling-stroke" stroke-width="3" stroke="rgb(116,116,116)" stroke-linejoin="miter" stroke-linecap="square" stroke-miterlimit="3"/><clipPath id="_clipPath_RIF1Ow6dGHC81XAhe1wbDAcBbJAgQ5bt"><path d=" M -400 -300 L 400 -300 L 400 300 L -400 300 L -400 -300 Z  M 13.269 114.21 L 21.39 114.21 L 13.269 114.21 Z " fill-rule="evenodd" fill="none" vector-effect="non-scaling-stroke" stroke-width="3" stroke="rgb(116,116,116)" stroke-linejoin="miter" stroke-linecap="square" stroke-miterlimit="3"/></clipPath><g clip-path="url(#_clipPath_RIF1Ow6dGHC81XAhe1wbDAcBbJAgQ5bt)"><mask id="_mask_kEG2Iv42RNfV4BtlqbF1ZxxcBcrjGSpy" x="-200%" y="-200%" width="400%" height="400%"><rect x="-200%" y="-200%" width="400%" height="400%" style="fill:white;"/><line x1="13.269" y1="114.21" x2="21.39" y2="114.21" fill="black" stroke="none"/></mask><line x1="13.269" y1="114.21" x2="21.39" y2="114.21" mask="url(#_mask_kEG2Iv42RNfV4BtlqbF1ZxxcBcrjGSpy)" vector-effect="non-scaling-stroke" stroke-width="4" stroke="rgb(116,116,116)" stroke-opacity="100" stroke-linejoin="miter" stroke-linecap="butt" stroke-miterlimit="4"/></g><path d=" M -400 -300 L 400 -300 L 400 300 L -400 300 L -400 -300 Z  M 13.269 114.21 L 21.39 114.21 L 13.269 114.21 Z " fill-rule="evenodd" fill="transparent" vector-effect="non-scaling-stroke" stroke-width="3" stroke="rgb(116,116,116)" stroke-linejoin="miter" stroke-linecap="square" stroke-miterlimit="3"/><rect x="7.106" y="112.009" width="4.333" height="4.403" transform="matrix(1,0,0,1,0,0)" fill="rgb(116,116,116)"/><path d=" M -400 -300 L 400 -300 L 400 300 L -400 300 L -400 -300 Z  M 43.152 114.21 L 55.364 114.21 L 43.152 114.21 Z " fill-rule="evenodd" fill="none" vector-effect="non-scaling-stroke" stroke-width="3" stroke="rgb(116,116,116)" stroke-linejoin="miter" stroke-linecap="square" stroke-miterlimit="3"/><clipPath id="_clipPath_olsSTWB1DtxfGYlygYDEvDQKQvBgZN7j"><path d=" M -400 -300 L 400 -300 L 400 300 L -400 300 L -400 -300 Z  M 43.152 114.21 L 55.364 114.21 L 43.152 114.21 Z " fill-rule="evenodd" fill="none" vector-effect="non-scaling-stroke" stroke-width="3" stroke="rgb(116,116,116)" stroke-linejoin="miter" stroke-linecap="square" stroke-miterlimit="3"/></clipPath><g clip-path="url(#_clipPath_olsSTWB1DtxfGYlygYDEvDQKQvBgZN7j)"><mask id="_mask_maWHLseiMe10gEsDf73mB4xj5ZCZ5WGb" x="-200%" y="-200%" width="400%" height="400%"><rect x="-200%" y="-200%" width="400%" height="400%" style="fill:white;"/><line x1="43.152" y1="114.21" x2="55.364" y2="114.21" fill="black" stroke="none"/></mask><line x1="43.152" y1="114.21" x2="55.364" y2="114.21" mask="url(#_mask_maWHLseiMe10gEsDf73mB4xj5ZCZ5WGb)" vector-effect="non-scaling-stroke" stroke-width="4" stroke="rgb(116,116,116)" stroke-opacity="100" stroke-linejoin="miter" stroke-linecap="butt" stroke-miterlimit="4"/></g><path d=" M -400 -300 L 400 -300 L 400 300 L -400 300 L -400 -300 Z  M 43.152 114.21 L 55.364 114.21 L 43.152 114.21 Z " fill-rule="evenodd" fill="transparent" vector-effect="non-scaling-stroke" stroke-width="3" stroke="rgb(116,116,116)" stroke-linejoin="miter" stroke-linecap="square" stroke-miterlimit="3"/><path d=" M -400 -300 L 400 -300 L 400 300 L -400 300 L -400 -300 Z  M 13.269 122.21 L 23.376 122.21 L 13.269 122.21 Z " fill-rule="evenodd" fill="none" vector-effect="non-scaling-stroke" stroke-width="3" stroke="rgb(116,116,116)" stroke-linejoin="miter" stroke-linecap="square" stroke-miterlimit="3"/><clipPath id="_clipPath_8OmDQDIf5jr2RZZRVlRuVPijqQkMDBB7"><path d=" M -400 -300 L 400 -300 L 400 300 L -400 300 L -400 -300 Z  M 13.269 122.21 L 23.376 122.21 L 13.269 122.21 Z " fill-rule="evenodd" fill="none" vector-effect="non-scaling-stroke" stroke-width="3" stroke="rgb(116,116,116)" stroke-linejoin="miter" stroke-linecap="square" stroke-miterlimit="3"/></clipPath><g clip-path="url(#_clipPath_8OmDQDIf5jr2RZZRVlRuVPijqQkMDBB7)"><mask id="_mask_6wYvrwajTnkxkXHuwQIk2BeZlE4FK7nF" x="-200%" y="-200%" width="400%" height="400%"><rect x="-200%" y="-200%" width="400%" height="400%" style="fill:white;"/><line x1="13.269" y1="122.21" x2="23.376" y2="122.21" fill="black" stroke="none"/></mask><line x1="13.269" y1="122.21" x2="23.376" y2="122.21" mask="url(#_mask_6wYvrwajTnkxkXHuwQIk2BeZlE4FK7nF)" vector-effect="non-scaling-stroke" stroke-width="4" stroke="rgb(116,116,116)" stroke-opacity="100" stroke-linejoin="miter" stroke-linecap="butt" stroke-miterlimit="4"/></g><path d=" M -400 -300 L 400 -300 L 400 300 L -400 300 L -400 -300 Z  M 13.269 122.21 L 23.376 122.21 L 13.269 122.21 Z " fill-rule="evenodd" fill="transparent" vector-effect="non-scaling-stroke" stroke-width="3" stroke="rgb(116,116,116)" stroke-linejoin="miter" stroke-linecap="square" stroke-miterlimit="3"/><rect x="7.106" y="120.009" width="4.333" height="4.403" transform="matrix(1,0,0,1,0,0)" fill="rgb(116,116,116)"/><path d=" M -400 -300 L 400 -300 L 400 300 L -400 300 L -400 -300 Z  M 43.152 122.21 L 53.458 122.21 L 43.152 122.21 Z " fill-rule="evenodd" fill="none" vector-effect="non-scaling-stroke" stroke-width="3" stroke="rgb(116,116,116)" stroke-linejoin="miter" stroke-linecap="square" stroke-miterlimit="3"/><clipPath id="_clipPath_lNhscMA65JeKTBxVAWWibxIAgMPs5JAO"><path d=" M -400 -300 L 400 -300 L 400 300 L -400 300 L -400 -300 Z  M 43.152 122.21 L 53.458 122.21 L 43.152 122.21 Z " fill-rule="evenodd" fill="none" vector-effect="non-scaling-stroke" stroke-width="3" stroke="rgb(116,116,116)" stroke-linejoin="miter" stroke-linecap="square" stroke-miterlimit="3"/></clipPath><g clip-path="url(#_clipPath_lNhscMA65JeKTBxVAWWibxIAgMPs5JAO)"><mask id="_mask_9zk4aHcnE8xXluBcJAn58ZHVHKs4A3WC" x="-200%" y="-200%" width="400%" height="400%"><rect x="-200%" y="-200%" width="400%" height="400%" style="fill:white;"/><line x1="43.152" y1="122.21" x2="53.458" y2="122.21" fill="black" stroke="none"/></mask><line x1="43.152" y1="122.21" x2="53.458" y2="122.21" mask="url(#_mask_9zk4aHcnE8xXluBcJAn58ZHVHKs4A3WC)" vector-effect="non-scaling-stroke" stroke-width="4" stroke="rgb(116,116,116)" stroke-opacity="100" stroke-linejoin="miter" stroke-linecap="butt" stroke-miterlimit="4"/></g><path d=" M -400 -300 L 400 -300 L 400 300 L -400 300 L -400 -300 Z  M 43.152 122.21 L 53.458 122.21 L 43.152 122.21 Z " fill-rule="evenodd" fill="transparent" vector-effect="non-scaling-stroke" stroke-width="3" stroke="rgb(116,116,116)" stroke-linejoin="miter" stroke-linecap="square" stroke-miterlimit="3"/><rect x="7.106" y="64.009" width="4.333" height="4.403" transform="matrix(1,0,0,1,0,0)" fill="rgb(116,116,116)"/></g></g></g></svg>