<?xml version="1.0" encoding="UTF-8" standalone="no"?><!-- Generator: Gravit.io --><svg xmlns="http://www.w3.org/2000/svg" xmlns:xlink="http://www.w3.org/1999/xlink" style="isolation:isolate" viewBox="0 0 200 150" width="200pt" height="150pt"><defs><clipPath id="_clipPath_J24bQZYyS9ZMJBxTNC2tXAN7NfLO9K1a"><rect width="200" height="150"/></clipPath></defs><g clip-path="url(#_clipPath_J24bQZYyS9ZMJBxTNC2tXAN7NfLO9K1a)"><rect x="0" y="0" width="200" height="150" transform="matrix(1,0,0,1,0,0)" fill="none" vector-effect="non-scaling-stroke" stroke-width="3" stroke="rgb(0,0,0)" stroke-linejoin="miter" stroke-linecap="square" stroke-miterlimit="2"/><clipPath id="_clipPath_gqVXERempYCeYhIKrpCGSAP2qpnWggoD"><rect x="0" y="0" width="200" height="150" transform="matrix(1,0,0,1,0,0)" fill="none" vector-effect="non-scaling-stroke" stroke-width="3" stroke="rgb(0,0,0)" stroke-linejoin="miter" stroke-linecap="square" stroke-miterlimit="2"/></clipPath><g clip-path="url(#_clipPath_gqVXERempYCeYhIKrpCGSAP2qpnWggoD)"><g><rect x="0" y="0" width="200" height="150" transform="matrix(1,0,0,1,0,0)" fill="none" vector-effect="non-scaling-stroke" stroke-width="3" stroke="rgb(0,0,0)" stroke-linejoin="miter" stroke-linecap="square" stroke-miterlimit="2"/><clipPath id="_clipPath_WF58wRPED2rpAWlrGW2q4vVEZVGpp3v5"><rect x="0" y="0" width="200" height="150" transform="matrix(1,0,0,1,0,0)" fill="none" vector-effect="non-scaling-stroke" stroke-width="3" stroke="rgb(0,0,0)" stroke-linejoin="miter" stroke-linecap="square" stroke-miterlimit="2"/></clipPath><g clip-path="url(#_clipPath_WF58wRPED2rpAWlrGW2q4vVEZVGpp3v5)"><g><g><clipPath id="_clipPath_pizFGQnqbj5VMpqpYDC8NX3ZpoTmWhfW"><rect x="0" y="0" width="200" height="150" transform="matrix(1,0,0,1,0,0)" fill="rgb(255,255,255)"/></clipPath><g clip-path="url(#_clipPath_pizFGQnqbj5VMpqpYDC8NX3ZpoTmWhfW)"><g><g><g><rect x="1.637" y="1.78" width="10.175" height="9.624" transform="matrix(1,0,0,1,0,0)" fill="rgb(116,116,116)" vector-effect="non-scaling-stroke" stroke-width="3" stroke="rgb(116,116,116)" stroke-opacity="10000" stroke-linejoin="miter" stroke-linecap="butt" stroke-miterlimit="2"/><path d=" M -400 -300 L 400 -300 L 400 300 L -400 300 L -400 -300 L -400 -300 L -400 -300 Z  M 0 1.116 L 200 1.116 L 0 1.116 L 0 1.116 L 0 1.116 Z " fill-rule="evenodd" fill="none" vector-effect="non-scaling-stroke" stroke-width="3" stroke="rgb(116,116,116)" stroke-linejoin="miter" stroke-linecap="square" stroke-miterlimit="3"/><clipPath id="_clipPath_lVifcqlhITPhjVCesMGnsvnFxf3IFja0"><path d=" M -400 -300 L 400 -300 L 400 300 L -400 300 L -400 -300 L -400 -300 L -400 -300 Z  M 0 1.116 L 200 1.116 L 0 1.116 L 0 1.116 L 0 1.116 Z " fill-rule="evenodd" fill="none" vector-effect="non-scaling-stroke" stroke-width="3" stroke="rgb(116,116,116)" stroke-linejoin="miter" stroke-linecap="square" stroke-miterlimit="3"/></clipPath><g clip-path="url(#_clipPath_lVifcqlhITPhjVCesMGnsvnFxf3IFja0)"><g><g><clipPath id="_clipPath_1gSlqOIc75ffM2bfxrOPwQy6wvD91Cqy"><path d=" M -400 -300 L 400 -300 L 400 300 L -400 300 L -400 -300 L -400 -300 Z  M 0 1.116 L 200 1.116 L 0 1.116 L 0 1.116 Z " fill-rule="evenodd" fill="rgb(255,255,255)"/></clipPath><g clip-path="url(#_clipPath_1gSlqOIc75ffM2bfxrOPwQy6wvD91Cqy)"><g><clipPath id="_clipPath_vVh6k6kcfF21dXL1Tk3KWM6pxUH1egFo"><path d=" M -400 -300 L 400 -300 L 400 300 L -400 300 L -400 -300 Z  M 0 1.116 L 200 1.116 L 0 1.116 Z " fill-rule="evenodd" fill="rgb(255,255,255)"/></clipPath><g clip-path="url(#_clipPath_vVh6k6kcfF21dXL1Tk3KWM6pxUH1egFo)"><mask id="_mask_Cuhi52nb1J312IIFASTqd2bVhWLJZIon" x="-200%" y="-200%" width="400%" height="400%"><rect x="-200%" y="-200%" width="400%" height="400%" style="fill:white;"/><line x1="0" y1="1.116" x2="200" y2="1.116" fill="black" stroke="none"/></mask><line x1="0" y1="1.116" x2="200" y2="1.116" mask="url(#_mask_Cuhi52nb1J312IIFASTqd2bVhWLJZIon)" vector-effect="non-scaling-stroke" stroke-width="4" stroke="rgb(116,116,116)" stroke-opacity="1000000" stroke-linejoin="miter" stroke-linecap="butt" stroke-miterlimit="4"/></g></g></g></g></g></g><path d=" M -400 -300 L 400 -300 L 400 300 L -400 300 L -400 -300 L -400 -300 L -400 -300 Z  M 0 1.116 L 200 1.116 L 0 1.116 L 0 1.116 L 0 1.116 Z " fill-rule="evenodd" fill="transparent" vector-effect="non-scaling-stroke" stroke-width="3" stroke="rgb(116,116,116)" stroke-linejoin="miter" stroke-linecap="square" stroke-miterlimit="3"/><path d=" M -400 -300 L 400 -300 L 400 300 L -400 300 L -400 -300 L -400 -300 L -400 -300 Z  M 0 149 L 200 149 L 0 149 L 0 149 L 0 149 Z " fill-rule="evenodd" fill="none" vector-effect="non-scaling-stroke" stroke-width="3" stroke="rgb(116,116,116)" stroke-linejoin="miter" stroke-linecap="square" stroke-miterlimit="3"/><clipPath id="_clipPath_hPaki4gpPmZUWLk17HCvg0Fl3FgPd00B"><path d=" M -400 -300 L 400 -300 L 400 300 L -400 300 L -400 -300 L -400 -300 L -400 -300 Z  M 0 149 L 200 149 L 0 149 L 0 149 L 0 149 Z " fill-rule="evenodd" fill="none" vector-effect="non-scaling-stroke" stroke-width="3" stroke="rgb(116,116,116)" stroke-linejoin="miter" stroke-linecap="square" stroke-miterlimit="3"/></clipPath><g clip-path="url(#_clipPath_hPaki4gpPmZUWLk17HCvg0Fl3FgPd00B)"><g><g><clipPath id="_clipPath_8eKfrcrvYL9dyfeGin0w4vn3rmYfXuDR"><path d=" M -400 -300 L 400 -300 L 400 300 L -400 300 L -400 -300 L -400 -300 Z  M 0 149 L 200 149 L 0 149 L 0 149 Z " fill-rule="evenodd" fill="rgb(255,255,255)"/></clipPath><g clip-path="url(#_clipPath_8eKfrcrvYL9dyfeGin0w4vn3rmYfXuDR)"><g><clipPath id="_clipPath_AcW9EAgmIj1wV574zIwrMSWfsNfWjmmV"><path d=" M -400 -300 L 400 -300 L 400 300 L -400 300 L -400 -300 Z  M 0 149 L 200 149 L 0 149 Z " fill-rule="evenodd" fill="rgb(255,255,255)"/></clipPath><g clip-path="url(#_clipPath_AcW9EAgmIj1wV574zIwrMSWfsNfWjmmV)"><mask id="_mask_oBjXcF31W3DrIgC73DCrny5odVZlQzGa" x="-200%" y="-200%" width="400%" height="400%"><rect x="-200%" y="-200%" width="400%" height="400%" style="fill:white;"/><line x1="0" y1="149" x2="200" y2="149" fill="black" stroke="none"/></mask><line x1="0" y1="149" x2="200" y2="149" mask="url(#_mask_oBjXcF31W3DrIgC73DCrny5odVZlQzGa)" vector-effect="non-scaling-stroke" stroke-width="4" stroke="rgb(116,116,116)" stroke-opacity="1000000" stroke-linejoin="miter" stroke-linecap="butt" stroke-miterlimit="4"/></g></g></g></g></g></g><path d=" M -400 -300 L 400 -300 L 400 300 L -400 300 L -400 -300 L -400 -300 L -400 -300 Z  M 0 149 L 200 149 L 0 149 L 0 149 L 0 149 Z " fill-rule="evenodd" fill="transparent" vector-effect="non-scaling-stroke" stroke-width="3" stroke="rgb(116,116,116)" stroke-linejoin="miter" stroke-linecap="square" stroke-miterlimit="3"/><path d=" M -400 -300 L 400 -300 L 400 300 L -400 300 L -400 -300 L -400 -300 L -400 -300 Z  M 0.866 0 L 0.866 150 L 0.866 0 L 0.866 0 L 0.866 0 Z " fill-rule="evenodd" fill="none" vector-effect="non-scaling-stroke" stroke-width="3" stroke="rgb(116,116,116)" stroke-linejoin="miter" stroke-linecap="square" stroke-miterlimit="3"/><clipPath id="_clipPath_j9rDmNb35gdLScVwRzxrk95JybI8HFyB"><path d=" M -400 -300 L 400 -300 L 400 300 L -400 300 L -400 -300 L -400 -300 L -400 -300 Z  M 0.866 0 L 0.866 150 L 0.866 0 L 0.866 0 L 0.866 0 Z " fill-rule="evenodd" fill="none" vector-effect="non-scaling-stroke" stroke-width="3" stroke="rgb(116,116,116)" stroke-linejoin="miter" stroke-linecap="square" stroke-miterlimit="3"/></clipPath><g clip-path="url(#_clipPath_j9rDmNb35gdLScVwRzxrk95JybI8HFyB)"><g><g><clipPath id="_clipPath_0kzfrLC4xLrBRZeF84D37bAcDvm1SbR5"><path d=" M -400 -300 L 400 -300 L 400 300 L -400 300 L -400 -300 L -400 -300 Z  M 0.866 0 L 0.866 150 L 0.866 0 L 0.866 0 Z " fill-rule="evenodd" fill="rgb(255,255,255)"/></clipPath><g clip-path="url(#_clipPath_0kzfrLC4xLrBRZeF84D37bAcDvm1SbR5)"><g><clipPath id="_clipPath_11lwgxb0HAX5MEPOZdt0xYrFAAV3andO"><path d=" M -400 -300 L 400 -300 L 400 300 L -400 300 L -400 -300 Z  M 0.866 0 L 0.866 102 L 0.866 150 L 0.866 0 Z " fill-rule="evenodd" fill="rgb(255,255,255)"/></clipPath><g clip-path="url(#_clipPath_11lwgxb0HAX5MEPOZdt0xYrFAAV3andO)"><mask id="_mask_uKLswffLmVXPG19PHOweFRR0PNPKyrNi" x="-200%" y="-200%" width="400%" height="400%"><rect x="-200%" y="-200%" width="400%" height="400%" style="fill:white;"/><path d=" M 0.866 0 L 0.866 102 L 0.866 150" fill="black" stroke="none"/></mask><path d=" M 0.866 0 L 0.866 102 L 0.866 150" fill="rgb(0,0,0)" mask="url(#_mask_uKLswffLmVXPG19PHOweFRR0PNPKyrNi)" vector-effect="non-scaling-stroke" stroke-width="6" stroke="rgb(116,116,116)" stroke-opacity="1000000" stroke-linejoin="miter" stroke-linecap="butt" stroke-miterlimit="4"/><path d=" M 0.866 0 L 0.866 102 L 0.866 150" fill="rgb(0,0,0)"/></g><path d=" M 0.866 0 L 0.866 102 L 0.866 150" fill="rgb(0,0,0)"/></g></g></g></g></g><path d=" M -400 -300 L 400 -300 L 400 300 L -400 300 L -400 -300 L -400 -300 L -400 -300 Z  M 0.866 0 L 0.866 150 L 0.866 0 L 0.866 0 L 0.866 0 Z " fill-rule="evenodd" fill="transparent" vector-effect="non-scaling-stroke" stroke-width="3" stroke="rgb(116,116,116)" stroke-linejoin="miter" stroke-linecap="square" stroke-miterlimit="3"/><path d=" M -400 -300 L 400 -300 L 400 300 L -400 300 L -400 -300 L -400 -300 L -400 -300 Z  M 199.134 0 L 199.134 150 L 199.134 0 L 199.134 0 L 199.134 0 Z " fill-rule="evenodd" fill="none" vector-effect="non-scaling-stroke" stroke-width="3" stroke="rgb(116,116,116)" stroke-linejoin="miter" stroke-linecap="square" stroke-miterlimit="3"/><clipPath id="_clipPath_gmUkCDWjl1oMFvBeVwtT4pratuv7Tedw"><path d=" M -400 -300 L 400 -300 L 400 300 L -400 300 L -400 -300 L -400 -300 L -400 -300 Z  M 199.134 0 L 199.134 150 L 199.134 0 L 199.134 0 L 199.134 0 Z " fill-rule="evenodd" fill="none" vector-effect="non-scaling-stroke" stroke-width="3" stroke="rgb(116,116,116)" stroke-linejoin="miter" stroke-linecap="square" stroke-miterlimit="3"/></clipPath><g clip-path="url(#_clipPath_gmUkCDWjl1oMFvBeVwtT4pratuv7Tedw)"><g><g><clipPath id="_clipPath_NibpegroiC9ISR3ICGEHWTBibNZJGI0q"><path d=" M -400 -300 L 400 -300 L 400 300 L -400 300 L -400 -300 L -400 -300 Z  M 199.134 0 L 199.134 150 L 199.134 0 L 199.134 0 Z " fill-rule="evenodd" fill="rgb(255,255,255)"/></clipPath><g clip-path="url(#_clipPath_NibpegroiC9ISR3ICGEHWTBibNZJGI0q)"><g><clipPath id="_clipPath_usuVPGw2jchtYaSCZLrgMP3SSUAIQoXi"><path d=" M -400 -300 L 400 -300 L 400 300 L -400 300 L -400 -300 Z  M 199.134 0 L 199.134 150 L 199.134 0 Z " fill-rule="evenodd" fill="rgb(255,255,255)"/></clipPath><g clip-path="url(#_clipPath_usuVPGw2jchtYaSCZLrgMP3SSUAIQoXi)"><mask id="_mask_cI0nTngoeZdicx16iIYnu71GtljDFdPG" x="-200%" y="-200%" width="400%" height="400%"><rect x="-200%" y="-200%" width="400%" height="400%" style="fill:white;"/><line x1="199.134" y1="0" x2="199.134" y2="150" fill="black" stroke="none"/></mask><line x1="199.134" y1="0" x2="199.134" y2="150" mask="url(#_mask_cI0nTngoeZdicx16iIYnu71GtljDFdPG)" vector-effect="non-scaling-stroke" stroke-width="4" stroke="rgb(116,116,116)" stroke-opacity="1000000" stroke-linejoin="miter" stroke-linecap="butt" stroke-miterlimit="4"/></g></g></g></g></g></g><path d=" M -400 -300 L 400 -300 L 400 300 L -400 300 L -400 -300 L -400 -300 L -400 -300 Z  M 199.134 0 L 199.134 150 L 199.134 0 L 199.134 0 L 199.134 0 Z " fill-rule="evenodd" fill="transparent" vector-effect="non-scaling-stroke" stroke-width="3" stroke="rgb(116,116,116)" stroke-linejoin="miter" stroke-linecap="square" stroke-miterlimit="3"/><path d=" M -400 -300 L 400 -300 L 400 300 L -400 300 L -400 -300 L -400 -300 L -400 -300 Z  M 14.073 5.745 L 29.867 5.745 L 14.073 5.745 L 14.073 5.745 L 14.073 5.745 Z " fill-rule="evenodd" fill="none" vector-effect="non-scaling-stroke" stroke-width="3" stroke="rgb(116,116,116)" stroke-linejoin="miter" stroke-linecap="square" stroke-miterlimit="3"/><clipPath id="_clipPath_A9RorTLlgKEsUMzc4xOQpFYywirtZ5Tm"><path d=" M -400 -300 L 400 -300 L 400 300 L -400 300 L -400 -300 L -400 -300 L -400 -300 Z  M 14.073 5.745 L 29.867 5.745 L 14.073 5.745 L 14.073 5.745 L 14.073 5.745 Z " fill-rule="evenodd" fill="none" vector-effect="non-scaling-stroke" stroke-width="3" stroke="rgb(116,116,116)" stroke-linejoin="miter" stroke-linecap="square" stroke-miterlimit="3"/></clipPath><g clip-path="url(#_clipPath_A9RorTLlgKEsUMzc4xOQpFYywirtZ5Tm)"><g><g><clipPath id="_clipPath_pExqTCGDpf0VunAfG4BMLPE9q33hLbHK"><path d=" M -400 -300 L 400 -300 L 400 300 L -400 300 L -400 -300 L -400 -300 Z  M 14.073 5.745 L 29.867 5.745 L 14.073 5.745 L 14.073 5.745 Z " fill-rule="evenodd" fill="rgb(255,255,255)"/></clipPath><g clip-path="url(#_clipPath_pExqTCGDpf0VunAfG4BMLPE9q33hLbHK)"><g><clipPath id="_clipPath_5uCtrgvkT2Gni9F0IhXU3APageKtAJe8"><path d=" M -400 -300 L 400 -300 L 400 300 L -400 300 L -400 -300 Z  M 14.073 5.745 L 29.867 5.745 L 14.073 5.745 Z " fill-rule="evenodd" fill="rgb(255,255,255)"/></clipPath><g clip-path="url(#_clipPath_5uCtrgvkT2Gni9F0IhXU3APageKtAJe8)"><mask id="_mask_gRTehL82hCtjdwcNGEHg0AufEIuuEu9Q" x="-200%" y="-200%" width="400%" height="400%"><rect x="-200%" y="-200%" width="400%" height="400%" style="fill:white;"/><line x1="14.073" y1="5.745" x2="29.867" y2="5.745" fill="black" stroke="none"/></mask><line x1="14.073" y1="5.745" x2="29.867" y2="5.745" mask="url(#_mask_gRTehL82hCtjdwcNGEHg0AufEIuuEu9Q)" vector-effect="non-scaling-stroke" stroke-width="4" stroke="rgb(116,116,116)" stroke-opacity="1000000" stroke-linejoin="miter" stroke-linecap="butt" stroke-miterlimit="4"/></g></g></g></g></g></g><path d=" M -400 -300 L 400 -300 L 400 300 L -400 300 L -400 -300 L -400 -300 L -400 -300 Z  M 14.073 5.745 L 29.867 5.745 L 14.073 5.745 L 14.073 5.745 L 14.073 5.745 Z " fill-rule="evenodd" fill="transparent" vector-effect="non-scaling-stroke" stroke-width="3" stroke="rgb(116,116,116)" stroke-linejoin="miter" stroke-linecap="square" stroke-miterlimit="3"/><path d=" M -400 -300 L 400 -300 L 400 300 L -400 300 L -400 -300 L -400 -300 L -400 -300 Z  M 1.351 10.487 L 200 10.487 L 1.351 10.487 L 1.351 10.487 L 1.351 10.487 Z " fill-rule="evenodd" fill="none" vector-effect="non-scaling-stroke" stroke-width="3" stroke="rgb(116,116,116)" stroke-linejoin="miter" stroke-linecap="square" stroke-miterlimit="3"/><clipPath id="_clipPath_A19xm806ZG2FH6nISxsdxqa7jLhHVQ71"><path d=" M -400 -300 L 400 -300 L 400 300 L -400 300 L -400 -300 L -400 -300 L -400 -300 Z  M 1.351 10.487 L 200 10.487 L 1.351 10.487 L 1.351 10.487 L 1.351 10.487 Z " fill-rule="evenodd" fill="none" vector-effect="non-scaling-stroke" stroke-width="3" stroke="rgb(116,116,116)" stroke-linejoin="miter" stroke-linecap="square" stroke-miterlimit="3"/></clipPath><g clip-path="url(#_clipPath_A19xm806ZG2FH6nISxsdxqa7jLhHVQ71)"><g><g><clipPath id="_clipPath_NXqDx7pErvIMFpXEgBUwwUbyWqdyQ4C6"><path d=" M -400 -300 L 400 -300 L 400 300 L -400 300 L -400 -300 L -400 -300 Z  M 1.351 10.487 L 200 10.487 L 1.351 10.487 L 1.351 10.487 Z " fill-rule="evenodd" fill="rgb(255,255,255)"/></clipPath><g clip-path="url(#_clipPath_NXqDx7pErvIMFpXEgBUwwUbyWqdyQ4C6)"><g><clipPath id="_clipPath_UtTvrUVxUHnzgJY1Hbn2KFYfVoLnxyKR"><path d=" M -400 -300 L 400 -300 L 400 300 L -400 300 L -400 -300 Z  M 1.351 10.487 L 200 10.487 L 1.351 10.487 Z " fill-rule="evenodd" fill="rgb(255,255,255)"/></clipPath><g clip-path="url(#_clipPath_UtTvrUVxUHnzgJY1Hbn2KFYfVoLnxyKR)"><mask id="_mask_FzuWQGFzhHbjxvhVXuqAegQT8IHbwcTd" x="-200%" y="-200%" width="400%" height="400%"><rect x="-200%" y="-200%" width="400%" height="400%" style="fill:white;"/><line x1="1.351" y1="10.487" x2="200" y2="10.487" fill="black" stroke="none"/></mask><line x1="1.351" y1="10.487" x2="200" y2="10.487" mask="url(#_mask_FzuWQGFzhHbjxvhVXuqAegQT8IHbwcTd)" vector-effect="non-scaling-stroke" stroke-width="4" stroke="rgb(116,116,116)" stroke-opacity="1000000" stroke-linejoin="miter" stroke-linecap="butt" stroke-miterlimit="4"/></g></g></g></g></g></g><path d=" M -400 -300 L 400 -300 L 400 300 L -400 300 L -400 -300 L -400 -300 L -400 -300 Z  M 1.351 10.487 L 200 10.487 L 1.351 10.487 L 1.351 10.487 L 1.351 10.487 Z " fill-rule="evenodd" fill="transparent" vector-effect="non-scaling-stroke" stroke-width="3" stroke="rgb(116,116,116)" stroke-linejoin="miter" stroke-linecap="square" stroke-miterlimit="3"/><rect x="3.709" y="3.885" width="6.031" height="4.063" transform="matrix(1,0,0,1,0,0)" fill="rgb(255,255,255)"/><g><rect x="56.938" y="3.052" width="5.132" height="5.215" transform="matrix(0,-1,1,0,53.844,65.164)" fill="rgb(116,116,116)"/><rect x="49.07" y="3.053" width="5.132" height="5.215" transform="matrix(0,-1,1,0,45.976,57.297)" fill="rgb(116,116,116)"/><rect x="41.204" y="3.052" width="5.132" height="5.215" transform="matrix(0,-1,1,0,38.111,49.43)" fill="rgb(116,116,116)"/><rect x="33.338" y="3.052" width="5.132" height="5.215" transform="matrix(0,-1,1,0,30.244,41.564)" fill="rgb(116,116,116)"/><rect x="80.538" y="3.052" width="5.132" height="5.215" transform="matrix(0,-1,1,0,77.444,88.764)" fill="rgb(116,116,116)"/><rect x="72.67" y="3.052" width="5.132" height="5.215" transform="matrix(0,-1,1,0,69.577,80.896)" fill="rgb(116,116,116)"/><rect x="64.804" y="3.052" width="5.132" height="5.215" transform="matrix(0,-1,1,0,61.71,73.03)" fill="rgb(116,116,116)"/></g><g><rect x="175.052" y="4.427" width="2.535" height="2.576" transform="matrix(0,-1,1,0,170.605,182.035)" fill="rgb(116,116,116)"/><rect x="190.597" y="4.427" width="2.535" height="2.576" transform="matrix(0,-1,1,0,186.149,197.58)" fill="rgb(116,116,116)"/><rect x="186.711" y="4.426" width="2.535" height="2.576" transform="matrix(0,-1,1,0,182.264,193.693)" fill="rgb(116,116,116)"/><rect x="182.824" y="4.426" width="2.535" height="2.576" transform="matrix(0,-1,1,0,178.378,189.806)" fill="rgb(116,116,116)" fill-opacity="0.7490196078431373"/><rect x="178.939" y="4.427" width="2.535" height="2.576" transform="matrix(0,-1,1,0,174.491,185.922)" fill="rgb(116,116,116)"/><rect x="171.166" y="4.43" width="2.535" height="2.576" transform="matrix(0,-1,1,0,166.717,178.152)" fill="rgb(116,116,116)"/><rect x="167.281" y="4.427" width="2.535" height="2.576" transform="matrix(0,-1,1,0,162.833,174.264)" fill="rgb(116,116,116)"/></g><path d=" M -400 -300 L 400 -300 L 400 300 L -400 300 L -400 -300 L -400 -300 L -400 -300 Z  M 3.903 145.258 L 19.698 145.258 L 3.903 145.258 L 3.903 145.258 L 3.903 145.258 Z " fill-rule="evenodd" fill="none" vector-effect="non-scaling-stroke" stroke-width="3" stroke="rgb(116,116,116)" stroke-linejoin="miter" stroke-linecap="square" stroke-miterlimit="3"/><clipPath id="_clipPath_LvZCs55T3CGQb3k8BsHHCYUpjyslrZ4G"><path d=" M -400 -300 L 400 -300 L 400 300 L -400 300 L -400 -300 L -400 -300 L -400 -300 Z  M 3.903 145.258 L 19.698 145.258 L 3.903 145.258 L 3.903 145.258 L 3.903 145.258 Z " fill-rule="evenodd" fill="none" vector-effect="non-scaling-stroke" stroke-width="3" stroke="rgb(116,116,116)" stroke-linejoin="miter" stroke-linecap="square" stroke-miterlimit="3"/></clipPath><g clip-path="url(#_clipPath_LvZCs55T3CGQb3k8BsHHCYUpjyslrZ4G)"><g><g><clipPath id="_clipPath_rCabE5cREi1UR5U65zf4ncem5edHdhAk"><path d=" M -400 -300 L 400 -300 L 400 300 L -400 300 L -400 -300 L -400 -300 Z  M 3.903 145.258 L 19.698 145.258 L 3.903 145.258 L 3.903 145.258 Z " fill-rule="evenodd" fill="rgb(255,255,255)"/></clipPath><g clip-path="url(#_clipPath_rCabE5cREi1UR5U65zf4ncem5edHdhAk)"><g><clipPath id="_clipPath_exA5JjqWjNOyvj8nhRR7FxANY0KVfOla"><path d=" M -400 -300 L 400 -300 L 400 300 L -400 300 L -400 -300 Z  M 3.903 145.258 L 19.698 145.258 L 3.903 145.258 Z " fill-rule="evenodd" fill="rgb(255,255,255)"/></clipPath><g clip-path="url(#_clipPath_exA5JjqWjNOyvj8nhRR7FxANY0KVfOla)"><mask id="_mask_sg5SFll3QA14R3M44Uel7lnUtlVIlJeO" x="-200%" y="-200%" width="400%" height="400%"><rect x="-200%" y="-200%" width="400%" height="400%" style="fill:white;"/><line x1="3.903" y1="145.258" x2="19.698" y2="145.258" fill="black" stroke="none"/></mask><line x1="3.903" y1="145.258" x2="19.698" y2="145.258" mask="url(#_mask_sg5SFll3QA14R3M44Uel7lnUtlVIlJeO)" vector-effect="non-scaling-stroke" stroke-width="4" stroke="rgb(116,116,116)" stroke-opacity="1000000" stroke-linejoin="miter" stroke-linecap="butt" stroke-miterlimit="4"/></g></g></g></g></g></g><path d=" M -400 -300 L 400 -300 L 400 300 L -400 300 L -400 -300 L -400 -300 L -400 -300 Z  M 3.903 145.258 L 19.698 145.258 L 3.903 145.258 L 3.903 145.258 L 3.903 145.258 Z " fill-rule="evenodd" fill="transparent" vector-effect="non-scaling-stroke" stroke-width="3" stroke="rgb(116,116,116)" stroke-linejoin="miter" stroke-linecap="square" stroke-miterlimit="3"/><path d=" M -400 -300 L 400 -300 L 400 300 L -400 300 L -400 -300 L -400 -300 L -400 -300 Z  M 1.351 141.737 L 200 141.737 L 1.351 141.737 L 1.351 141.737 L 1.351 141.737 Z " fill-rule="evenodd" fill="none" vector-effect="non-scaling-stroke" stroke-width="3" stroke="rgb(116,116,116)" stroke-linejoin="miter" stroke-linecap="square" stroke-miterlimit="3"/><clipPath id="_clipPath_9fTSQAbRPrZzjp3EV4AklT6X8wha2xJE"><path d=" M -400 -300 L 400 -300 L 400 300 L -400 300 L -400 -300 L -400 -300 L -400 -300 Z  M 1.351 141.737 L 200 141.737 L 1.351 141.737 L 1.351 141.737 L 1.351 141.737 Z " fill-rule="evenodd" fill="none" vector-effect="non-scaling-stroke" stroke-width="3" stroke="rgb(116,116,116)" stroke-linejoin="miter" stroke-linecap="square" stroke-miterlimit="3"/></clipPath><g clip-path="url(#_clipPath_9fTSQAbRPrZzjp3EV4AklT6X8wha2xJE)"><g><g><clipPath id="_clipPath_AtOrLU0oIV4DHGWjkgSvfV2Vfg2uUKmJ"><path d=" M -400 -300 L 400 -300 L 400 300 L -400 300 L -400 -300 L -400 -300 Z  M 1.351 141.737 L 65.333 141.737 L 200 141.737 L 1.351 141.737 L 1.351 141.737 Z " fill-rule="evenodd" fill="rgb(255,255,255)"/></clipPath><g clip-path="url(#_clipPath_AtOrLU0oIV4DHGWjkgSvfV2Vfg2uUKmJ)"><g><clipPath id="_clipPath_s2PGTxhRUUc5RZERrEe01aiGF5uCGsKz"><path d=" M -400 -300 L 400 -300 L 400 300 L -400 300 L -400 -300 Z  M 1.351 141.737 L 65.333 141.737 L 200 141.737 L 1.351 141.737 Z " fill-rule="evenodd" fill="rgb(255,255,255)"/></clipPath><g clip-path="url(#_clipPath_s2PGTxhRUUc5RZERrEe01aiGF5uCGsKz)"><mask id="_mask_UBjQSZi9NQHYC5r7KkhHDwWFivBWazTE" x="-200%" y="-200%" width="400%" height="400%"><rect x="-200%" y="-200%" width="400%" height="400%" style="fill:white;"/><path d=" M 1.351 141.737 L 65.333 141.737 L 200 141.737" fill="black" stroke="none"/></mask><path d=" M 1.351 141.737 L 65.333 141.737 L 200 141.737" fill="rgb(116,116,116)" mask="url(#_mask_UBjQSZi9NQHYC5r7KkhHDwWFivBWazTE)" vector-effect="non-scaling-stroke" stroke-width="4" stroke="rgb(116,116,116)" stroke-opacity="1000000" stroke-linejoin="miter" stroke-linecap="butt" stroke-miterlimit="4"/><path d=" M 1.351 141.737 L 65.333 141.737 L 200 141.737" fill="rgb(116,116,116)"/></g><path d=" M 1.351 141.737 L 65.333 141.737 L 200 141.737" fill="rgb(116,116,116)"/></g></g><path d=" M 1.351 141.737 L 65.333 141.737 L 200 141.737" fill="rgb(116,116,116)"/></g></g></g><path d=" M -400 -300 L 400 -300 L 400 300 L -400 300 L -400 -300 L -400 -300 L -400 -300 Z  M 1.351 141.737 L 200 141.737 L 1.351 141.737 L 1.351 141.737 L 1.351 141.737 Z " fill-rule="evenodd" fill="transparent" vector-effect="non-scaling-stroke" stroke-width="3" stroke="rgb(116,116,116)" stroke-linejoin="miter" stroke-linecap="square" stroke-miterlimit="3"/><path d=" M -400 -300 L 400 -300 L 400 300 L -400 300 L -400 -300 L -400 -300 L -400 -300 Z  M 53.4 145.258 L 69.194 145.258 L 53.4 145.258 L 53.4 145.258 L 53.4 145.258 Z " fill-rule="evenodd" fill="none" vector-effect="non-scaling-stroke" stroke-width="3" stroke="rgb(116,116,116)" stroke-linejoin="miter" stroke-linecap="square" stroke-miterlimit="3"/><clipPath id="_clipPath_Ex448S2m8ZntzCIdw9UIb3flODr9S0NJ"><path d=" M -400 -300 L 400 -300 L 400 300 L -400 300 L -400 -300 L -400 -300 L -400 -300 Z  M 53.4 145.258 L 69.194 145.258 L 53.4 145.258 L 53.4 145.258 L 53.4 145.258 Z " fill-rule="evenodd" fill="none" vector-effect="non-scaling-stroke" stroke-width="3" stroke="rgb(116,116,116)" stroke-linejoin="miter" stroke-linecap="square" stroke-miterlimit="3"/></clipPath><g clip-path="url(#_clipPath_Ex448S2m8ZntzCIdw9UIb3flODr9S0NJ)"><g><g><clipPath id="_clipPath_rcCBaiHNmkwci7dUzTU8jssLOvcbXGqj"><path d=" M -400 -300 L 400 -300 L 400 300 L -400 300 L -400 -300 L -400 -300 Z  M 53.4 145.258 L 69.194 145.258 L 53.4 145.258 L 53.4 145.258 Z " fill-rule="evenodd" fill="rgb(255,255,255)"/></clipPath><g clip-path="url(#_clipPath_rcCBaiHNmkwci7dUzTU8jssLOvcbXGqj)"><g><clipPath id="_clipPath_TxxlPRL6YlHu0F3tMGX20jZw6slHQ3xg"><path d=" M -400 -300 L 400 -300 L 400 300 L -400 300 L -400 -300 Z  M 53.4 145.258 L 69.194 145.258 L 53.4 145.258 Z " fill-rule="evenodd" fill="rgb(255,255,255)"/></clipPath><g clip-path="url(#_clipPath_TxxlPRL6YlHu0F3tMGX20jZw6slHQ3xg)"><mask id="_mask_YyPlHdSyX6dycdjnvDPNSPGmHdDPEd0u" x="-200%" y="-200%" width="400%" height="400%"><rect x="-200%" y="-200%" width="400%" height="400%" style="fill:white;"/><line x1="53.4" y1="145.258" x2="69.194" y2="145.258" fill="black" stroke="none"/></mask><line x1="53.4" y1="145.258" x2="69.194" y2="145.258" mask="url(#_mask_YyPlHdSyX6dycdjnvDPNSPGmHdDPEd0u)" vector-effect="non-scaling-stroke" stroke-width="4" stroke="rgb(116,116,116)" stroke-opacity="1000000" stroke-linejoin="miter" stroke-linecap="butt" stroke-miterlimit="4"/></g></g></g></g></g></g><path d=" M -400 -300 L 400 -300 L 400 300 L -400 300 L -400 -300 L -400 -300 L -400 -300 Z  M 53.4 145.258 L 69.194 145.258 L 53.4 145.258 L 53.4 145.258 L 53.4 145.258 Z " fill-rule="evenodd" fill="transparent" vector-effect="non-scaling-stroke" stroke-width="3" stroke="rgb(116,116,116)" stroke-linejoin="miter" stroke-linecap="square" stroke-miterlimit="3"/><path d=" M -400 -300 L 400 -300 L 400 300 L -400 300 L -400 -300 L -400 -300 L -400 -300 Z  M 102.897 145.258 L 118.691 145.258 L 102.897 145.258 L 102.897 145.258 L 102.897 145.258 Z " fill-rule="evenodd" fill="none" vector-effect="non-scaling-stroke" stroke-width="3" stroke="rgb(116,116,116)" stroke-linejoin="miter" stroke-linecap="square" stroke-miterlimit="3"/><clipPath id="_clipPath_vwADVK6PrjBf9wDbIPNm9z62VHY2RqDm"><path d=" M -400 -300 L 400 -300 L 400 300 L -400 300 L -400 -300 L -400 -300 L -400 -300 Z  M 102.897 145.258 L 118.691 145.258 L 102.897 145.258 L 102.897 145.258 L 102.897 145.258 Z " fill-rule="evenodd" fill="none" vector-effect="non-scaling-stroke" stroke-width="3" stroke="rgb(116,116,116)" stroke-linejoin="miter" stroke-linecap="square" stroke-miterlimit="3"/></clipPath><g clip-path="url(#_clipPath_vwADVK6PrjBf9wDbIPNm9z62VHY2RqDm)"><g><g><clipPath id="_clipPath_bpLVA8C3JNuPACGfRhznZc5k7or1Siy1"><path d=" M -400 -300 L 400 -300 L 400 300 L -400 300 L -400 -300 L -400 -300 Z  M 102.897 145.258 L 118.691 145.258 L 102.897 145.258 L 102.897 145.258 Z " fill-rule="evenodd" fill="rgb(255,255,255)"/></clipPath><g clip-path="url(#_clipPath_bpLVA8C3JNuPACGfRhznZc5k7or1Siy1)"><g><clipPath id="_clipPath_y1lEWdiy4a6Qc87VEZn3S56m7NRstgId"><path d=" M -400 -300 L 400 -300 L 400 300 L -400 300 L -400 -300 Z  M 102.897 145.258 L 118.691 145.258 L 102.897 145.258 Z " fill-rule="evenodd" fill="rgb(255,255,255)"/></clipPath><g clip-path="url(#_clipPath_y1lEWdiy4a6Qc87VEZn3S56m7NRstgId)"><mask id="_mask_lFjX7GlfSVGjKoJfAOqcJCD9JRRqfmHd" x="-200%" y="-200%" width="400%" height="400%"><rect x="-200%" y="-200%" width="400%" height="400%" style="fill:white;"/><line x1="102.897" y1="145.258" x2="118.691" y2="145.258" fill="black" stroke="none"/></mask><line x1="102.897" y1="145.258" x2="118.691" y2="145.258" mask="url(#_mask_lFjX7GlfSVGjKoJfAOqcJCD9JRRqfmHd)" vector-effect="non-scaling-stroke" stroke-width="4" stroke="rgb(116,116,116)" stroke-opacity="1000000" stroke-linejoin="miter" stroke-linecap="butt" stroke-miterlimit="4"/></g></g></g></g></g></g><path d=" M -400 -300 L 400 -300 L 400 300 L -400 300 L -400 -300 L -400 -300 L -400 -300 Z  M 102.897 145.258 L 118.691 145.258 L 102.897 145.258 L 102.897 145.258 L 102.897 145.258 Z " fill-rule="evenodd" fill="transparent" vector-effect="non-scaling-stroke" stroke-width="3" stroke="rgb(116,116,116)" stroke-linejoin="miter" stroke-linecap="square" stroke-miterlimit="3"/></g></g></g></g></g></g></g><rect x="0" y="0" width="200" height="150" transform="matrix(1,0,0,1,0,0)" fill="transparent" vector-effect="non-scaling-stroke" stroke-width="3" stroke="rgb(0,0,0)" stroke-linejoin="miter" stroke-linecap="square" stroke-miterlimit="2"/></g></g><rect x="0" y="0" width="200" height="150" transform="matrix(1,0,0,1,0,0)" fill="transparent" vector-effect="non-scaling-stroke" stroke-width="3" stroke="rgb(0,0,0)" stroke-linejoin="miter" stroke-linecap="square" stroke-miterlimit="2"/></g></svg>