<?xml version="1.0" encoding="UTF-8" standalone="no"?><!-- Generator: Gravit.io --><svg xmlns="http://www.w3.org/2000/svg" xmlns:xlink="http://www.w3.org/1999/xlink" style="isolation:isolate" viewBox="0 0 200 150" width="200pt" height="150pt"><defs><clipPath id="_clipPath_Uv5wShXpeU3RrCxnQUUCsisGwH1GBQFd"><rect width="200" height="150"/></clipPath></defs><g clip-path="url(#_clipPath_Uv5wShXpeU3RrCxnQUUCsisGwH1GBQFd)"><clipPath id="_clipPath_Q6kf3HFMfnqvKgYmVfgZIeSvELmmRG44"><rect x="0" y="0" width="200" height="150" transform="matrix(1,0,0,1,0,0)" fill="rgb(255,255,255)"/></clipPath><g clip-path="url(#_clipPath_Q6kf3HFMfnqvKgYmVfgZIeSvELmmRG44)"><g><clipPath id="_clipPath_oeX0EIyXBw0AFguTmP66zhzW6UwncB9B"><path d=" M -400 -300 L 400 -300 L 400 300 L -400 300 L -400 -300 Z  M 0 1.116 L 200 1.116 L 0 1.116 Z " fill-rule="evenodd" fill="rgb(255,255,255)"/></clipPath><g clip-path="url(#_clipPath_oeX0EIyXBw0AFguTmP66zhzW6UwncB9B)"><line x1="0" y1="1.116" x2="200" y2="1.116"/><g style="isolation: isolate;"><mask id="_mask_qhaIQmc4YNJ5ZSRLKv7dCggkDZdvuqkR" x="-200%" y="-200%" width="400%" height="400%"><rect x="-200%" y="-200%" width="400%" height="400%" style="fill:white;"/><line x1="0" y1="1.116" x2="200" y2="1.116" fill="black" stroke="none"/></mask><line x1="0" y1="1.116" x2="200" y2="1.116" fill="none" mask="url(#_mask_qhaIQmc4YNJ5ZSRLKv7dCggkDZdvuqkR)" vector-effect="non-scaling-stroke" stroke-width="4" stroke="rgb(116,116,116)" stroke-opacity="100" stroke-linejoin="miter" stroke-linecap="butt" stroke-miterlimit="4"/><line x1="0" y1="1.116" x2="200" y2="1.116" fill="none" vector-effect="non-scaling-stroke" stroke-width="2" stroke="rgb(116,116,116)" stroke-linejoin="miter" stroke-linecap="square" stroke-miterlimit="3"/></g><line x1="0" y1="1.116" x2="200" y2="1.116" fill="none"/></g><clipPath id="_clipPath_b8sgtHplgEQkV1uFWlnhCs4Oei6KOyp8"><path d=" M -400 -300 L 400 -300 L 400 300 L -400 300 L -400 -300 Z  M 0 149 L 200 149 L 0 149 Z " fill-rule="evenodd" fill="rgb(255,255,255)"/></clipPath><g clip-path="url(#_clipPath_b8sgtHplgEQkV1uFWlnhCs4Oei6KOyp8)"><line x1="0" y1="149" x2="200" y2="149"/><g style="isolation: isolate;"><mask id="_mask_zTQe28zl4ZmVvvL73rLP8hkldcGCtMvr" x="-200%" y="-200%" width="400%" height="400%"><rect x="-200%" y="-200%" width="400%" height="400%" style="fill:white;"/><line x1="0" y1="149" x2="200" y2="149" fill="black" stroke="none"/></mask><line x1="0" y1="149" x2="200" y2="149" fill="none" mask="url(#_mask_zTQe28zl4ZmVvvL73rLP8hkldcGCtMvr)" vector-effect="non-scaling-stroke" stroke-width="4" stroke="rgb(116,116,116)" stroke-opacity="100" stroke-linejoin="miter" stroke-linecap="butt" stroke-miterlimit="4"/><line x1="0" y1="149" x2="200" y2="149" fill="none" vector-effect="non-scaling-stroke" stroke-width="2" stroke="rgb(116,116,116)" stroke-linejoin="miter" stroke-linecap="square" stroke-miterlimit="3"/></g><line x1="0" y1="149" x2="200" y2="149" fill="none"/></g><clipPath id="_clipPath_5do7oV9Bi08kSPtBk53Du7rPiLFsbjZn"><path d=" M -400 -300 L 400 -300 L 400 300 L -400 300 L -400 -300 Z  M 0.866 0 L 0.866 150 L 0.866 0 Z " fill-rule="evenodd" fill="rgb(255,255,255)"/></clipPath><g clip-path="url(#_clipPath_5do7oV9Bi08kSPtBk53Du7rPiLFsbjZn)"><line x1="0.866" y1="0" x2="0.866" y2="150"/><g style="isolation: isolate;"><mask id="_mask_jmYUzhfQm340iMoGXYgPK7Mf4uMw11ph" x="-200%" y="-200%" width="400%" height="400%"><rect x="-200%" y="-200%" width="400%" height="400%" style="fill:white;"/><line x1="0.866" y1="0" x2="0.866" y2="150" fill="black" stroke="none"/></mask><line x1="0.866" y1="0" x2="0.866" y2="150" fill="none" mask="url(#_mask_jmYUzhfQm340iMoGXYgPK7Mf4uMw11ph)" vector-effect="non-scaling-stroke" stroke-width="3.464" stroke="rgb(116,116,116)" stroke-opacity="100" stroke-linejoin="miter" stroke-linecap="butt" stroke-miterlimit="4"/><line x1="0.866" y1="0" x2="0.866" y2="150" fill="none" vector-effect="non-scaling-stroke" stroke-width="2" stroke="rgb(116,116,116)" stroke-linejoin="miter" stroke-linecap="square" stroke-miterlimit="3"/></g><line x1="0.866" y1="0" x2="0.866" y2="150" fill="none"/></g><clipPath id="_clipPath_MKkpv9HxLYnc0LB9DHwLVzGlz4n1IJ3I"><path d=" M -400 -300 L 400 -300 L 400 300 L -400 300 L -400 -300 Z  M 4.041 4.989 L 18.041 4.989 L 4.041 4.989 Z " fill-rule="evenodd" fill="rgb(255,255,255)"/></clipPath><g clip-path="url(#_clipPath_MKkpv9HxLYnc0LB9DHwLVzGlz4n1IJ3I)"><line x1="4.041" y1="4.989" x2="18.041" y2="4.989"/><g style="isolation: isolate;"><mask id="_mask_dEVKyic3x8MwDEj1k4krp6nWvddz5tGK" x="-200%" y="-200%" width="400%" height="400%"><rect x="-200%" y="-200%" width="400%" height="400%" style="fill:white;"/><line x1="4.041" y1="4.989" x2="18.041" y2="4.989" fill="black" stroke="none"/></mask><line x1="4.041" y1="4.989" x2="18.041" y2="4.989" fill="none" mask="url(#_mask_dEVKyic3x8MwDEj1k4krp6nWvddz5tGK)" vector-effect="non-scaling-stroke" stroke-width="4.32" stroke="rgb(116,116,116)" stroke-opacity="100" stroke-linejoin="miter" stroke-linecap="butt" stroke-miterlimit="4"/><line x1="4.041" y1="4.989" x2="18.041" y2="4.989" fill="none" vector-effect="non-scaling-stroke" stroke-width="2" stroke="rgb(116,116,116)" stroke-linejoin="miter" stroke-linecap="square" stroke-miterlimit="3"/></g><line x1="4.041" y1="4.989" x2="18.041" y2="4.989" fill="none"/></g><clipPath id="_clipPath_atlaMVxwyR590d2NcJS48Hos9HppGqor"><path d=" M -400 -300 L 400 -300 L 400 300 L -400 300 L -400 -300 Z  M 199.134 0 L 199.134 150 L 199.134 0 Z " fill-rule="evenodd" fill="rgb(255,255,255)"/></clipPath><g clip-path="url(#_clipPath_atlaMVxwyR590d2NcJS48Hos9HppGqor)"><line x1="199.134" y1="0" x2="199.134" y2="150"/><g style="isolation: isolate;"><mask id="_mask_UjKnVv33FjjunFGny6fZ3RPjDVEy6Fv8" x="-200%" y="-200%" width="400%" height="400%"><rect x="-200%" y="-200%" width="400%" height="400%" style="fill:white;"/><line x1="199.134" y1="0" x2="199.134" y2="150" fill="black" stroke="none"/></mask><line x1="199.134" y1="0" x2="199.134" y2="150" fill="none" mask="url(#_mask_UjKnVv33FjjunFGny6fZ3RPjDVEy6Fv8)" vector-effect="non-scaling-stroke" stroke-width="3.464" stroke="rgb(116,116,116)" stroke-opacity="100" stroke-linejoin="miter" stroke-linecap="butt" stroke-miterlimit="4"/><line x1="199.134" y1="0" x2="199.134" y2="150" fill="none" vector-effect="non-scaling-stroke" stroke-width="2" stroke="rgb(116,116,116)" stroke-linejoin="miter" stroke-linecap="square" stroke-miterlimit="3"/></g><line x1="199.134" y1="0" x2="199.134" y2="150" fill="none"/><text transform="matrix(1,0,0,1,-7,7.759)" style="font-family:'Open Sans';font-weight:400;font-size:20px;font-style:normal;fill:#000000;stroke:none;">1</text></g><clipPath id="_clipPath_F3O9V441AbIBdmpwps8RoQDvNiUuqcEw"><path d=" M -400 -300 L 400 -300 L 400 300 L -400 300 L -400 -300 Z  M 165.768 4.989 L 196.057 4.989 L 165.768 4.989 Z " fill-rule="evenodd" fill="rgb(255,255,255)"/></clipPath><g clip-path="url(#_clipPath_F3O9V441AbIBdmpwps8RoQDvNiUuqcEw)"><line x1="165.768" y1="4.989" x2="196.057" y2="4.989"/><g style="isolation: isolate;"><mask id="_mask_BCk70LnfOUk3VDnEJn0cInjx8YFe0SXO" x="-200%" y="-200%" width="400%" height="400%"><rect x="-200%" y="-200%" width="400%" height="400%" style="fill:white;"/><line x1="165.768" y1="4.989" x2="196.057" y2="4.989" fill="black" stroke="none"/></mask><line x1="165.768" y1="4.989" x2="196.057" y2="4.989" fill="none" mask="url(#_mask_BCk70LnfOUk3VDnEJn0cInjx8YFe0SXO)" vector-effect="non-scaling-stroke" stroke-width="4" stroke="rgb(116,116,116)" stroke-opacity="100" stroke-linejoin="miter" stroke-linecap="butt" stroke-miterlimit="4"/><line x1="165.768" y1="4.989" x2="196.057" y2="4.989" fill="none" vector-effect="non-scaling-stroke" stroke-width="2" stroke="rgb(116,116,116)" stroke-linejoin="miter" stroke-linecap="square" stroke-miterlimit="3"/></g><line x1="165.768" y1="4.989" x2="196.057" y2="4.989" fill="none"/></g><clipPath id="_clipPath_kKSker2q9zrqDJp9kaf0UuGN5KK7huZU"><path d=" M -400 -300 L 400 -300 L 400 300 L -400 300 L -400 -300 Z  M 94.702 4.989 L 105.166 4.989 L 94.702 4.989 Z " fill-rule="evenodd" fill="rgb(255,255,255)"/></clipPath><g clip-path="url(#_clipPath_kKSker2q9zrqDJp9kaf0UuGN5KK7huZU)"><line x1="94.702" y1="4.989" x2="105.166" y2="4.989"/><g style="isolation: isolate;"><mask id="_mask_360cBMAqsDc2FviHj31CmerRfTgJJVyP" x="-200%" y="-200%" width="400%" height="400%"><rect x="-200%" y="-200%" width="400%" height="400%" style="fill:white;"/><line x1="94.702" y1="4.989" x2="105.166" y2="4.989" fill="black" stroke="none"/></mask><line x1="94.702" y1="4.989" x2="105.166" y2="4.989" fill="none" mask="url(#_mask_360cBMAqsDc2FviHj31CmerRfTgJJVyP)" vector-effect="non-scaling-stroke" stroke-width="4" stroke="rgb(116,116,116)" stroke-opacity="100" stroke-linejoin="miter" stroke-linecap="butt" stroke-miterlimit="4"/><line x1="94.702" y1="4.989" x2="105.166" y2="4.989" fill="none" vector-effect="non-scaling-stroke" stroke-width="2" stroke="rgb(116,116,116)" stroke-linejoin="miter" stroke-linecap="square" stroke-miterlimit="3"/></g><line x1="94.702" y1="4.989" x2="105.166" y2="4.989" fill="none"/></g><clipPath id="_clipPath_GnaeWLNzxDap8sodBrWdIc5gaalB3gkc"><path d=" M -400 -300 L 400 -300 L 400 300 L -400 300 L -400 -300 Z  M 0 9.116 L 200 9.116 L 0 9.116 Z " fill-rule="evenodd" fill="rgb(255,255,255)"/></clipPath><g clip-path="url(#_clipPath_GnaeWLNzxDap8sodBrWdIc5gaalB3gkc)"><line x1="0" y1="9.116" x2="200" y2="9.116"/><g style="isolation: isolate;"><mask id="_mask_8A5A2tuuaExePZPww1NIPx3iQq45rKwo" x="-200%" y="-200%" width="400%" height="400%"><rect x="-200%" y="-200%" width="400%" height="400%" style="fill:white;"/><line x1="0" y1="9.116" x2="200" y2="9.116" fill="black" stroke="none"/></mask><line x1="0" y1="9.116" x2="200" y2="9.116" fill="none" mask="url(#_mask_8A5A2tuuaExePZPww1NIPx3iQq45rKwo)" vector-effect="non-scaling-stroke" stroke-width="4" stroke="rgb(116,116,116)" stroke-opacity="100" stroke-linejoin="miter" stroke-linecap="butt" stroke-miterlimit="4"/><line x1="0" y1="9.116" x2="200" y2="9.116" fill="none" vector-effect="non-scaling-stroke" stroke-width="2" stroke="rgb(116,116,116)" stroke-linejoin="miter" stroke-linecap="square" stroke-miterlimit="3"/></g><line x1="0" y1="9.116" x2="200" y2="9.116" fill="none"/></g><g><rect x="120.086" y="134.558" width="7.829" height="7.955" transform="matrix(-1,0,0,-1,248.001,277.071)" fill="rgb(116,116,116)"/><rect x="108.085" y="134.558" width="7.829" height="7.955" transform="matrix(-1,0,0,-1,223.999,277.071)" fill="rgb(116,116,116)"/><rect x="96.085" y="134.558" width="7.829" height="7.955" transform="matrix(-1,0,0,-1,199.999,277.071)" fill="rgb(116,116,116)"/><rect x="84.085" y="134.558" width="7.829" height="7.955" transform="matrix(-1,0,0,-1,175.999,277.071)" fill="rgb(116,116,116)"/><rect x="72.085" y="134.558" width="7.829" height="7.955" transform="matrix(-1,0,0,-1,151.999,277.071)" fill="rgb(116,116,116)"/></g><g><rect x="74.786" y="24.405" width="23.04" height="10.728" transform="matrix(1,0,0,1,0,0)" fill="none" vector-effect="non-scaling-stroke" stroke-width="2" stroke="rgb(116,116,116)" stroke-opacity="100" stroke-linejoin="miter" stroke-linecap="square" stroke-miterlimit="2"/><rect x="102.674" y="24.405" width="23.04" height="10.728" transform="matrix(1,0,0,1,0,0)" fill="none" vector-effect="non-scaling-stroke" stroke-width="1" stroke="rgb(116,116,116)" stroke-opacity="100" stroke-linejoin="miter" stroke-linecap="square" stroke-miterlimit="2"/></g><mask id="_mask_a693nfxgq4b44L69NQM2YM4v07OIcYGm" x="-200%" y="-200%" width="400%" height="400%"><rect x="-200%" y="-200%" width="400%" height="400%" style="fill:white;"/><path d=" M 87.058 13.984 L 112.942 13.984 C 114.487 13.984 115.74 15.238 115.74 16.782 L 115.74 16.899 C 115.74 18.444 114.487 19.697 112.942 19.697 L 87.058 19.697 C 85.513 19.697 84.26 18.444 84.26 16.899 L 84.26 16.782 C 84.26 15.238 85.513 13.984 87.058 13.984 Z " fill="black" stroke="none"/></mask><path d=" M 87.058 13.984 L 112.942 13.984 C 114.487 13.984 115.74 15.238 115.74 16.782 L 115.74 16.899 C 115.74 18.444 114.487 19.697 112.942 19.697 L 87.058 19.697 C 85.513 19.697 84.26 18.444 84.26 16.899 L 84.26 16.782 C 84.26 15.238 85.513 13.984 87.058 13.984 Z " fill="none" mask="url(#_mask_a693nfxgq4b44L69NQM2YM4v07OIcYGm)" vector-effect="non-scaling-stroke" stroke-width="2" stroke="rgb(116,116,116)" stroke-linejoin="miter" stroke-linecap="square" stroke-miterlimit="2"/><path d=" M 87.058 13.984 L 112.942 13.984 C 114.487 13.984 115.74 15.238 115.74 16.782 L 115.74 16.899 C 115.74 18.444 114.487 19.697 112.942 19.697 L 87.058 19.697 C 85.513 19.697 84.26 18.444 84.26 16.899 L 84.26 16.782 C 84.26 15.238 85.513 13.984 87.058 13.984 Z " fill="none"/><mask id="_mask_RPzzOv5n8wgVgwSXMpsjbQ37lGkNgi4S" x="-200%" y="-200%" width="400%" height="400%"><rect x="-200%" y="-200%" width="400%" height="400%" style="fill:white;"/><path d=" M 68.363 131.483 L 131.637 131.483 C 134.128 131.483 136.15 133.505 136.15 135.996 L 136.15 141.074 C 136.15 143.565 134.128 145.587 131.637 145.587 L 68.363 145.587 C 65.872 145.587 63.85 143.565 63.85 141.074 L 63.85 135.996 C 63.85 133.505 65.872 131.483 68.363 131.483 Z " fill="black" stroke="none"/></mask><path d=" M 68.363 131.483 L 131.637 131.483 C 134.128 131.483 136.15 133.505 136.15 135.996 L 136.15 141.074 C 136.15 143.565 134.128 145.587 131.637 145.587 L 68.363 145.587 C 65.872 145.587 63.85 143.565 63.85 141.074 L 63.85 135.996 C 63.85 133.505 65.872 131.483 68.363 131.483 Z " fill="none" mask="url(#_mask_RPzzOv5n8wgVgwSXMpsjbQ37lGkNgi4S)" vector-effect="non-scaling-stroke" stroke-width="2" stroke="rgb(116,116,116)" stroke-linejoin="miter" stroke-linecap="square" stroke-miterlimit="2"/><path d=" M 68.363 131.483 L 131.637 131.483 C 134.128 131.483 136.15 133.505 136.15 135.996 L 136.15 141.074 C 136.15 143.565 134.128 145.587 131.637 145.587 L 68.363 145.587 C 65.872 145.587 63.85 143.565 63.85 141.074 L 63.85 135.996 C 63.85 133.505 65.872 131.483 68.363 131.483 Z " fill="none"/><mask id="_mask_LgUvjHa6Ve8sJ0P8HBqVJmvdX8vPfFiP" x="-200%" y="-200%" width="400%" height="400%"><rect x="-200%" y="-200%" width="400%" height="400%" style="fill:white;"/><path d=" M 35.805 44.651 L 164.195 44.651 C 166.685 44.651 168.708 46.674 168.708 49.164 L 168.708 115.793 C 168.708 118.283 166.685 120.306 164.195 120.306 L 35.805 120.306 C 33.315 120.306 31.293 118.283 31.293 115.793 L 31.293 49.164 C 31.293 46.674 33.315 44.651 35.805 44.651 Z " fill="black" stroke="none"/></mask><path d=" M 35.805 44.651 L 164.195 44.651 C 166.685 44.651 168.708 46.674 168.708 49.164 L 168.708 115.793 C 168.708 118.283 166.685 120.306 164.195 120.306 L 35.805 120.306 C 33.315 120.306 31.293 118.283 31.293 115.793 L 31.293 49.164 C 31.293 46.674 33.315 44.651 35.805 44.651 Z " fill="none" mask="url(#_mask_LgUvjHa6Ve8sJ0P8HBqVJmvdX8vPfFiP)" vector-effect="non-scaling-stroke" stroke-width="2" stroke="rgb(116,116,116)" stroke-linejoin="miter" stroke-linecap="square" stroke-miterlimit="2"/><path d=" M 35.805 44.651 L 164.195 44.651 C 166.685 44.651 168.708 46.674 168.708 49.164 L 168.708 115.793 C 168.708 118.283 166.685 120.306 164.195 120.306 L 35.805 120.306 C 33.315 120.306 31.293 118.283 31.293 115.793 L 31.293 49.164 C 31.293 46.674 33.315 44.651 35.805 44.651 Z " fill="none"/><clipPath id="_clipPath_wW51dUEwlgtG9mx5Ka0SRfFESLmkEWWp"><path d=" M -400 -300 L 400 -300 L 400 300 L -400 300 L -400 -300 Z  M 199.5 113.348 L 186.07 113.348 C 183.898 113.348 182.149 111.599 182.149 109.427 L 182.149 51.531 C 182.149 49.358 183.898 47.609 186.07 47.609 L 199.5 47.609 L 199.5 113.348 Z " fill-rule="evenodd" fill="rgb(255,255,255)"/></clipPath><g clip-path="url(#_clipPath_wW51dUEwlgtG9mx5Ka0SRfFESLmkEWWp)"><mask id="_mask_EFnDRjKylXOqCnUCuCdWmUc3xJl5r2ql" x="-200%" y="-200%" width="400%" height="400%"><rect x="-200%" y="-200%" width="400%" height="400%" style="fill:white;"/><path d=" M 199.5 113.348 L 186.07 113.348 C 183.898 113.348 182.149 111.599 182.149 109.427 L 182.149 51.531 C 182.149 49.358 183.898 47.609 186.07 47.609 L 199.5 47.609" fill="black" stroke="none"/></mask><path d=" M 199.5 113.348 L 186.07 113.348 C 183.898 113.348 182.149 111.599 182.149 109.427 L 182.149 51.531 C 182.149 49.358 183.898 47.609 186.07 47.609 L 199.5 47.609" fill="none" mask="url(#_mask_EFnDRjKylXOqCnUCuCdWmUc3xJl5r2ql)" vector-effect="non-scaling-stroke" stroke-width="2" stroke="rgb(116,116,116)" stroke-opacity="100" stroke-linejoin="miter" stroke-linecap="square" stroke-miterlimit="4"/><path d=" M 199.5 113.348 L 186.07 113.348 C 183.898 113.348 182.149 111.599 182.149 109.427 L 182.149 51.531 C 182.149 49.358 183.898 47.609 186.07 47.609 L 199.5 47.609" fill="none"/></g><path d=" M 199.5 113.348 L 186.07 113.348 C 183.898 113.348 182.149 111.599 182.149 109.427 L 182.149 51.531 C 182.149 49.358 183.898 47.609 186.07 47.609 L 199.5 47.609" fill="none"/><clipPath id="_clipPath_C8oX01tXmJdAx3mQGKX9ieuJoiRPwWGC"><path d=" M -400 -300 L 400 -300 L 400 300 L -400 300 L -400 -300 Z  M 0.5 113.348 L 13.93 113.348 C 16.102 113.348 17.851 111.599 17.851 109.427 L 17.851 51.531 C 17.851 49.358 16.102 47.609 13.93 47.609 L 0.5 47.609 L 0.5 113.348 Z " fill-rule="evenodd" fill="rgb(255,255,255)"/></clipPath><g clip-path="url(#_clipPath_C8oX01tXmJdAx3mQGKX9ieuJoiRPwWGC)"><mask id="_mask_tYv8dLuKus6lIrhmSWZzkdvc0aSISXzC" x="-200%" y="-200%" width="400%" height="400%"><rect x="-200%" y="-200%" width="400%" height="400%" style="fill:white;"/><path d=" M 0.5 113.348 L 13.93 113.348 C 16.102 113.348 17.851 111.599 17.851 109.427 L 17.851 51.531 C 17.851 49.358 16.102 47.609 13.93 47.609 L 0.5 47.609" fill="black" stroke="none"/></mask><path d=" M 0.5 113.348 L 13.93 113.348 C 16.102 113.348 17.851 111.599 17.851 109.427 L 17.851 51.531 C 17.851 49.358 16.102 47.609 13.93 47.609 L 0.5 47.609" fill="none" mask="url(#_mask_tYv8dLuKus6lIrhmSWZzkdvc0aSISXzC)" vector-effect="non-scaling-stroke" stroke-width="2" stroke="rgb(116,116,116)" stroke-opacity="100" stroke-linejoin="miter" stroke-linecap="square" stroke-miterlimit="4"/><path d=" M 0.5 113.348 L 13.93 113.348 C 16.102 113.348 17.851 111.599 17.851 109.427 L 17.851 51.531 C 17.851 49.358 16.102 47.609 13.93 47.609 L 0.5 47.609" fill="none"/></g><path d=" M 0.5 113.348 L 13.93 113.348 C 16.102 113.348 17.851 111.599 17.851 109.427 L 17.851 51.531 C 17.851 49.358 16.102 47.609 13.93 47.609 L 0.5 47.609" fill="none"/></g></g></g></svg>