<?xml version="1.0" encoding="UTF-8" standalone="no"?><!-- Generator: Gravit.io --><svg xmlns="http://www.w3.org/2000/svg" xmlns:xlink="http://www.w3.org/1999/xlink" style="isolation:isolate" viewBox="0 0 200 150" width="200pt" height="150pt"><defs><clipPath id="_clipPath_stDR1617poshRxrFakm5CCpJbnIlTRLW"><rect width="200" height="150"/></clipPath></defs><g clip-path="url(#_clipPath_stDR1617poshRxrFakm5CCpJbnIlTRLW)"><clipPath id="_clipPath_1yfqcxp1yRrPjOR9lkRETpV18iC1fxSo"><rect x="0" y="0" width="200" height="150" transform="matrix(1,0,0,1,0,0)" fill="rgb(255,255,255)"/></clipPath><g clip-path="url(#_clipPath_1yfqcxp1yRrPjOR9lkRETpV18iC1fxSo)"><g><path d=" M -400 -300 L 400 -300 L 400 300 L -400 300 L -400 -300 Z  M 0 1.116 L 200 1.116 L 0 1.116 Z " fill-rule="evenodd" fill="none" vector-effect="non-scaling-stroke" stroke-width="3" stroke="rgb(116,116,116)" stroke-linejoin="miter" stroke-linecap="square" stroke-miterlimit="3"/><clipPath id="_clipPath_AAJEAwJkHxoRokL2pmlr0kA9cRJwOCpV"><path d=" M -400 -300 L 400 -300 L 400 300 L -400 300 L -400 -300 Z  M 0 1.116 L 200 1.116 L 0 1.116 Z " fill-rule="evenodd" fill="none" vector-effect="non-scaling-stroke" stroke-width="3" stroke="rgb(116,116,116)" stroke-linejoin="miter" stroke-linecap="square" stroke-miterlimit="3"/></clipPath><g clip-path="url(#_clipPath_AAJEAwJkHxoRokL2pmlr0kA9cRJwOCpV)"><mask id="_mask_rLs9gWE06ReBaLGSPPrvJWhzmFDGO6D9" x="-200%" y="-200%" width="400%" height="400%"><rect x="-200%" y="-200%" width="400%" height="400%" style="fill:white;"/><line x1="0" y1="1.116" x2="200" y2="1.116" fill="black" stroke="none"/></mask><line x1="0" y1="1.116" x2="200" y2="1.116" mask="url(#_mask_rLs9gWE06ReBaLGSPPrvJWhzmFDGO6D9)" vector-effect="non-scaling-stroke" stroke-width="4" stroke="rgb(116,116,116)" stroke-opacity="100" stroke-linejoin="miter" stroke-linecap="butt" stroke-miterlimit="4"/></g><path d=" M -400 -300 L 400 -300 L 400 300 L -400 300 L -400 -300 Z  M 0 1.116 L 200 1.116 L 0 1.116 Z " fill-rule="evenodd" fill="transparent" vector-effect="non-scaling-stroke" stroke-width="3" stroke="rgb(116,116,116)" stroke-linejoin="miter" stroke-linecap="square" stroke-miterlimit="3"/><path d=" M -400 -300 L 400 -300 L 400 300 L -400 300 L -400 -300 Z  M 0 149 L 200 149 L 0 149 Z " fill-rule="evenodd" fill="none" vector-effect="non-scaling-stroke" stroke-width="3" stroke="rgb(116,116,116)" stroke-linejoin="miter" stroke-linecap="square" stroke-miterlimit="3"/><clipPath id="_clipPath_bHqqAUJhXZDDHCk9mSOU79CCZ0csCddn"><path d=" M -400 -300 L 400 -300 L 400 300 L -400 300 L -400 -300 Z  M 0 149 L 200 149 L 0 149 Z " fill-rule="evenodd" fill="none" vector-effect="non-scaling-stroke" stroke-width="3" stroke="rgb(116,116,116)" stroke-linejoin="miter" stroke-linecap="square" stroke-miterlimit="3"/></clipPath><g clip-path="url(#_clipPath_bHqqAUJhXZDDHCk9mSOU79CCZ0csCddn)"><mask id="_mask_AQvSKJpmkRsMVExN9Ni481WA4zU8LM4U" x="-200%" y="-200%" width="400%" height="400%"><rect x="-200%" y="-200%" width="400%" height="400%" style="fill:white;"/><line x1="0" y1="149" x2="200" y2="149" fill="black" stroke="none"/></mask><line x1="0" y1="149" x2="200" y2="149" mask="url(#_mask_AQvSKJpmkRsMVExN9Ni481WA4zU8LM4U)" vector-effect="non-scaling-stroke" stroke-width="4" stroke="rgb(116,116,116)" stroke-opacity="100" stroke-linejoin="miter" stroke-linecap="butt" stroke-miterlimit="4"/></g><path d=" M -400 -300 L 400 -300 L 400 300 L -400 300 L -400 -300 Z  M 0 149 L 200 149 L 0 149 Z " fill-rule="evenodd" fill="transparent" vector-effect="non-scaling-stroke" stroke-width="3" stroke="rgb(116,116,116)" stroke-linejoin="miter" stroke-linecap="square" stroke-miterlimit="3"/><path d=" M -400 -300 L 400 -300 L 400 300 L -400 300 L -400 -300 Z  M 0.866 0 L 0.866 150 L 0.866 0 Z " fill-rule="evenodd" fill="none" vector-effect="non-scaling-stroke" stroke-width="3" stroke="rgb(116,116,116)" stroke-linejoin="miter" stroke-linecap="square" stroke-miterlimit="3"/><clipPath id="_clipPath_44Blr09K1ikOALnKeqHPGEIIIjhtfhEx"><path d=" M -400 -300 L 400 -300 L 400 300 L -400 300 L -400 -300 Z  M 0.866 0 L 0.866 150 L 0.866 0 Z " fill-rule="evenodd" fill="none" vector-effect="non-scaling-stroke" stroke-width="3" stroke="rgb(116,116,116)" stroke-linejoin="miter" stroke-linecap="square" stroke-miterlimit="3"/></clipPath><g clip-path="url(#_clipPath_44Blr09K1ikOALnKeqHPGEIIIjhtfhEx)"><mask id="_mask_pzVuW0kq2dyC7PnfpRbwY7BhT4LKbCIu" x="-200%" y="-200%" width="400%" height="400%"><rect x="-200%" y="-200%" width="400%" height="400%" style="fill:white;"/><line x1="0.866" y1="0" x2="0.866" y2="150" fill="black" stroke="none"/></mask><line x1="0.866" y1="0" x2="0.866" y2="150" mask="url(#_mask_pzVuW0kq2dyC7PnfpRbwY7BhT4LKbCIu)" vector-effect="non-scaling-stroke" stroke-width="4" stroke="rgb(116,116,116)" stroke-opacity="100" stroke-linejoin="miter" stroke-linecap="butt" stroke-miterlimit="4"/></g><path d=" M -400 -300 L 400 -300 L 400 300 L -400 300 L -400 -300 Z  M 0.866 0 L 0.866 150 L 0.866 0 Z " fill-rule="evenodd" fill="transparent" vector-effect="non-scaling-stroke" stroke-width="3" stroke="rgb(116,116,116)" stroke-linejoin="miter" stroke-linecap="square" stroke-miterlimit="3"/><path d=" M -400 -300 L 400 -300 L 400 300 L -400 300 L -400 -300 Z  M 13.359 4.989 L 27.359 4.989 L 13.359 4.989 Z " fill-rule="evenodd" fill="none" vector-effect="non-scaling-stroke" stroke-width="3" stroke="rgb(116,116,116)" stroke-linejoin="miter" stroke-linecap="square" stroke-miterlimit="3"/><clipPath id="_clipPath_KMWHmS2EVe1SfVPQgqtNF205e4Z3nMBd"><path d=" M -400 -300 L 400 -300 L 400 300 L -400 300 L -400 -300 Z  M 13.359 4.989 L 27.359 4.989 L 13.359 4.989 Z " fill-rule="evenodd" fill="none" vector-effect="non-scaling-stroke" stroke-width="3" stroke="rgb(116,116,116)" stroke-linejoin="miter" stroke-linecap="square" stroke-miterlimit="3"/></clipPath><g clip-path="url(#_clipPath_KMWHmS2EVe1SfVPQgqtNF205e4Z3nMBd)"><mask id="_mask_i4cSHlMFy7jYjg6OsUNNoxbKvNH3yft0" x="-200%" y="-200%" width="400%" height="400%"><rect x="-200%" y="-200%" width="400%" height="400%" style="fill:white;"/><line x1="13.359" y1="4.989" x2="27.359" y2="4.989" fill="black" stroke="none"/></mask><line x1="13.359" y1="4.989" x2="27.359" y2="4.989" mask="url(#_mask_i4cSHlMFy7jYjg6OsUNNoxbKvNH3yft0)" vector-effect="non-scaling-stroke" stroke-width="4.32" stroke="rgb(116,116,116)" stroke-opacity="100" stroke-linejoin="miter" stroke-linecap="butt" stroke-miterlimit="4"/></g><path d=" M -400 -300 L 400 -300 L 400 300 L -400 300 L -400 -300 Z  M 13.359 4.989 L 27.359 4.989 L 13.359 4.989 Z " fill-rule="evenodd" fill="transparent" vector-effect="non-scaling-stroke" stroke-width="3" stroke="rgb(116,116,116)" stroke-linejoin="miter" stroke-linecap="square" stroke-miterlimit="3"/><path d=" M -400 -300 L 400 -300 L 400 300 L -400 300 L -400 -300 Z  M 199.134 0 L 199.134 150 L 199.134 0 Z " fill-rule="evenodd" fill="none" vector-effect="non-scaling-stroke" stroke-width="3" stroke="rgb(116,116,116)" stroke-linejoin="miter" stroke-linecap="square" stroke-miterlimit="3"/><clipPath id="_clipPath_nWPkxCpltB1EA4TFCBZHcY21Z7ECrhfz"><path d=" M -400 -300 L 400 -300 L 400 300 L -400 300 L -400 -300 Z  M 199.134 0 L 199.134 150 L 199.134 0 Z " fill-rule="evenodd" fill="none" vector-effect="non-scaling-stroke" stroke-width="3" stroke="rgb(116,116,116)" stroke-linejoin="miter" stroke-linecap="square" stroke-miterlimit="3"/></clipPath><g clip-path="url(#_clipPath_nWPkxCpltB1EA4TFCBZHcY21Z7ECrhfz)"><mask id="_mask_DzEJjMXm51XnY4EI2mWsthEN3Lo5vucz" x="-200%" y="-200%" width="400%" height="400%"><rect x="-200%" y="-200%" width="400%" height="400%" style="fill:white;"/><line x1="199.134" y1="0" x2="199.134" y2="150" fill="black" stroke="none"/></mask><line x1="199.134" y1="0" x2="199.134" y2="150" mask="url(#_mask_DzEJjMXm51XnY4EI2mWsthEN3Lo5vucz)" vector-effect="non-scaling-stroke" stroke-width="4" stroke="rgb(116,116,116)" stroke-opacity="100" stroke-linejoin="miter" stroke-linecap="butt" stroke-miterlimit="4"/></g><path d=" M -400 -300 L 400 -300 L 400 300 L -400 300 L -400 -300 Z  M 199.134 0 L 199.134 150 L 199.134 0 Z " fill-rule="evenodd" fill="transparent" vector-effect="non-scaling-stroke" stroke-width="3" stroke="rgb(116,116,116)" stroke-linejoin="miter" stroke-linecap="square" stroke-miterlimit="3"/><path d=" M -400 -300 L 400 -300 L 400 300 L -400 300 L -400 -300 Z  M 165.768 4.989 L 196.057 4.989 L 165.768 4.989 Z " fill-rule="evenodd" fill="none" vector-effect="non-scaling-stroke" stroke-width="3" stroke="rgb(116,116,116)" stroke-linejoin="miter" stroke-linecap="square" stroke-miterlimit="3"/><clipPath id="_clipPath_e6YTeT1TuAbd8RxoqcLAWBcxwfeiNsFO"><path d=" M -400 -300 L 400 -300 L 400 300 L -400 300 L -400 -300 Z  M 165.768 4.989 L 196.057 4.989 L 165.768 4.989 Z " fill-rule="evenodd" fill="none" vector-effect="non-scaling-stroke" stroke-width="3" stroke="rgb(116,116,116)" stroke-linejoin="miter" stroke-linecap="square" stroke-miterlimit="3"/></clipPath><g clip-path="url(#_clipPath_e6YTeT1TuAbd8RxoqcLAWBcxwfeiNsFO)"><mask id="_mask_HHHjry3xit8SYg7cdyUQQyvqBxsuPAoB" x="-200%" y="-200%" width="400%" height="400%"><rect x="-200%" y="-200%" width="400%" height="400%" style="fill:white;"/><line x1="165.768" y1="4.989" x2="196.057" y2="4.989" fill="black" stroke="none"/></mask><line x1="165.768" y1="4.989" x2="196.057" y2="4.989" mask="url(#_mask_HHHjry3xit8SYg7cdyUQQyvqBxsuPAoB)" vector-effect="non-scaling-stroke" stroke-width="4" stroke="rgb(116,116,116)" stroke-opacity="100" stroke-linejoin="miter" stroke-linecap="butt" stroke-miterlimit="4"/></g><path d=" M -400 -300 L 400 -300 L 400 300 L -400 300 L -400 -300 Z  M 165.768 4.989 L 196.057 4.989 L 165.768 4.989 Z " fill-rule="evenodd" fill="transparent" vector-effect="non-scaling-stroke" stroke-width="3" stroke="rgb(116,116,116)" stroke-linejoin="miter" stroke-linecap="square" stroke-miterlimit="3"/><path d=" M -400 -300 L 400 -300 L 400 300 L -400 300 L -400 -300 Z  M 0 9.116 L 200 9.116 L 0 9.116 Z " fill-rule="evenodd" fill="none" vector-effect="non-scaling-stroke" stroke-width="3" stroke="rgb(116,116,116)" stroke-linejoin="miter" stroke-linecap="square" stroke-miterlimit="3"/><clipPath id="_clipPath_n47jv5mpenzHzVN1P2BhOXpA9bN6TrPT"><path d=" M -400 -300 L 400 -300 L 400 300 L -400 300 L -400 -300 Z  M 0 9.116 L 200 9.116 L 0 9.116 Z " fill-rule="evenodd" fill="none" vector-effect="non-scaling-stroke" stroke-width="3" stroke="rgb(116,116,116)" stroke-linejoin="miter" stroke-linecap="square" stroke-miterlimit="3"/></clipPath><g clip-path="url(#_clipPath_n47jv5mpenzHzVN1P2BhOXpA9bN6TrPT)"><mask id="_mask_lRMGAI529Istvw1D71PpoZg7rxXjiwIB" x="-200%" y="-200%" width="400%" height="400%"><rect x="-200%" y="-200%" width="400%" height="400%" style="fill:white;"/><line x1="0" y1="9.116" x2="200" y2="9.116" fill="black" stroke="none"/></mask><line x1="0" y1="9.116" x2="200" y2="9.116" mask="url(#_mask_lRMGAI529Istvw1D71PpoZg7rxXjiwIB)" vector-effect="non-scaling-stroke" stroke-width="4" stroke="rgb(116,116,116)" stroke-opacity="100" stroke-linejoin="miter" stroke-linecap="butt" stroke-miterlimit="4"/></g><path d=" M -400 -300 L 400 -300 L 400 300 L -400 300 L -400 -300 Z  M 0 9.116 L 200 9.116 L 0 9.116 Z " fill-rule="evenodd" fill="transparent" vector-effect="non-scaling-stroke" stroke-width="3" stroke="rgb(116,116,116)" stroke-linejoin="miter" stroke-linecap="square" stroke-miterlimit="3"/><rect x="4.833" y="51.956" width="6.031" height="6.128" transform="matrix(1,0,0,1,0,0)" fill="rgb(116,116,116)"/><rect x="4.833" y="42.712" width="6.031" height="6.128" transform="matrix(1,0,0,1,0,0)" fill="rgb(116,116,116)"/><rect x="4.833" y="33.467" width="6.031" height="6.128" transform="matrix(1,0,0,1,0,0)" fill="rgb(116,116,116)"/><rect x="4.833" y="24.223" width="6.031" height="6.128" transform="matrix(1,0,0,1,0,0)" fill="rgb(116,116,116)"/><rect x="3.727" y="12.619" width="8.242" height="8.375" transform="matrix(1,0,0,1,0,0)" fill="rgb(116,116,116)"/><path d=" M -400 -300 L 400 -300 L 400 300 L -400 300 L -400 -300 Z  M 14.903 9.375 L 14.903 150 L 14.903 9.375 Z " fill-rule="evenodd" fill="none" vector-effect="non-scaling-stroke" stroke-width="3" stroke="rgb(116,116,116)" stroke-linejoin="miter" stroke-linecap="square" stroke-miterlimit="3"/><clipPath id="_clipPath_dpFc1Gwm1IcIirQLhYXBKAnY116DHTTh"><path d=" M -400 -300 L 400 -300 L 400 300 L -400 300 L -400 -300 Z  M 14.903 9.375 L 14.903 150 L 14.903 9.375 Z " fill-rule="evenodd" fill="none" vector-effect="non-scaling-stroke" stroke-width="3" stroke="rgb(116,116,116)" stroke-linejoin="miter" stroke-linecap="square" stroke-miterlimit="3"/></clipPath><g clip-path="url(#_clipPath_dpFc1Gwm1IcIirQLhYXBKAnY116DHTTh)"><mask id="_mask_WWHCdo8M0CJjzDJhOWxYyZ1NOjFYGoon" x="-200%" y="-200%" width="400%" height="400%"><rect x="-200%" y="-200%" width="400%" height="400%" style="fill:white;"/><line x1="14.903" y1="9.375" x2="14.903" y2="150" fill="black" stroke="none"/></mask><line x1="14.903" y1="9.375" x2="14.903" y2="150" mask="url(#_mask_WWHCdo8M0CJjzDJhOWxYyZ1NOjFYGoon)" vector-effect="non-scaling-stroke" stroke-width="4" stroke="rgb(116,116,116)" stroke-opacity="100" stroke-linejoin="miter" stroke-linecap="butt" stroke-miterlimit="4"/></g><path d=" M -400 -300 L 400 -300 L 400 300 L -400 300 L -400 -300 Z  M 14.903 9.375 L 14.903 150 L 14.903 9.375 Z " fill-rule="evenodd" fill="transparent" vector-effect="non-scaling-stroke" stroke-width="3" stroke="rgb(116,116,116)" stroke-linejoin="miter" stroke-linecap="square" stroke-miterlimit="3"/><rect x="4.833" y="61.201" width="6.031" height="6.128" transform="matrix(1,0,0,1,0,0)" fill="rgb(116,116,116)"/><rect x="36.433" y="-3.391" width="36.011" height="71.065" transform="matrix(0,1,-1,0,86.58,-22.297)" fill="none" vector-effect="non-scaling-stroke" stroke-width="2" stroke="rgb(116,116,116)" stroke-opacity="100" stroke-linejoin="miter" stroke-linecap="square" stroke-miterlimit="2"/><rect x="72.204" y="25.391" width="4.333" height="4.403" transform="matrix(0,1,-1,0,101.963,-46.778)" fill="rgb(116,116,116)"/><rect x="64.204" y="25.391" width="4.333" height="4.403" transform="matrix(0,1,-1,0,93.963,-38.778)" fill="rgb(116,116,116)"/><rect x="56.204" y="25.391" width="4.333" height="4.403" transform="matrix(0,1,-1,0,85.963,-30.778)" fill="rgb(116,116,116)"/><rect x="48.204" y="25.391" width="4.333" height="4.403" transform="matrix(0,1,-1,0,77.963,-22.778)" fill="rgb(116,116,116)"/><rect x="40.204" y="25.391" width="4.333" height="4.403" transform="matrix(0,1,-1,0,69.963,-14.778)" fill="rgb(116,116,116)"/><rect x="32.204" y="25.391" width="4.333" height="4.403" transform="matrix(0,1,-1,0,61.963,-6.778)" fill="rgb(116,116,116)"/><path d=" M -400 -300 L 400 -300 L 400 300 L -400 300 L -400 -300 Z  M 24.58 18.75 L 54.869 18.75 L 24.58 18.75 Z " fill-rule="evenodd" fill="none" vector-effect="non-scaling-stroke" stroke-width="3" stroke="rgb(116,116,116)" stroke-linejoin="miter" stroke-linecap="square" stroke-miterlimit="3"/><clipPath id="_clipPath_rmqtdyTemYN7qGR3RJX4l8pcc3aJUpDc"><path d=" M -400 -300 L 400 -300 L 400 300 L -400 300 L -400 -300 Z  M 24.58 18.75 L 54.869 18.75 L 24.58 18.75 Z " fill-rule="evenodd" fill="none" vector-effect="non-scaling-stroke" stroke-width="3" stroke="rgb(116,116,116)" stroke-linejoin="miter" stroke-linecap="square" stroke-miterlimit="3"/></clipPath><g clip-path="url(#_clipPath_rmqtdyTemYN7qGR3RJX4l8pcc3aJUpDc)"><mask id="_mask_pAPtrJA96an3N1iNto9FeLX4eZ2ZZSBj" x="-200%" y="-200%" width="400%" height="400%"><rect x="-200%" y="-200%" width="400%" height="400%" style="fill:white;"/><line x1="24.58" y1="18.75" x2="54.869" y2="18.75" fill="black" stroke="none"/></mask><line x1="24.58" y1="18.75" x2="54.869" y2="18.75" mask="url(#_mask_pAPtrJA96an3N1iNto9FeLX4eZ2ZZSBj)" vector-effect="non-scaling-stroke" stroke-width="4" stroke="rgb(116,116,116)" stroke-opacity="100" stroke-linejoin="miter" stroke-linecap="butt" stroke-miterlimit="4"/></g><path d=" M -400 -300 L 400 -300 L 400 300 L -400 300 L -400 -300 Z  M 24.58 18.75 L 54.869 18.75 L 24.58 18.75 Z " fill-rule="evenodd" fill="transparent" vector-effect="non-scaling-stroke" stroke-width="3" stroke="rgb(116,116,116)" stroke-linejoin="miter" stroke-linecap="square" stroke-miterlimit="3"/><rect x="72.204" y="34.131" width="4.333" height="4.403" transform="matrix(0,1,-1,0,110.703,-38.038)" fill="rgb(116,116,116)"/><rect x="64.204" y="34.131" width="4.333" height="4.403" transform="matrix(0,1,-1,0,102.703,-30.038)" fill="rgb(116,116,116)"/><rect x="56.204" y="34.131" width="4.333" height="4.403" transform="matrix(0,1,-1,0,94.703,-22.038)" fill="rgb(116,116,116)"/><rect x="48.204" y="34.131" width="4.333" height="4.403" transform="matrix(0,1,-1,0,86.703,-14.038)" fill="rgb(116,116,116)"/><rect x="40.204" y="34.131" width="4.333" height="4.403" transform="matrix(0,1,-1,0,78.703,-6.038)" fill="rgb(116,116,116)"/><rect x="32.204" y="34.131" width="4.333" height="4.403" transform="matrix(0,1,-1,0,70.703,1.962)" fill="rgb(116,116,116)"/></g></g></g></svg>