<?xml version="1.0" encoding="UTF-8" standalone="no"?><!-- Generator: Gravit.io --><svg xmlns="http://www.w3.org/2000/svg" xmlns:xlink="http://www.w3.org/1999/xlink" style="isolation:isolate" viewBox="0 0 200 150" width="200pt" height="150pt"><defs><clipPath id="_clipPath_DiWGjNfGXGT7ZjG8Dd5U4oCeYxEm7hbA"><rect width="200" height="150"/></clipPath></defs><g clip-path="url(#_clipPath_DiWGjNfGXGT7ZjG8Dd5U4oCeYxEm7hbA)"><clipPath id="_clipPath_5xumxcQj9FCAj8gzzAj1N0012YXVWMnQ"><rect x="0" y="0" width="200" height="150" transform="matrix(1,0,0,1,0,0)" fill="rgb(255,255,255)"/></clipPath><g clip-path="url(#_clipPath_5xumxcQj9FCAj8gzzAj1N0012YXVWMnQ)"><g><clipPath id="_clipPath_5aursdJGNjU1XUs5HjiQ303FGe2LjQON"><rect x="0" y="0" width="200" height="150" transform="matrix(1,0,0,1,0,0)" fill="rgb(255,255,255)"/></clipPath><g clip-path="url(#_clipPath_5aursdJGNjU1XUs5HjiQ303FGe2LjQON)"><g><g><clipPath id="_clipPath_uq3D5G07nyfAULc87pjVu5Krym4Hdbu8"><rect x="0" y="0" width="200" height="150" transform="matrix(1,0,0,1,0,0)" fill="rgb(255,255,255)"/></clipPath><g clip-path="url(#_clipPath_uq3D5G07nyfAULc87pjVu5Krym4Hdbu8)"><g><g><g><clipPath id="_clipPath_AI1Yq0mcEypqNFFJgIZdH9ESa6E3Abob"><rect x="0" y="0" width="200" height="150" transform="matrix(1,0,0,1,0,0)" fill="rgb(255,255,255)"/></clipPath><g clip-path="url(#_clipPath_AI1Yq0mcEypqNFFJgIZdH9ESa6E3Abob)"><g><g><g><g><path d=" M -400 -300 L 400 -300 L 400 300 L -400 300 L -400 -300 L -400 -300 L -400 -300 Z  M 0 1.116 L 200 1.116 L 0 1.116 L 0 1.116 L 0 1.116 Z " fill-rule="evenodd" fill="none" vector-effect="non-scaling-stroke" stroke-width="3" stroke="rgb(116,116,116)" stroke-opacity="1000000" stroke-linejoin="miter" stroke-linecap="square" stroke-miterlimit="3"/><clipPath id="_clipPath_R4II2X03Xi0T8s8uClTc94L3Jaz4P3dl"><path d=" M -400 -300 L 400 -300 L 400 300 L -400 300 L -400 -300 L -400 -300 L -400 -300 Z  M 0 1.116 L 200 1.116 L 0 1.116 L 0 1.116 L 0 1.116 Z " fill-rule="evenodd" fill="rgb(255,255,255)"/></clipPath><g clip-path="url(#_clipPath_R4II2X03Xi0T8s8uClTc94L3Jaz4P3dl)"><g><g><g><clipPath id="_clipPath_XQyheRFTpFbeUUYNzFMW3jEC8bIv1XeC"><path d=" M -400 -300 L 400 -300 L 400 300 L -400 300 L -400 -300 L -400 -300 L -400 -300 Z  M 0 1.116 L 200 1.116 L 0 1.116 L 0 1.116 L 0 1.116 Z " fill-rule="evenodd" fill="rgb(255,255,255)"/></clipPath><g clip-path="url(#_clipPath_XQyheRFTpFbeUUYNzFMW3jEC8bIv1XeC)"><g><g><clipPath id="_clipPath_r2S04HcIW8WQq3N9F1dEuJkNwPIFccwy"><path d=" M -400 -300 L 400 -300 L 400 300 L -400 300 L -400 -300 L -400 -300 Z  M 0 1.116 L 200 1.116 L 0 1.116 L 0 1.116 Z " fill-rule="evenodd" fill="rgb(255,255,255)"/></clipPath><g clip-path="url(#_clipPath_r2S04HcIW8WQq3N9F1dEuJkNwPIFccwy)"><g><clipPath id="_clipPath_t323PnrrhPKDcApAXfnBrjqyu4B7IBtf"><path d=" M -400 -300 L 400 -300 L 400 300 L -400 300 L -400 -300 Z  M 0 1.116 L 200 1.116 L 0 1.116 Z " fill-rule="evenodd" fill="rgb(255,255,255)"/></clipPath><g clip-path="url(#_clipPath_t323PnrrhPKDcApAXfnBrjqyu4B7IBtf)"><mask id="_mask_N0NrPBLv9MOIsYPSXXCvzP4eqXuOg1DV" x="-200%" y="-200%" width="400%" height="400%"><rect x="-200%" y="-200%" width="400%" height="400%" style="fill:white;"/><line x1="0" y1="1.116" x2="200" y2="1.116" fill="black" stroke="none"/></mask><line x1="0" y1="1.116" x2="200" y2="1.116" mask="url(#_mask_N0NrPBLv9MOIsYPSXXCvzP4eqXuOg1DV)" vector-effect="non-scaling-stroke" stroke-width="4" stroke="rgb(116,116,116)" stroke-opacity="100000000" stroke-linejoin="miter" stroke-linecap="butt" stroke-miterlimit="4"/></g></g></g></g></g></g></g></g></g></g><path d=" M -400 -300 L 400 -300 L 400 300 L -400 300 L -400 -300 L -400 -300 L -400 -300 Z  M 0 1.116 L 200 1.116 L 0 1.116 L 0 1.116 L 0 1.116 Z " fill-rule="evenodd" fill="none" vector-effect="non-scaling-stroke" stroke-width="3" stroke="rgb(116,116,116)" stroke-opacity="1000000" stroke-linejoin="miter" stroke-linecap="square" stroke-miterlimit="3"/><path d=" M -400 -300 L 400 -300 L 400 300 L -400 300 L -400 -300 L -400 -300 L -400 -300 Z  M 0 149 L 200 149 L 0 149 L 0 149 L 0 149 Z " fill-rule="evenodd" fill="none" vector-effect="non-scaling-stroke" stroke-width="3" stroke="rgb(116,116,116)" stroke-opacity="1000000" stroke-linejoin="miter" stroke-linecap="square" stroke-miterlimit="3"/><clipPath id="_clipPath_lY9spSg3G5IVwQSZeYst6s22XncXXuld"><path d=" M -400 -300 L 400 -300 L 400 300 L -400 300 L -400 -300 L -400 -300 L -400 -300 Z  M 0 149 L 200 149 L 0 149 L 0 149 L 0 149 Z " fill-rule="evenodd" fill="rgb(255,255,255)"/></clipPath><g clip-path="url(#_clipPath_lY9spSg3G5IVwQSZeYst6s22XncXXuld)"><g><g><g><clipPath id="_clipPath_o6rnHHXYtKSnssFwQqYVaQR45vc13Keu"><path d=" M -400 -300 L 400 -300 L 400 300 L -400 300 L -400 -300 L -400 -300 L -400 -300 Z  M 0 149 L 200 149 L 0 149 L 0 149 L 0 149 Z " fill-rule="evenodd" fill="rgb(255,255,255)"/></clipPath><g clip-path="url(#_clipPath_o6rnHHXYtKSnssFwQqYVaQR45vc13Keu)"><g><g><clipPath id="_clipPath_mrwM0Qzf7lizuQgi2hjGGSHWUdi9CKMW"><path d=" M -400 -300 L 400 -300 L 400 300 L -400 300 L -400 -300 L -400 -300 Z  M 0 149 L 200 149 L 0 149 L 0 149 Z " fill-rule="evenodd" fill="rgb(255,255,255)"/></clipPath><g clip-path="url(#_clipPath_mrwM0Qzf7lizuQgi2hjGGSHWUdi9CKMW)"><g><clipPath id="_clipPath_x3l1kqDwQVFpyMPBXFO68sEe19WxIu7L"><path d=" M -400 -300 L 400 -300 L 400 300 L -400 300 L -400 -300 Z  M 0 149 L 200 149 L 0 149 Z " fill-rule="evenodd" fill="rgb(255,255,255)"/></clipPath><g clip-path="url(#_clipPath_x3l1kqDwQVFpyMPBXFO68sEe19WxIu7L)"><mask id="_mask_18xrDKTuMS8EX3V846PPmfod32K7h02g" x="-200%" y="-200%" width="400%" height="400%"><rect x="-200%" y="-200%" width="400%" height="400%" style="fill:white;"/><line x1="0" y1="149" x2="200" y2="149" fill="black" stroke="none"/></mask><line x1="0" y1="149" x2="200" y2="149" mask="url(#_mask_18xrDKTuMS8EX3V846PPmfod32K7h02g)" vector-effect="non-scaling-stroke" stroke-width="4" stroke="rgb(116,116,116)" stroke-opacity="100000000" stroke-linejoin="miter" stroke-linecap="butt" stroke-miterlimit="4"/></g></g></g></g></g></g></g></g></g></g><path d=" M -400 -300 L 400 -300 L 400 300 L -400 300 L -400 -300 L -400 -300 L -400 -300 Z  M 0 149 L 200 149 L 0 149 L 0 149 L 0 149 Z " fill-rule="evenodd" fill="none" vector-effect="non-scaling-stroke" stroke-width="3" stroke="rgb(116,116,116)" stroke-opacity="1000000" stroke-linejoin="miter" stroke-linecap="square" stroke-miterlimit="3"/><path d=" M -400 -300 L 400 -300 L 400 300 L -400 300 L -400 -300 L -400 -300 L -400 -300 Z  M 0.866 0 L 0.866 150 L 0.866 0 L 0.866 0 L 0.866 0 Z " fill-rule="evenodd" fill="none" vector-effect="non-scaling-stroke" stroke-width="3" stroke="rgb(116,116,116)" stroke-opacity="1000000" stroke-linejoin="miter" stroke-linecap="square" stroke-miterlimit="3"/><clipPath id="_clipPath_2tpeUVtUs0XWsA91Dxjt6bMQlkSLPpuz"><path d=" M -400 -300 L 400 -300 L 400 300 L -400 300 L -400 -300 L -400 -300 L -400 -300 Z  M 0.866 0 L 0.866 150 L 0.866 0 L 0.866 0 L 0.866 0 Z " fill-rule="evenodd" fill="rgb(255,255,255)"/></clipPath><g clip-path="url(#_clipPath_2tpeUVtUs0XWsA91Dxjt6bMQlkSLPpuz)"><g><g><g><clipPath id="_clipPath_QCoxSSZ0OGfgxrjb39kjVxIHkbvFWBcr"><path d=" M -400 -300 L 400 -300 L 400 300 L -400 300 L -400 -300 L -400 -300 L -400 -300 Z  M 0.866 0 L 0.866 150 L 0.866 0 L 0.866 0 L 0.866 0 Z " fill-rule="evenodd" fill="rgb(255,255,255)"/></clipPath><g clip-path="url(#_clipPath_QCoxSSZ0OGfgxrjb39kjVxIHkbvFWBcr)"><g><g><clipPath id="_clipPath_dqvWqYnUf6U04s8qVyrPsewjy7WLMuLM"><path d=" M -400 -300 L 400 -300 L 400 300 L -400 300 L -400 -300 L -400 -300 Z  M 0.866 0 L 0.866 150 L 0.866 0 L 0.866 0 Z " fill-rule="evenodd" fill="rgb(255,255,255)"/></clipPath><g clip-path="url(#_clipPath_dqvWqYnUf6U04s8qVyrPsewjy7WLMuLM)"><g><clipPath id="_clipPath_ZdYXPEbhHvRp2ZJb9gMpYw2Lmgvs7hkS"><path d=" M -400 -300 L 400 -300 L 400 300 L -400 300 L -400 -300 Z  M 0.866 0 L 0.866 150 L 0.866 0 Z " fill-rule="evenodd" fill="rgb(255,255,255)"/></clipPath><g clip-path="url(#_clipPath_ZdYXPEbhHvRp2ZJb9gMpYw2Lmgvs7hkS)"><mask id="_mask_SK3QKLjchKVaEs098nai6YsJyFx3d1mv" x="-200%" y="-200%" width="400%" height="400%"><rect x="-200%" y="-200%" width="400%" height="400%" style="fill:white;"/><line x1="0.866" y1="0" x2="0.866" y2="150" fill="black" stroke="none"/></mask><line x1="0.866" y1="0" x2="0.866" y2="150" mask="url(#_mask_SK3QKLjchKVaEs098nai6YsJyFx3d1mv)" vector-effect="non-scaling-stroke" stroke-width="3.464" stroke="rgb(116,116,116)" stroke-opacity="100000000" stroke-linejoin="miter" stroke-linecap="butt" stroke-miterlimit="4"/></g></g></g></g></g></g></g></g></g></g><path d=" M -400 -300 L 400 -300 L 400 300 L -400 300 L -400 -300 L -400 -300 L -400 -300 Z  M 0.866 0 L 0.866 150 L 0.866 0 L 0.866 0 L 0.866 0 Z " fill-rule="evenodd" fill="none" vector-effect="non-scaling-stroke" stroke-width="3" stroke="rgb(116,116,116)" stroke-opacity="1000000" stroke-linejoin="miter" stroke-linecap="square" stroke-miterlimit="3"/><path d=" M -400 -300 L 400 -300 L 400 300 L -400 300 L -400 -300 L -400 -300 L -400 -300 Z  M 199.134 0 L 199.134 150 L 199.134 0 L 199.134 0 L 199.134 0 Z " fill-rule="evenodd" fill="none" vector-effect="non-scaling-stroke" stroke-width="3" stroke="rgb(116,116,116)" stroke-opacity="1000000" stroke-linejoin="miter" stroke-linecap="square" stroke-miterlimit="3"/><clipPath id="_clipPath_B0TstzUaNze4CvRFsyWdPmTHwbB8KQZq"><path d=" M -400 -300 L 400 -300 L 400 300 L -400 300 L -400 -300 L -400 -300 L -400 -300 Z  M 199.134 0 L 199.134 150 L 199.134 0 L 199.134 0 L 199.134 0 Z " fill-rule="evenodd" fill="rgb(255,255,255)"/></clipPath><g clip-path="url(#_clipPath_B0TstzUaNze4CvRFsyWdPmTHwbB8KQZq)"><g><g><g><clipPath id="_clipPath_nyM1K27fOEBEOEkFLxEQKkQoq1QfRiYA"><path d=" M -400 -300 L 400 -300 L 400 300 L -400 300 L -400 -300 L -400 -300 L -400 -300 Z  M 199.134 0 L 199.134 150 L 199.134 0 L 199.134 0 L 199.134 0 Z " fill-rule="evenodd" fill="rgb(255,255,255)"/></clipPath><g clip-path="url(#_clipPath_nyM1K27fOEBEOEkFLxEQKkQoq1QfRiYA)"><g><g><clipPath id="_clipPath_Y72M1vwdTA0Swrg3BRQ7HDKS6pMiUEjH"><path d=" M -400 -300 L 400 -300 L 400 300 L -400 300 L -400 -300 L -400 -300 Z  M 199.134 0 L 199.134 150 L 199.134 0 L 199.134 0 Z " fill-rule="evenodd" fill="rgb(255,255,255)"/></clipPath><g clip-path="url(#_clipPath_Y72M1vwdTA0Swrg3BRQ7HDKS6pMiUEjH)"><g><clipPath id="_clipPath_9OtDBbGbubyql62KOqrYzjNTo2wRupGi"><path d=" M -400 -300 L 400 -300 L 400 300 L -400 300 L -400 -300 Z  M 199.134 0 L 199.134 150 L 199.134 0 Z " fill-rule="evenodd" fill="rgb(255,255,255)"/></clipPath><g clip-path="url(#_clipPath_9OtDBbGbubyql62KOqrYzjNTo2wRupGi)"><mask id="_mask_YoYYR5YhPBEMz3KyGM6IzP5nUYq98KTT" x="-200%" y="-200%" width="400%" height="400%"><rect x="-200%" y="-200%" width="400%" height="400%" style="fill:white;"/><line x1="199.134" y1="0" x2="199.134" y2="150" fill="black" stroke="none"/></mask><line x1="199.134" y1="0" x2="199.134" y2="150" mask="url(#_mask_YoYYR5YhPBEMz3KyGM6IzP5nUYq98KTT)" vector-effect="non-scaling-stroke" stroke-width="3.464" stroke="rgb(116,116,116)" stroke-opacity="100000000" stroke-linejoin="miter" stroke-linecap="butt" stroke-miterlimit="4"/></g></g></g></g></g></g></g></g></g></g><path d=" M -400 -300 L 400 -300 L 400 300 L -400 300 L -400 -300 L -400 -300 L -400 -300 Z  M 199.134 0 L 199.134 150 L 199.134 0 L 199.134 0 L 199.134 0 Z " fill-rule="evenodd" fill="none" vector-effect="non-scaling-stroke" stroke-width="3" stroke="rgb(116,116,116)" stroke-opacity="1000000" stroke-linejoin="miter" stroke-linecap="square" stroke-miterlimit="3"/><path d=" M -400 -300 L 400 -300 L 400 300 L -400 300 L -400 -300 L -400 -300 L -400 -300 Z  M 165.556 141.959 L 195.845 141.959 L 165.556 141.959 L 165.556 141.959 L 165.556 141.959 Z " fill-rule="evenodd" fill="none" vector-effect="non-scaling-stroke" stroke-width="3" stroke="rgb(116,116,116)" stroke-opacity="1000000" stroke-linejoin="miter" stroke-linecap="square" stroke-miterlimit="3"/><clipPath id="_clipPath_RamcRDTeT4hsXBPPDqSRDP1LDkl6Phla"><path d=" M -400 -300 L 400 -300 L 400 300 L -400 300 L -400 -300 L -400 -300 L -400 -300 Z  M 165.556 141.959 L 195.845 141.959 L 165.556 141.959 L 165.556 141.959 L 165.556 141.959 Z " fill-rule="evenodd" fill="rgb(255,255,255)"/></clipPath><g clip-path="url(#_clipPath_RamcRDTeT4hsXBPPDqSRDP1LDkl6Phla)"><g><g><g><clipPath id="_clipPath_Nb97Q4ec5qZJmFVUy17vPPpgXqFJyhIa"><path d=" M -400 -300 L 400 -300 L 400 300 L -400 300 L -400 -300 L -400 -300 L -400 -300 Z  M 165.556 141.959 L 195.845 141.959 L 165.556 141.959 L 165.556 141.959 L 165.556 141.959 Z " fill-rule="evenodd" fill="rgb(255,255,255)"/></clipPath><g clip-path="url(#_clipPath_Nb97Q4ec5qZJmFVUy17vPPpgXqFJyhIa)"><g><g><clipPath id="_clipPath_hiGH8hx8lVrLnSjIGiimKAAYo8k8eCWC"><path d=" M -400 -300 L 400 -300 L 400 300 L -400 300 L -400 -300 L -400 -300 Z  M 165.556 141.959 L 195.845 141.959 L 165.556 141.959 L 165.556 141.959 Z " fill-rule="evenodd" fill="rgb(255,255,255)"/></clipPath><g clip-path="url(#_clipPath_hiGH8hx8lVrLnSjIGiimKAAYo8k8eCWC)"><g><clipPath id="_clipPath_pW2G5isTwQWfZeQKc8gUXpZsfmQdoDAH"><path d=" M -400 -300 L 400 -300 L 400 300 L -400 300 L -400 -300 Z  M 165.556 141.959 L 195.845 141.959 L 165.556 141.959 Z " fill-rule="evenodd" fill="rgb(255,255,255)"/></clipPath><g clip-path="url(#_clipPath_pW2G5isTwQWfZeQKc8gUXpZsfmQdoDAH)"><mask id="_mask_eqpAlaqMOjgQsDLOJ46UtITDhVepNdW3" x="-200%" y="-200%" width="400%" height="400%"><rect x="-200%" y="-200%" width="400%" height="400%" style="fill:white;"/><line x1="165.556" y1="141.959" x2="195.845" y2="141.959" fill="black" stroke="none"/></mask><line x1="165.556" y1="141.959" x2="195.845" y2="141.959" mask="url(#_mask_eqpAlaqMOjgQsDLOJ46UtITDhVepNdW3)" vector-effect="non-scaling-stroke" stroke-width="4" stroke="rgb(116,116,116)" stroke-opacity="100000000" stroke-linejoin="miter" stroke-linecap="butt" stroke-miterlimit="4"/></g></g></g></g></g></g></g></g></g></g><path d=" M -400 -300 L 400 -300 L 400 300 L -400 300 L -400 -300 L -400 -300 L -400 -300 Z  M 165.556 141.959 L 195.845 141.959 L 165.556 141.959 L 165.556 141.959 L 165.556 141.959 Z " fill-rule="evenodd" fill="none" vector-effect="non-scaling-stroke" stroke-width="3" stroke="rgb(116,116,116)" stroke-opacity="1000000" stroke-linejoin="miter" stroke-linecap="square" stroke-miterlimit="3"/><rect x="79.552" y="134.199" width="15.647" height="15.9" transform="matrix(1,0,0,1,0,0)" fill="rgb(116,116,116)" vector-effect="non-scaling-stroke" stroke-width="1" stroke="rgb(116,116,116)" stroke-opacity="1000000" stroke-linejoin="miter" stroke-linecap="butt" stroke-miterlimit="2"/><g><rect x="100" y="140.022" width="4.187" height="4.254" transform="matrix(1,0,0,1,0,0)" fill="rgb(116,116,116)"/><rect x="107.31" y="140.022" width="4.187" height="4.254" transform="matrix(1,0,0,1,0,0)" fill="rgb(116,116,116)"/><rect x="84.638" y="140.022" width="4.187" height="4.254" transform="matrix(1,0,0,1,0,0)" fill="rgb(255,255,255)"/><rect x="114.591" y="140.022" width="4.187" height="4.254" transform="matrix(1,0,0,1,0,0)" fill="rgb(116,116,116)"/></g><path d=" M -400 -300 L 400 -300 L 400 300 L -400 300 L -400 -300 L -400 -300 L -400 -300 Z  M 0 135 L 200 135 L 0 135 L 0 135 L 0 135 Z " fill-rule="evenodd" fill="none" vector-effect="non-scaling-stroke" stroke-width="3" stroke="rgb(116,116,116)" stroke-opacity="1000000" stroke-linejoin="miter" stroke-linecap="square" stroke-miterlimit="3"/><clipPath id="_clipPath_0vngBToj1TRuFw5hd8MRucG0mUEMGEf4"><path d=" M -400 -300 L 400 -300 L 400 300 L -400 300 L -400 -300 L -400 -300 L -400 -300 Z  M 0 135 L 200 135 L 0 135 L 0 135 L 0 135 Z " fill-rule="evenodd" fill="rgb(255,255,255)"/></clipPath><g clip-path="url(#_clipPath_0vngBToj1TRuFw5hd8MRucG0mUEMGEf4)"><g><g><g><clipPath id="_clipPath_r0i7hd229FKDwScrpWjMGLP3aSL4Uj30"><path d=" M -400 -300 L 400 -300 L 400 300 L -400 300 L -400 -300 L -400 -300 L -400 -300 Z  M 0 135 L 200 135 L 0 135 L 0 135 L 0 135 Z " fill-rule="evenodd" fill="rgb(255,255,255)"/></clipPath><g clip-path="url(#_clipPath_r0i7hd229FKDwScrpWjMGLP3aSL4Uj30)"><g><g><clipPath id="_clipPath_9fcPvf0XF1VZUU4B5O5D7Ohy34sOpmLY"><path d=" M -400 -300 L 400 -300 L 400 300 L -400 300 L -400 -300 L -400 -300 Z  M 0 135 L 200 135 L 0 135 L 0 135 Z " fill-rule="evenodd" fill="rgb(255,255,255)"/></clipPath><g clip-path="url(#_clipPath_9fcPvf0XF1VZUU4B5O5D7Ohy34sOpmLY)"><g><clipPath id="_clipPath_txoNLmG986ctj9LJvrcnZVqGjaHAKWEI"><path d=" M -400 -300 L 400 -300 L 400 300 L -400 300 L -400 -300 Z  M 0 135 L 200 135 L 0 135 Z " fill-rule="evenodd" fill="rgb(255,255,255)"/></clipPath><g clip-path="url(#_clipPath_txoNLmG986ctj9LJvrcnZVqGjaHAKWEI)"><mask id="_mask_JQ2rwz4C6vcFpUuz0rKQZUSbsPe0unXh" x="-200%" y="-200%" width="400%" height="400%"><rect x="-200%" y="-200%" width="400%" height="400%" style="fill:white;"/><line x1="0" y1="135" x2="200" y2="135" fill="black" stroke="none"/></mask><line x1="0" y1="135" x2="200" y2="135" mask="url(#_mask_JQ2rwz4C6vcFpUuz0rKQZUSbsPe0unXh)" vector-effect="non-scaling-stroke" stroke-width="4" stroke="rgb(116,116,116)" stroke-opacity="100000000" stroke-linejoin="miter" stroke-linecap="butt" stroke-miterlimit="4"/></g></g></g></g></g></g></g></g></g></g><path d=" M -400 -300 L 400 -300 L 400 300 L -400 300 L -400 -300 L -400 -300 L -400 -300 Z  M 0 135 L 200 135 L 0 135 L 0 135 L 0 135 Z " fill-rule="evenodd" fill="none" vector-effect="non-scaling-stroke" stroke-width="3" stroke="rgb(116,116,116)" stroke-opacity="1000000" stroke-linejoin="miter" stroke-linecap="square" stroke-miterlimit="3"/><rect x="70.061" y="60.698" width="59.879" height="70.621" transform="matrix(1,0,0,1,0,0)" fill="none" vector-effect="non-scaling-stroke" stroke-width="2" stroke="rgb(116,116,116)" stroke-opacity="100000000" stroke-linejoin="miter" stroke-linecap="square" stroke-miterlimit="2"/><clipPath id="_clipPath_7JfUt8Qyg3S8navtIpTZeLdvBSeUigPm"><path d=" M -363.25 -289.25 L 436.75 -289.25 L 436.75 310.75 L -363.25 310.75 L -363.25 -289.25 L -363.25 -289.25 L -363.25 -289.25 Z  M 79.902 76.96 L 90.367 76.96 L 79.902 76.96 L 79.902 76.96 L 79.902 76.96 Z " fill-rule="evenodd" fill="rgb(255,255,255)"/></clipPath><g clip-path="url(#_clipPath_7JfUt8Qyg3S8navtIpTZeLdvBSeUigPm)"><g><g><g><path d=" M -363.25 -289.25 L 436.75 -289.25 L 436.75 310.75 L -363.25 310.75 L -363.25 -289.25 L -363.25 -289.25 L -363.25 -289.25 Z  M 79.902 76.96 L 90.367 76.96 L 79.902 76.96 L 79.902 76.96 L 79.902 76.96 Z " fill-rule="evenodd" fill="none"/></g></g></g></g><clipPath id="_clipPath_0KtLTiM6CbCjyFxKHFaYsFJY66PqgvBL"><path d=" M -400 -300 L 400 -300 L 400 300 L -400 300 L -400 -300 L -400 -300 L -400 -300 Z  M 13.269 98.21 L 22.741 98.21 L 13.269 98.21 L 13.269 98.21 L 13.269 98.21 Z " fill-rule="evenodd" fill="rgb(255,255,255)"/></clipPath><g clip-path="url(#_clipPath_0KtLTiM6CbCjyFxKHFaYsFJY66PqgvBL)"><g><g><g><path d=" M -400 -300 L 400 -300 L 400 300 L -400 300 L -400 -300 L -400 -300 L -400 -300 Z  M 13.269 98.21 L 22.741 98.21 L 13.269 98.21 L 13.269 98.21 L 13.269 98.21 Z " fill-rule="evenodd" fill="none"/></g></g></g></g><path d=" M -400 -300 L 400 -300 L 400 300 L -400 300 L -400 -300 L -400 -300 L -400 -300 Z  M 13.269 122.21 L 23.376 122.21 L 13.269 122.21 L 13.269 122.21 L 13.269 122.21 Z " fill-rule="evenodd" fill="none"/><rect x="88.375" y="104.009" width="4.333" height="4.403" transform="matrix(1,0,0,1,0,0)" fill="rgb(116,116,116)"/><rect x="104.209" y="114.884" width="4.333" height="4.403" transform="matrix(1,0,0,1,0,0)" fill="rgb(116,116,116)"/><rect x="120.042" y="114.884" width="4.333" height="4.403" transform="matrix(1,0,0,1,0,0)" fill="rgb(116,116,116)"/><rect x="104.209" y="104.009" width="4.333" height="4.403" transform="matrix(1,0,0,1,0,0)" fill="rgb(116,116,116)"/><rect x="120.042" y="104.009" width="4.333" height="4.403" transform="matrix(1,0,0,1,0,0)" fill="rgb(116,116,116)"/><rect x="88.375" y="114.884" width="4.333" height="4.403" transform="matrix(1,0,0,1,0,0)" fill="rgb(116,116,116)"/><rect x="74.417" y="114.884" width="4.333" height="4.403" transform="matrix(1,0,0,1,0,0)" fill="rgb(116,116,116)"/><rect x="74.417" y="104.009" width="4.333" height="4.403" transform="matrix(1,0,0,1,0,0)" fill="rgb(116,116,116)"/></g></g></g></g></g></g></g></g></g><clipPath id="_clipPath_Y1jeRL6ZeVSwMS8KxIUjzchiX9xBDS5m"><path d=" M -400 -300 L 400 -300 L 400 300 L -400 300 L -400 -300 L -400 -300 Z  M 72.625 86.085 L 127.375 86.085 L 72.625 86.085 L 72.625 86.085 Z " fill-rule="evenodd" fill="rgb(255,255,255)"/></clipPath><g clip-path="url(#_clipPath_Y1jeRL6ZeVSwMS8KxIUjzchiX9xBDS5m)"><g><clipPath id="_clipPath_2GIHlaBkbRTHXDfpnQM3YyXDh2QSVpsp"><path d=" M -400 -300 L 400 -300 L 400 300 L -400 300 L -400 -300 Z  M 72.625 86.085 L 127.375 86.085 L 72.625 86.085 Z " fill-rule="evenodd" fill="rgb(255,255,255)"/></clipPath><g clip-path="url(#_clipPath_2GIHlaBkbRTHXDfpnQM3YyXDh2QSVpsp)"><line x1="72.625" y1="86.085" x2="127.375" y2="86.085"/><g style="isolation: isolate;"><mask id="_mask_4C4s7Qm5n5vqzIzeOKFGOLDPf93eHVmR" x="-200%" y="-200%" width="400%" height="400%"><rect x="-200%" y="-200%" width="400%" height="400%" style="fill:white;"/><line x1="72.625" y1="86.085" x2="127.375" y2="86.085" fill="black" stroke="none"/></mask><line x1="72.625" y1="86.085" x2="127.375" y2="86.085" fill="none" mask="url(#_mask_4C4s7Qm5n5vqzIzeOKFGOLDPf93eHVmR)" vector-effect="non-scaling-stroke" stroke-width="2" stroke="rgb(116,116,116)" stroke-opacity="100" stroke-linejoin="miter" stroke-linecap="butt" stroke-miterlimit="4"/><line x1="72.625" y1="86.085" x2="127.375" y2="86.085" fill="none" vector-effect="non-scaling-stroke" stroke-width="1" stroke="rgb(116,116,116)" stroke-opacity="0.5019607843137255" stroke-linejoin="miter" stroke-linecap="square" stroke-miterlimit="3"/></g><line x1="72.625" y1="86.085" x2="127.375" y2="86.085" fill="none"/></g></g></g><clipPath id="_clipPath_vsVGM5l8tNgWCFAZMuPG7oL6NwVDUZ8D"><path d=" M -400 -300 L 400 -300 L 400 300 L -400 300 L -400 -300 L -400 -300 Z  M 72.75 76.96 L 127.5 76.96 L 72.75 76.96 L 72.75 76.96 Z " fill-rule="evenodd" fill="rgb(255,255,255)"/></clipPath><g clip-path="url(#_clipPath_vsVGM5l8tNgWCFAZMuPG7oL6NwVDUZ8D)"><g><clipPath id="_clipPath_frUVQkA3BTtcom5gG8BpDYQxQkQJEscD"><path d=" M -400 -300 L 400 -300 L 400 300 L -400 300 L -400 -300 Z  M 72.75 76.96 L 127.5 76.96 L 72.75 76.96 Z " fill-rule="evenodd" fill="rgb(255,255,255)"/></clipPath><g clip-path="url(#_clipPath_frUVQkA3BTtcom5gG8BpDYQxQkQJEscD)"><line x1="72.75" y1="76.96" x2="127.5" y2="76.96"/><g style="isolation: isolate;"><mask id="_mask_I9YMrvT03Opso6jjDzaByNcRyKk2WxJg" x="-200%" y="-200%" width="400%" height="400%"><rect x="-200%" y="-200%" width="400%" height="400%" style="fill:white;"/><line x1="72.75" y1="76.96" x2="127.5" y2="76.96" fill="black" stroke="none"/></mask><line x1="72.75" y1="76.96" x2="127.5" y2="76.96" fill="none" mask="url(#_mask_I9YMrvT03Opso6jjDzaByNcRyKk2WxJg)" vector-effect="non-scaling-stroke" stroke-width="2" stroke="rgb(116,116,116)" stroke-opacity="100" stroke-linejoin="miter" stroke-linecap="butt" stroke-miterlimit="4"/><line x1="72.75" y1="76.96" x2="127.5" y2="76.96" fill="none" vector-effect="non-scaling-stroke" stroke-width="1" stroke="rgb(116,116,116)" stroke-linejoin="miter" stroke-linecap="square" stroke-miterlimit="3"/></g><line x1="72.75" y1="76.96" x2="127.5" y2="76.96" fill="none"/></g></g></g></g></g></g></g></g></g></svg>