<?xml version="1.0" encoding="UTF-8" standalone="no"?><!-- Generator: Gravit.io --><svg xmlns="http://www.w3.org/2000/svg" xmlns:xlink="http://www.w3.org/1999/xlink" style="isolation:isolate" viewBox="0 0 200 150" width="200pt" height="150pt"><defs><clipPath id="_clipPath_5CmkaK06o2OfMVVOYmRLTVgVDIPiCUHU"><rect width="200" height="150"/></clipPath></defs><g clip-path="url(#_clipPath_5CmkaK06o2OfMVVOYmRLTVgVDIPiCUHU)"><clipPath id="_clipPath_FEYnX182XiHMbYuvv8ps0qg2r4iWlKWz"><rect x="0" y="0" width="200" height="150" transform="matrix(1,0,0,1,0,0)" fill="rgb(255,255,255)"/></clipPath><g clip-path="url(#_clipPath_FEYnX182XiHMbYuvv8ps0qg2r4iWlKWz)"><g><path d=" M -400 -300 L 400 -300 L 400 300 L -400 300 L -400 -300 Z  M 0 1.116 L 200 1.116 L 0 1.116 Z " fill-rule="evenodd" fill="none" vector-effect="non-scaling-stroke" stroke-width="3" stroke="rgb(116,116,116)" stroke-linejoin="miter" stroke-linecap="square" stroke-miterlimit="3"/><clipPath id="_clipPath_7nj5av6Ga66FWyd8m145hNbuU3qpEj8r"><path d=" M -400 -300 L 400 -300 L 400 300 L -400 300 L -400 -300 Z  M 0 1.116 L 200 1.116 L 0 1.116 Z " fill-rule="evenodd" fill="none" vector-effect="non-scaling-stroke" stroke-width="3" stroke="rgb(116,116,116)" stroke-linejoin="miter" stroke-linecap="square" stroke-miterlimit="3"/></clipPath><g clip-path="url(#_clipPath_7nj5av6Ga66FWyd8m145hNbuU3qpEj8r)"><mask id="_mask_IRDKV4Rsv2GhpAZ7y9ypKfVH1WEdgnsd" x="-200%" y="-200%" width="400%" height="400%"><rect x="-200%" y="-200%" width="400%" height="400%" style="fill:white;"/><line x1="0" y1="1.116" x2="200" y2="1.116" fill="black" stroke="none"/></mask><line x1="0" y1="1.116" x2="200" y2="1.116" mask="url(#_mask_IRDKV4Rsv2GhpAZ7y9ypKfVH1WEdgnsd)" vector-effect="non-scaling-stroke" stroke-width="4" stroke="rgb(116,116,116)" stroke-opacity="100" stroke-linejoin="miter" stroke-linecap="butt" stroke-miterlimit="4"/></g><path d=" M -400 -300 L 400 -300 L 400 300 L -400 300 L -400 -300 Z  M 0 1.116 L 200 1.116 L 0 1.116 Z " fill-rule="evenodd" fill="transparent" vector-effect="non-scaling-stroke" stroke-width="3" stroke="rgb(116,116,116)" stroke-linejoin="miter" stroke-linecap="square" stroke-miterlimit="3"/><path d=" M -400 -300 L 400 -300 L 400 300 L -400 300 L -400 -300 Z  M 0 149 L 200 149 L 0 149 Z " fill-rule="evenodd" fill="none" vector-effect="non-scaling-stroke" stroke-width="3" stroke="rgb(116,116,116)" stroke-linejoin="miter" stroke-linecap="square" stroke-miterlimit="3"/><clipPath id="_clipPath_ppCqBYRaOfek8F52gGHV7HR9WXu6xjPF"><path d=" M -400 -300 L 400 -300 L 400 300 L -400 300 L -400 -300 Z  M 0 149 L 200 149 L 0 149 Z " fill-rule="evenodd" fill="none" vector-effect="non-scaling-stroke" stroke-width="3" stroke="rgb(116,116,116)" stroke-linejoin="miter" stroke-linecap="square" stroke-miterlimit="3"/></clipPath><g clip-path="url(#_clipPath_ppCqBYRaOfek8F52gGHV7HR9WXu6xjPF)"><mask id="_mask_PAYiiIeVZgjYCx5ueqfA9iRpBWtoJEzD" x="-200%" y="-200%" width="400%" height="400%"><rect x="-200%" y="-200%" width="400%" height="400%" style="fill:white;"/><line x1="0" y1="149" x2="200" y2="149" fill="black" stroke="none"/></mask><line x1="0" y1="149" x2="200" y2="149" mask="url(#_mask_PAYiiIeVZgjYCx5ueqfA9iRpBWtoJEzD)" vector-effect="non-scaling-stroke" stroke-width="4" stroke="rgb(116,116,116)" stroke-opacity="100" stroke-linejoin="miter" stroke-linecap="butt" stroke-miterlimit="4"/></g><path d=" M -400 -300 L 400 -300 L 400 300 L -400 300 L -400 -300 Z  M 0 149 L 200 149 L 0 149 Z " fill-rule="evenodd" fill="transparent" vector-effect="non-scaling-stroke" stroke-width="3" stroke="rgb(116,116,116)" stroke-linejoin="miter" stroke-linecap="square" stroke-miterlimit="3"/><path d=" M -400 -300 L 400 -300 L 400 300 L -400 300 L -400 -300 Z  M 0.866 0 L 0.866 150 L 0.866 0 Z " fill-rule="evenodd" fill="none" vector-effect="non-scaling-stroke" stroke-width="3" stroke="rgb(116,116,116)" stroke-linejoin="miter" stroke-linecap="square" stroke-miterlimit="3"/><clipPath id="_clipPath_3mqlsJxKupKi1obDfxSOZX6YyrNeQEmu"><path d=" M -400 -300 L 400 -300 L 400 300 L -400 300 L -400 -300 Z  M 0.866 0 L 0.866 150 L 0.866 0 Z " fill-rule="evenodd" fill="none" vector-effect="non-scaling-stroke" stroke-width="3" stroke="rgb(116,116,116)" stroke-linejoin="miter" stroke-linecap="square" stroke-miterlimit="3"/></clipPath><g clip-path="url(#_clipPath_3mqlsJxKupKi1obDfxSOZX6YyrNeQEmu)"><mask id="_mask_Al9wCpM3ZeqU945ILODn73ScC1Ab259M" x="-200%" y="-200%" width="400%" height="400%"><rect x="-200%" y="-200%" width="400%" height="400%" style="fill:white;"/><line x1="0.866" y1="0" x2="0.866" y2="150" fill="black" stroke="none"/></mask><line x1="0.866" y1="0" x2="0.866" y2="150" mask="url(#_mask_Al9wCpM3ZeqU945ILODn73ScC1Ab259M)" vector-effect="non-scaling-stroke" stroke-width="3.464" stroke="rgb(116,116,116)" stroke-opacity="100" stroke-linejoin="miter" stroke-linecap="butt" stroke-miterlimit="4"/></g><path d=" M -400 -300 L 400 -300 L 400 300 L -400 300 L -400 -300 Z  M 0.866 0 L 0.866 150 L 0.866 0 Z " fill-rule="evenodd" fill="transparent" vector-effect="non-scaling-stroke" stroke-width="3" stroke="rgb(116,116,116)" stroke-linejoin="miter" stroke-linecap="square" stroke-miterlimit="3"/><path d=" M -400 -300 L 400 -300 L 400 300 L -400 300 L -400 -300 Z  M 199.134 0 L 199.134 150 L 199.134 0 Z " fill-rule="evenodd" fill="none" vector-effect="non-scaling-stroke" stroke-width="3" stroke="rgb(116,116,116)" stroke-linejoin="miter" stroke-linecap="square" stroke-miterlimit="3"/><clipPath id="_clipPath_mqpXdZSRuYMzIez1sUSzhYUR2Xhp30PO"><path d=" M -400 -300 L 400 -300 L 400 300 L -400 300 L -400 -300 Z  M 199.134 0 L 199.134 150 L 199.134 0 Z " fill-rule="evenodd" fill="none" vector-effect="non-scaling-stroke" stroke-width="3" stroke="rgb(116,116,116)" stroke-linejoin="miter" stroke-linecap="square" stroke-miterlimit="3"/></clipPath><g clip-path="url(#_clipPath_mqpXdZSRuYMzIez1sUSzhYUR2Xhp30PO)"><mask id="_mask_7OpeUFK3CIpyfVq4EqlQkEfUqCFFl7tx" x="-200%" y="-200%" width="400%" height="400%"><rect x="-200%" y="-200%" width="400%" height="400%" style="fill:white;"/><line x1="199.134" y1="0" x2="199.134" y2="150" fill="black" stroke="none"/></mask><line x1="199.134" y1="0" x2="199.134" y2="150" mask="url(#_mask_7OpeUFK3CIpyfVq4EqlQkEfUqCFFl7tx)" vector-effect="non-scaling-stroke" stroke-width="3.464" stroke="rgb(116,116,116)" stroke-opacity="100" stroke-linejoin="miter" stroke-linecap="butt" stroke-miterlimit="4"/></g><path d=" M -400 -300 L 400 -300 L 400 300 L -400 300 L -400 -300 Z  M 199.134 0 L 199.134 150 L 199.134 0 Z " fill-rule="evenodd" fill="transparent" vector-effect="non-scaling-stroke" stroke-width="3" stroke="rgb(116,116,116)" stroke-linejoin="miter" stroke-linecap="square" stroke-miterlimit="3"/><path d=" M -400 -300 L 400 -300 L 400 300 L -400 300 L -400 -300 Z  M 165.768 4.989 L 196.057 4.989 L 165.768 4.989 Z " fill-rule="evenodd" fill="none" vector-effect="non-scaling-stroke" stroke-width="3" stroke="rgb(116,116,116)" stroke-linejoin="miter" stroke-linecap="square" stroke-miterlimit="3"/><clipPath id="_clipPath_WcmqqGdwBVVpKTRk0RHQ0w45IMTfCMCX"><path d=" M -400 -300 L 400 -300 L 400 300 L -400 300 L -400 -300 Z  M 165.768 4.989 L 196.057 4.989 L 165.768 4.989 Z " fill-rule="evenodd" fill="none" vector-effect="non-scaling-stroke" stroke-width="3" stroke="rgb(116,116,116)" stroke-linejoin="miter" stroke-linecap="square" stroke-miterlimit="3"/></clipPath><g clip-path="url(#_clipPath_WcmqqGdwBVVpKTRk0RHQ0w45IMTfCMCX)"><mask id="_mask_VjI0r2no190dzCfaEUCosPRUZnAmcWY4" x="-200%" y="-200%" width="400%" height="400%"><rect x="-200%" y="-200%" width="400%" height="400%" style="fill:white;"/><line x1="165.768" y1="4.989" x2="196.057" y2="4.989" fill="black" stroke="none"/></mask><line x1="165.768" y1="4.989" x2="196.057" y2="4.989" mask="url(#_mask_VjI0r2no190dzCfaEUCosPRUZnAmcWY4)" vector-effect="non-scaling-stroke" stroke-width="4" stroke="rgb(116,116,116)" stroke-opacity="100" stroke-linejoin="miter" stroke-linecap="butt" stroke-miterlimit="4"/></g><path d=" M -400 -300 L 400 -300 L 400 300 L -400 300 L -400 -300 Z  M 165.768 4.989 L 196.057 4.989 L 165.768 4.989 Z " fill-rule="evenodd" fill="transparent" vector-effect="non-scaling-stroke" stroke-width="3" stroke="rgb(116,116,116)" stroke-linejoin="miter" stroke-linecap="square" stroke-miterlimit="3"/><path d=" M -400 -300 L 400 -300 L 400 300 L -400 300 L -400 -300 Z  M 0 9.116 L 200 9.116 L 0 9.116 Z " fill-rule="evenodd" fill="none" vector-effect="non-scaling-stroke" stroke-width="3" stroke="rgb(116,116,116)" stroke-linejoin="miter" stroke-linecap="square" stroke-miterlimit="3"/><clipPath id="_clipPath_PKwS14D0cYD2CyeHVSw5gQQAOlWRz7ck"><path d=" M -400 -300 L 400 -300 L 400 300 L -400 300 L -400 -300 Z  M 0 9.116 L 200 9.116 L 0 9.116 Z " fill-rule="evenodd" fill="none" vector-effect="non-scaling-stroke" stroke-width="3" stroke="rgb(116,116,116)" stroke-linejoin="miter" stroke-linecap="square" stroke-miterlimit="3"/></clipPath><g clip-path="url(#_clipPath_PKwS14D0cYD2CyeHVSw5gQQAOlWRz7ck)"><mask id="_mask_UxrUyOVVxFE8AfG6w1F1MCI3qtYGxcVl" x="-200%" y="-200%" width="400%" height="400%"><rect x="-200%" y="-200%" width="400%" height="400%" style="fill:white;"/><line x1="0" y1="9.116" x2="200" y2="9.116" fill="black" stroke="none"/></mask><line x1="0" y1="9.116" x2="200" y2="9.116" mask="url(#_mask_UxrUyOVVxFE8AfG6w1F1MCI3qtYGxcVl)" vector-effect="non-scaling-stroke" stroke-width="4" stroke="rgb(116,116,116)" stroke-opacity="100" stroke-linejoin="miter" stroke-linecap="butt" stroke-miterlimit="4"/></g><path d=" M -400 -300 L 400 -300 L 400 300 L -400 300 L -400 -300 Z  M 0 9.116 L 200 9.116 L 0 9.116 Z " fill-rule="evenodd" fill="transparent" vector-effect="non-scaling-stroke" stroke-width="3" stroke="rgb(116,116,116)" stroke-linejoin="miter" stroke-linecap="square" stroke-miterlimit="3"/><rect x="119.777" y="136.789" width="7.829" height="7.955" transform="matrix(0.004,-1,1,0.004,-17.569,263.894)" fill="rgb(116,116,116)"/><rect x="107.777" y="136.741" width="7.829" height="7.955" transform="matrix(0.004,-1,1,0.004,-29.473,251.846)" fill="rgb(116,116,116)"/><rect x="95.777" y="136.694" width="7.829" height="7.955" transform="matrix(0.004,-1,1,0.004,-41.378,239.799)" fill="rgb(116,116,116)"/><rect x="83.777" y="136.645" width="7.829" height="7.955" transform="matrix(0.004,-1,1,0.004,-53.281,227.751)" fill="rgb(116,116,116)"/><rect x="71.777" y="136.598" width="7.829" height="7.955" transform="matrix(0.004,-1,1,0.004,-65.186,215.704)" fill="rgb(116,116,116)"/><path d=" M -400 -300 L 400 -300 L 400 300 L -400 300 L -400 -300 Z  M 66.881 148.874 L 66.951 131.323 L 133.115 131.588 L 133.044 149.518 L 66.881 148.874 Z " fill-rule="evenodd" fill="none" vector-effect="non-scaling-stroke" stroke-width="3" stroke="rgb(116,116,116)" stroke-linejoin="miter" stroke-linecap="square" stroke-miterlimit="3"/><clipPath id="_clipPath_uTL6DyInHPVwvLtV6FHmrUXLgUPKKVF8"><path d=" M -400 -300 L 400 -300 L 400 300 L -400 300 L -400 -300 Z  M 66.881 148.874 L 66.951 131.323 L 133.115 131.588 L 133.044 149.518 L 66.881 148.874 Z " fill-rule="evenodd" fill="none" vector-effect="non-scaling-stroke" stroke-width="3" stroke="rgb(116,116,116)" stroke-linejoin="miter" stroke-linecap="square" stroke-miterlimit="3"/></clipPath><g clip-path="url(#_clipPath_uTL6DyInHPVwvLtV6FHmrUXLgUPKKVF8)"><mask id="_mask_gyVCSP6XzwX5Sc3E3DmWYamGlQXpamEW" x="-200%" y="-200%" width="400%" height="400%"><rect x="-200%" y="-200%" width="400%" height="400%" style="fill:white;"/><path d=" M 66.881 148.874 L 66.951 131.323 L 133.115 131.588 L 133.044 149.518" fill="black" stroke="none"/></mask><path d=" M 66.881 148.874 L 66.951 131.323 L 133.115 131.588 L 133.044 149.518" fill="none" mask="url(#_mask_gyVCSP6XzwX5Sc3E3DmWYamGlQXpamEW)" vector-effect="non-scaling-stroke" stroke-width="4" stroke="rgb(116,116,116)" stroke-opacity="100" stroke-linejoin="miter" stroke-linecap="butt" stroke-miterlimit="4"/><path d=" M 66.881 148.874 L 66.951 131.323 L 133.115 131.588 L 133.044 149.518" fill="none"/></g><path d=" M -400 -300 L 400 -300 L 400 300 L -400 300 L -400 -300 Z  M 66.881 148.874 L 66.951 131.323 L 133.115 131.588 L 133.044 149.518 L 66.881 148.874 Z " fill-rule="evenodd" fill="transparent" vector-effect="non-scaling-stroke" stroke-width="3" stroke="rgb(116,116,116)" stroke-linejoin="miter" stroke-linecap="square" stroke-miterlimit="3"/><path d=" M 66.881 148.874 L 66.951 131.323 L 133.115 131.588 L 133.044 149.518" fill="none"/><rect x="2.92" y="3.028" width="3.984" height="3.984" transform="matrix(0.004,-1,1,0.004,-0.128,9.912)" fill="rgb(116,116,116)" vector-effect="non-scaling-stroke" stroke-width="1.01" stroke="rgb(116,116,116)" stroke-opacity="100" stroke-linejoin="bevel" stroke-linecap="round" stroke-miterlimit="2"/></g></g></g></svg>